<svg xmlns="http://www.w3.org/2000/svg" fill="none" viewBox="0 0 148 44">
  <path fill="#fff" d="M35.43 21.52a5.5 5.5 0 0 1 2.6-4.58 5.6 5.6 0 0 0-4.4-2.36c-1.84-.2-3.63 1.1-4.58 1.1-.95 0-2.4-1.1-3.97-1.1a5.86 5.86 0 0 0-4.92 3c-2.12 3.69-.54 9.1 1.5 12.1 1.02 1.45 2.2 3.08 3.77 3.03 1.57-.06 2.1-.97 3.94-.97 1.84 0 2.35.97 3.95.93 1.6-.03 2.67-1.47 3.65-2.93a12 12 0 0 0 1.67-3.41 5.25 5.25 0 0 1-3.21-4.81ZM32.43 12.64a5.37 5.37 0 0 0 1.2-3.87 5.5 5.5 0 0 0-3.51 1.83 5.1 5.1 0 0 0-1.27 3.7 4.55 4.55 0 0 0 3.58-1.66ZM54.71 29.03h-5.2l-1.26 3.7h-2.2l4.93-13.66h2.3l4.93 13.66H56l-1.3-3.7Zm-4.66-1.7h4.12l-2.03-5.99-2.1 6ZM68.84 27.74c0 3.1-1.65 5.1-4.16 5.1a3.4 3.4 0 0 1-3.14-1.75v4.94h-2.06V22.77h1.98v1.65a3.53 3.53 0 0 1 3.16-1.76c2.58 0 4.22 2 4.22 5.08Zm-2.1 0c0-2-1.1-3.3-2.63-3.3-1.53 0-2.62 1.36-2.62 3.3 0 1.95 1.1 3.3 2.62 3.3 1.51 0 2.65-1.26 2.65-3.3h-.02ZM79.84 27.74c0 3.1-1.66 5.1-4.16 5.1a3.39 3.39 0 0 1-3.14-1.75v4.94h-2.1V22.77h1.98v1.65a3.53 3.53 0 0 1 3.17-1.76c2.56 0 4.25 2 4.25 5.08Zm-2.1 0c0-2-1.05-3.3-2.64-3.3-1.6 0-2.61 1.36-2.61 3.3 0 1.95 1.04 3.3 2.6 3.3 1.57 0 2.65-1.32 2.65-3.3ZM87.07 28.92c.15 1.35 1.47 2.2 3.3 2.2 1.82 0 2.95-.89 2.95-2.11 0-1.22-.78-1.65-2.48-2.07l-1.77-.43c-2.57-.61-3.73-1.77-3.73-3.7 0-2.35 2.04-3.96 4.97-3.96 2.93 0 4.86 1.61 4.93 3.97h-2.07c-.12-1.37-1.24-2.2-2.9-2.2-1.64 0-2.73.82-2.73 2.05 0 .97.71 1.54 2.47 1.97l1.51.38c2.8.66 3.97 1.78 3.97 3.78 0 2.55-2.03 4.16-5.28 4.16-3.02 0-5.07-1.56-5.2-4.04h2.06ZM99.87 20.4v2.37h1.89v1.62h-1.9v5.5c0 .86.38 1.25 1.22 1.25h.67v1.62c-.36.07-.73.1-1.1.09-2.02 0-2.8-.76-2.8-2.69V24.4h-1.51v-1.62h1.45v-2.36h2.08ZM102.86 27.74c0-3.12 1.84-5.09 4.72-5.09s4.73 1.97 4.73 5.1c0 3.12-1.84 5.1-4.73 5.1-2.9 0-4.72-1.96-4.72-5.1Zm7.36 0c0-2.2-.98-3.4-2.64-3.4-1.66 0-2.64 1.27-2.64 3.4 0 2.14.98 3.43 2.64 3.43 1.66 0 2.64-1.26 2.64-3.43ZM114 22.77h1.94v1.7a2.39 2.39 0 0 1 2.4-1.8c.23 0 .47.02.7.07v1.91c-.3-.09-.61-.13-.92-.12a2.06 2.06 0 0 0-2.1 1.97V32.72H114v-9.95ZM128.51 29.8c-.27 1.82-2.03 3.05-4.29 3.05-2.9 0-4.7-1.94-4.7-5.05s1.8-5.15 4.61-5.15c2.8 0 4.5 1.9 4.5 4.9v.71h-7v.12A2.6 2.6 0 0 0 124 31.2h.32a2.27 2.27 0 0 0 2.3-1.41l1.9.01Zm-6.87-2.97h4.98a2.4 2.4 0 0 0-2.2-2.53h-.19a2.52 2.52 0 0 0-2.6 2.5v.03ZM49.8 8.8a2.9 2.9 0 0 1 3.1 2.68v.57c0 2.1-1.1 3.3-3.1 3.3h-2.38v-6.6l2.37.04Zm-1.36 5.62h1.23a2.07 2.07 0 0 0 2.2-1.93c.02-.14.02-.29 0-.43a2.07 2.07 0 0 0-1.77-2.33 2.39 2.39 0 0 0-.4 0h-1.26v4.7ZM54.03 12.87a2.35 2.35 0 1 1 4.68 0 2.35 2.35 0 1 1-4.68 0Zm3.67 0c0-1.1-.48-1.7-1.33-1.7-.84 0-1.33.62-1.33 1.7s.48 1.7 1.33 1.7c.86 0 1.33-.62 1.33-1.7ZM64.9 15.35h-1l-1.03-3.64h-.07l-1.02 3.64h-1l-1.37-4.9h.99l.89 3.78h.08l1-3.79h.97l1.02 3.79h.08l.88-3.79h.97l-1.38 4.9ZM67.43 10.44h.93v.78h.08a1.5 1.5 0 0 1 1.47-.88 1.62 1.62 0 0 1 1.73 1.49c.02.12.02.24 0 .36v3.2h-.98v-3c0-.8-.34-1.19-1.1-1.19a1.1 1.1 0 0 0-1.19 1.1v3.07h-.96l.02-4.93ZM73.24 8.46h.96v6.89h-.96V8.46ZM75.52 12.87a2.35 2.35 0 1 1 4.68 0 2.35 2.35 0 1 1-4.68 0Zm3.67 0c0-1.1-.49-1.7-1.33-1.7-.85 0-1.32.62-1.32 1.7s.47 1.7 1.32 1.7c.84 0 1.33-.62 1.33-1.7ZM81.22 13.95c0-.89.67-1.4 1.85-1.48l1.34-.08v-.42c0-.53-.35-.82-1.01-.82s-.93.2-1.04.55h-.94c.1-.85.89-1.4 2.02-1.4 1.14 0 1.9.61 1.9 1.67v3.38h-.94v-.7h-.08a1.7 1.7 0 0 1-1.5.79 1.5 1.5 0 0 1-1.63-1.35c0-.05.01-.1.03-.14Zm3.19-.43v-.4l-1.21.07c-.68 0-.99.28-.99.72 0 .44.39.7.91.7a1.17 1.17 0 0 0 1.28-1.1l.01.01ZM86.67 12.87c0-1.56.8-2.56 2.05-2.56a1.67 1.67 0 0 1 1.52.87h.08V8.46h.97v6.89h-.94v-.78h-.08a1.7 1.7 0 0 1-1.55.87c-1.26 0-2.05-1-2.05-2.57Zm1 0c0 1.1.5 1.69 1.33 1.69.82 0 1.33-.64 1.33-1.69 0-1.04-.52-1.68-1.33-1.68-.82 0-1.32.64-1.32 1.68ZM95.33 12.87a2.35 2.35 0 1 1 4.68 0 2.35 2.35 0 1 1-4.68 0Zm3.67 0c0-1.1-.48-1.7-1.32-1.7-.85 0-1.35.62-1.35 1.7s.48 1.7 1.34 1.7c.85 0 1.33-.62 1.33-1.7ZM101.32 10.44h.95v.78h.06a1.5 1.5 0 0 1 1.49-.88 1.62 1.62 0 0 1 1.72 1.49v3.56h-.98v-3c0-.8-.35-1.19-1.1-1.19a1.1 1.1 0 0 0-1.18 1.1V15.37h-.98l.02-4.93ZM111.05 9.17v1.27h1.1v.83h-1.1v2.47c0 .53.21.75.7.75h.37v.81c-.18.02-.35.02-.53 0-1.1 0-1.52-.38-1.52-1.34v-2.72h-.79v-.8h.8V9.17h.97ZM113.46 8.46h.97v2.73h.08a1.51 1.51 0 0 1 1.5-.88 1.62 1.62 0 0 1 1.72 1.54v3.5h-.98v-2.96c0-.78-.36-1.19-1.1-1.19a1.15 1.15 0 0 0-1.25 1.1v3.1h-.97l.03-6.94ZM123.42 14.02a2.01 2.01 0 0 1-2.2 1.43 2.2 2.2 0 0 1-2.31-2.2v-.37a2.29 2.29 0 0 1 1.96-2.57h.33c1.37 0 2.2.95 2.2 2.5v.34h-3.41a1.31 1.31 0 0 0 1.18 1.42h.14a1.2 1.2 0 0 0 1.17-.6l.94.05Zm-3.43-1.6h2.5a1.2 1.2 0 0 0-1.1-1.29h-.13A1.25 1.25 0 0 0 120 12.4v.03Z"/>
</svg>
