<svg width="32" height="32" viewBox="0 0 32 32" fill="none" xmlns="http://www.w3.org/2000/svg">
  <g clip-path="url(#clip0_676_115193)">
    <g clip-path="url(#clip1_676_115193)">
      <path d="M42.6667 0L-8 0L-8 25.3333L42.6667 25.3333L42.6667 0Z" fill="#012169"/>
      <path d="M8.57864 12.6658C8.59891 12.6432 8.61894 12.6206 8.63898 12.5978C8.61894 12.6206 8.59846 12.643 8.57813 12.6658H8.57864Z" fill="#F0F0F0"/>
      <path d="M6.04238 15.7775L6.85562 17.4779L8.6922 17.0536L7.86968 18.7496L9.34654 19.9208L7.50781 20.3353L7.51293 22.2202L6.04238 21.0409L4.57189 22.2202L4.57701 20.3353L2.73828 19.9208L4.21515 18.7496L3.39263 17.0536L5.22914 17.4779L6.04238 15.7775Z" fill="#F0F0F0"/>
      <path d="M21.0604 7.95264L21.4483 8.7638L22.3243 8.56127L21.932 9.37028L22.6363 9.92896L21.7593 10.1266L21.7617 11.0257L21.0604 10.4632L20.359 11.0257L20.3614 10.1266L19.4844 9.92896L20.1887 9.37028L19.7966 8.56127L20.6725 8.7638L21.0604 7.95264Z" fill="#F0F0F0"/>
      <path d="M25.5369 1.93372L25.9248 2.74488L26.8007 2.54227L26.4085 3.35136L27.1128 3.90997L26.2358 4.10767L26.2382 5.00671L25.5369 4.44416L24.8356 5.00671L24.8379 4.10767L23.9609 3.90997L24.6653 3.35136L24.2731 2.54227L25.149 2.74488L25.5369 1.93372Z" fill="#F0F0F0"/>
      <path d="M28.6363 11.0255L28.9413 11.9645L29.9286 11.9645L29.1299 12.5448L29.435 13.4838L28.6363 12.9035L27.8373 13.4838L28.1425 12.5448L27.3438 11.9645L28.3311 11.9645L28.6363 11.0255Z" fill="#F0F0F0"/>
      <path d="M15.4047 0.00134277V2.26881L10.7309 4.13152L15.4047 4.13152V8.5368H9.91692L15.4047 10.9736V12.667H12.984L5.76742 9.19652V12.667H1.63724V9.06217L-7.05421 12.667H-8L-8 10.3995L-3.54651 8.5368H-8V4.13152L-2.51226 4.13152L-8 1.69387V0.00134277L-6.01996 0.00134277L1.63724 3.03129V0.00134277L5.76742 0.00134277V3.60615L14.4589 0.00134277L15.4047 0.00134277Z" fill="#F0F0F0"/>
      <path d="M4.88976 0L2.5149 0L2.5149 5.14543L-8 5.14543L-8 7.52028L2.5149 7.52028L2.5149 12.6659L4.88976 12.6659L4.88976 7.52028L15.4047 7.52028L15.4047 5.14543L4.88976 5.14543L4.88976 0Z" fill="#D80027"/>
      <path d="M6.75781 8.59143L15.3491 12.5566L15.3491 11.4354L9.05813 8.59143L6.75781 8.59143Z" fill="#D80027"/>
      <path d="M-1.04824 8.59143L-8 11.4354L-8 12.5566L1.25217 8.59143H-1.04824Z" fill="#D80027"/>
      <path d="M0.811594 4.18551L-8 0V1.18356L-1.26843 4.18551H0.811594Z" fill="#D80027"/>
      <path d="M7.95666 4.18551L15.349 1.18356L15.349 0L5.65625 4.18551L7.95666 4.18551Z" fill="#D80027"/>
    </g>
    <g clip-path="url(#clip2_676_115193)">
      <rect x="5.54297" y="5.33337" width="20.2412" height="36.4341" fill="white"/>
      <path d="M6.44385 5.33337H-12V42.2223H6.44385V5.33337Z" fill="#FF0000"/>
      <path d="M43.3345 5.33337L24.8906 5.33337L24.8906 42.2223L43.3345 42.2223L43.3345 5.33337Z" fill="#FF0000"/>
      <path d="M19.1249 26.3401L22.5832 24.6109L20.854 23.7465V22.0173L17.3957 23.7465L19.1249 20.2882H17.3957L15.6666 17.6943L13.9374 20.2882H12.2083L13.9374 23.7465L10.4791 22.0173V23.7465L8.75 24.6109L12.2083 26.3401L11.3438 28.0692H14.8021V30.6631H16.5313V28.0692H19.9896L19.1249 26.3401Z" fill="#FF0000"/>
    </g>
  </g>
  <defs>
    <clipPath id="clip0_676_115193">
      <rect width="32" height="32" rx="6" fill="white"/>
    </clipPath>
    <clipPath id="clip1_676_115193">
      <rect width="16" height="32" fill="white" transform="translate(32) rotate(90)"/>
    </clipPath>
    <clipPath id="clip2_676_115193">
      <rect x="32" y="16" width="16" height="32" transform="rotate(90 32 16)" fill="white"/>
    </clipPath>
  </defs>
</svg>
