<svg width="32" height="32" viewBox="0 0 32 32" fill="none" xmlns="http://www.w3.org/2000/svg">
  <g clip-path="url(#clip0_676_115215)">
    <path d="M42.6667 0H-8V25.3333H42.6667V0Z" fill="#012169"/>
    <path d="M8.57864 12.6658C8.59891 12.6432 8.61894 12.6206 8.63898 12.5978C8.61894 12.6206 8.59846 12.643 8.57812 12.6658H8.57864Z" fill="#F0F0F0"/>
    <path d="M6.04237 15.7775L6.85562 17.4779L8.6922 17.0536L7.86968 18.7496L9.34654 19.9208L7.50781 20.3353L7.51293 22.2202L6.04237 21.0409L4.57189 22.2202L4.57701 20.3353L2.73828 19.9208L4.21514 18.7496L3.39263 17.0536L5.22914 17.4779L6.04237 15.7775Z" fill="#F0F0F0"/>
    <path d="M29.5369 18.3307L29.9248 19.1418L30.8007 18.9393L30.4085 19.7483L31.1129 20.3069L30.2358 20.5046L30.2382 21.4036L29.5369 20.8412L28.8356 21.4036L28.8379 20.5046L27.9609 20.3069L28.6653 19.7483L28.2731 18.9393L29.149 19.1418L29.5369 18.3307Z" fill="#F0F0F0"/>
    <path d="M21.0604 7.95264L21.4483 8.7638L22.3243 8.56127L21.932 9.37028L22.6363 9.92896L21.7593 10.1266L21.7617 11.0257L21.0604 10.4632L20.359 11.0257L20.3614 10.1266L19.4844 9.92896L20.1887 9.37028L19.7966 8.56127L20.6725 8.7638L21.0604 7.95264Z" fill="#F0F0F0"/>
    <path d="M25.5369 1.93372L25.9248 2.74488L26.8007 2.54227L26.4085 3.35136L27.1128 3.90997L26.2358 4.10767L26.2382 5.00671L25.5369 4.44416L24.8356 5.00671L24.8379 4.10767L23.9609 3.90997L24.6653 3.35136L24.2731 2.54227L25.149 2.74488L25.5369 1.93372Z" fill="#F0F0F0"/>
    <path d="M28.6363 11.0255L28.9413 11.9645H29.9286L29.1299 12.5448L29.435 13.4838L28.6363 12.9035L27.8373 13.4838L28.1425 12.5448L27.3438 11.9645H28.3311L28.6363 11.0255Z" fill="#F0F0F0"/>
    <path d="M15.4047 0.00134277V2.26881L10.7309 4.13152H15.4047V8.5368H9.91692L15.4047 10.9736V12.667H12.984L5.76742 9.19652V12.667H1.63724V9.06217L-7.05421 12.667H-8V10.3995L-3.54651 8.5368H-8V4.13152H-2.51226L-8 1.69387V0.00134277H-6.01996L1.63724 3.03129V0.00134277H5.76742V3.60615L14.4589 0.00134277H15.4047Z" fill="#F0F0F0"/>
    <path d="M4.88976 0H2.5149V5.14543H-8V7.52028H2.5149V12.6659H4.88976V7.52028H15.4047V5.14543H4.88976V0Z" fill="#D80027"/>
    <path d="M6.75781 8.59143L15.3491 12.5566V11.4354L9.05813 8.59143H6.75781Z" fill="#D80027"/>
    <path d="M-1.04824 8.59143L-8 11.4354V12.5566L1.25217 8.59143H-1.04824Z" fill="#D80027"/>
    <path d="M0.811594 4.18551L-8 0V1.18356L-1.26843 4.18551H0.811594Z" fill="#D80027"/>
    <path d="M7.95666 4.18551L15.349 1.18356V0L5.65625 4.18551H7.95666Z" fill="#D80027"/>
    <rect y="16" width="32" height="16" fill="white"/>
    <ellipse cx="16.0013" cy="24" rx="5.33333" ry="5.33333" fill="#BC002D"/>
  </g>
  <rect x="0.5" y="0.5" width="31" height="31" rx="5.5" stroke="#E3E7ED"/>
  <defs>
    <clipPath id="clip0_676_115215">
      <rect width="32" height="32" rx="6" fill="white"/>
    </clipPath>
  </defs>
</svg>
