<svg width="32" height="32" viewBox="0 0 32 32" fill="none" xmlns="http://www.w3.org/2000/svg">
<g clip-path="url(#clip0_676_115226)">
<g clip-path="url(#clip1_676_115226)">
<path d="M42.6667 0L-8 0L-8 25.3333L42.6667 25.3333L42.6667 0Z" fill="#012169"/>
<path d="M8.57864 12.6658C8.59891 12.6432 8.61894 12.6206 8.63898 12.5978C8.61894 12.6206 8.59846 12.643 8.57813 12.6658H8.57864Z" fill="#F0F0F0"/>
<path d="M6.04238 15.7775L6.85562 17.4779L8.6922 17.0536L7.86968 18.7496L9.34654 19.9208L7.50781 20.3353L7.51293 22.2202L6.04238 21.0409L4.57189 22.2202L4.57701 20.3353L2.73828 19.9208L4.21515 18.7496L3.39263 17.0536L5.22914 17.4779L6.04238 15.7775Z" fill="#F0F0F0"/>
<path d="M21.0604 7.95264L21.4483 8.7638L22.3243 8.56127L21.932 9.37028L22.6363 9.92896L21.7593 10.1266L21.7617 11.0257L21.0604 10.4632L20.359 11.0257L20.3614 10.1266L19.4844 9.92896L20.1887 9.37028L19.7966 8.56127L20.6725 8.7638L21.0604 7.95264Z" fill="#F0F0F0"/>
<path d="M25.5369 1.93372L25.9248 2.74488L26.8007 2.54227L26.4085 3.35136L27.1128 3.90997L26.2358 4.10767L26.2382 5.00671L25.5369 4.44416L24.8356 5.00671L24.8379 4.10767L23.9609 3.90997L24.6653 3.35136L24.2731 2.54227L25.149 2.74488L25.5369 1.93372Z" fill="#F0F0F0"/>
<path d="M28.6363 11.0255L28.9413 11.9645L29.9286 11.9645L29.1299 12.5448L29.435 13.4838L28.6363 12.9035L27.8373 13.4838L28.1425 12.5448L27.3438 11.9645L28.3311 11.9645L28.6363 11.0255Z" fill="#F0F0F0"/>
<path d="M15.4047 0.00134277V2.26881L10.7309 4.13152L15.4047 4.13152V8.5368H9.91692L15.4047 10.9736V12.667H12.984L5.76742 9.19652V12.667H1.63724V9.06217L-7.05421 12.667H-8L-8 10.3995L-3.54651 8.5368H-8V4.13152L-2.51226 4.13152L-8 1.69387V0.00134277L-6.01996 0.00134277L1.63724 3.03129V0.00134277L5.76742 0.00134277V3.60615L14.4589 0.00134277L15.4047 0.00134277Z" fill="#F0F0F0"/>
<path d="M4.88976 0L2.5149 0L2.5149 5.14543L-8 5.14543L-8 7.52028L2.5149 7.52028L2.5149 12.6659L4.88976 12.6659L4.88976 7.52028L15.4047 7.52028L15.4047 5.14543L4.88976 5.14543L4.88976 0Z" fill="#D80027"/>
<path d="M6.75781 8.59143L15.3491 12.5566L15.3491 11.4354L9.05813 8.59143L6.75781 8.59143Z" fill="#D80027"/>
<path d="M-1.04824 8.59143L-8 11.4354L-8 12.5566L1.25217 8.59143H-1.04824Z" fill="#D80027"/>
<path d="M0.811594 4.18551L-8 0V1.18356L-1.26843 4.18551H0.811594Z" fill="#D80027"/>
<path d="M7.95666 4.18551L15.349 1.18356L15.349 0L5.65625 4.18551L7.95666 4.18551Z" fill="#D80027"/>
</g>
<path d="M41.332 16H-6.66797V40H41.332V16Z" fill="#012169"/>
<path d="M29.5173 22.8871L29.9113 24.1H31.1868L30.1549 24.8497L30.5492 26.0627L29.5173 25.3131L28.4853 26.0627L28.8795 24.8497L27.8477 24.1H29.1231L29.5173 22.8871Z" fill="#D80027"/>
<path fill-rule="evenodd" clip-rule="evenodd" d="M29.9113 24.1L29.5173 22.8871L29.1231 24.1H27.8477L28.8795 24.8497L28.4853 26.0627L29.5173 25.3131L30.5492 26.0627L30.1549 24.8497L31.1868 24.1H29.9113ZM30.3661 24.3667H29.7176L29.5173 23.75L29.3168 24.3667H28.6684L29.193 24.7479L28.9925 25.3646L29.5173 24.9835L30.0419 25.3645L29.8414 24.7479L30.3661 24.3667Z" fill="white"/>
<path d="M20.7511 25.3334L21.2437 26.8495H22.838L21.5482 27.7867L22.0409 29.3028L20.7511 28.3658L19.4611 29.3028L19.9539 27.7867L18.6641 26.8495H20.2584L20.7511 25.3334Z" fill="#D80027"/>
<path fill-rule="evenodd" clip-rule="evenodd" d="M21.2437 26.8495L20.7511 25.3334L20.2584 26.8495H18.6641L19.9539 27.7867L19.4611 29.3028L20.7511 28.3658L22.0409 29.3028L21.5482 27.7867L22.838 26.8495H21.2437ZM22.0173 27.1162H21.0499L20.7511 26.1963L20.4521 27.1162H19.4848L20.2674 27.6848L19.9684 28.6048L20.7512 28.0362L21.5336 28.6047L21.2347 27.6848L22.0173 27.1162Z" fill="white"/>
<path d="M24.4269 19.3392L24.9195 20.8554H26.5138L25.224 21.7925L25.7167 23.3087L24.4269 22.3717L23.1369 23.3087L23.6296 21.7925L22.3398 20.8554H23.9342L24.4269 19.3392Z" fill="#D80027"/>
<path fill-rule="evenodd" clip-rule="evenodd" d="M24.9195 20.8554L24.4269 19.3392L23.9342 20.8554H22.3398L23.6296 21.7925L23.1369 23.3087L24.4269 22.3717L25.7167 23.3087L25.224 21.7925L26.5138 20.8554H24.9195ZM25.6931 21.1221H24.7257L24.4269 20.2022L24.1279 21.1221H23.1605L23.9431 21.6907L23.6441 22.6107L24.4269 22.0421L25.2094 22.6106L24.9105 21.6907L25.6931 21.1221Z" fill="white"/>
<path d="M15.5049 16.0011V18.1492L11.0771 19.9139H15.5049V24.0873H10.306L15.5049 26.3959V28.0001H13.2116L6.37484 24.7123V28.0001H2.46205V24.585L-5.77196 28.0001H-6.66797V25.852L-2.44888 24.0873H-6.66797V19.9139H-1.46906L-6.66797 17.6045V16.0011H-4.79214L2.46205 18.8716V16.0011H6.37484V19.4162L14.6089 16.0011H15.5049Z" fill="#F0F0F0"/>
<path d="M5.54338 16H3.29351V20.8746H-6.66797V23.1245H3.29351V27.9992H5.54338V23.1245H15.5049V20.8746H5.54338V16Z" fill="#D80027"/>
<path d="M7.31641 24.139L15.4555 27.8956V26.8333L9.49565 24.139H7.31641Z" fill="#D80027"/>
<path d="M-0.0820918 24.1393L-6.66797 26.8336V27.8958L2.09725 24.1393H-0.0820918Z" fill="#D80027"/>
<path d="M1.67986 19.9652L-6.66797 16V17.1213L-0.290696 19.9652H1.67986Z" fill="#D80027"/>
<path d="M8.44887 19.9652L15.4521 17.1213V16L6.26953 19.9652H8.44887Z" fill="#D80027"/>
</g>
<defs>
<clipPath id="clip0_676_115226">
<rect width="32" height="32" rx="6" fill="white"/>
</clipPath>
<clipPath id="clip1_676_115226">
<rect width="16" height="32" fill="white" transform="translate(32) rotate(90)"/>
</clipPath>
</defs>
</svg>
