<svg width="32" height="32" viewBox="0 0 32 32" fill="none" xmlns="http://www.w3.org/2000/svg">
<g clip-path="url(#clip0_676_115237)">
<g clip-path="url(#clip1_676_115237)">
<path d="M42.6667 0L-8 0L-8 25.3333L42.6667 25.3333V0Z" fill="#012169"/>
<path d="M8.57864 12.6658C8.5989 12.6432 8.61894 12.6206 8.63898 12.5978C8.61894 12.6206 8.59846 12.643 8.57813 12.6658H8.57864Z" fill="#F0F0F0"/>
<path d="M6.04238 15.7775L6.85562 17.4779L8.6922 17.0536L7.86968 18.7496L9.34655 19.9208L7.50781 20.3353L7.51293 22.2202L6.04238 21.0409L4.57189 22.2202L4.57702 20.3353L2.73828 19.9208L4.21515 18.7496L3.39263 17.0536L5.22914 17.4779L6.04238 15.7775Z" fill="#F0F0F0"/>
<path d="M21.0604 7.95264L21.4483 8.7638L22.3243 8.56127L21.932 9.37028L22.6363 9.92896L21.7593 10.1266L21.7617 11.0257L21.0604 10.4632L20.359 11.0257L20.3614 10.1266L19.4844 9.92896L20.1887 9.37028L19.7966 8.56127L20.6725 8.7638L21.0604 7.95264Z" fill="#F0F0F0"/>
<path d="M25.5369 1.93372L25.9248 2.74488L26.8007 2.54227L26.4085 3.35136L27.1128 3.90997L26.2358 4.10767L26.2382 5.00671L25.5369 4.44416L24.8356 5.00671L24.8379 4.10767L23.9609 3.90997L24.6653 3.35136L24.2731 2.54227L25.149 2.74488L25.5369 1.93372Z" fill="#F0F0F0"/>
<path d="M28.6363 11.0255L28.9413 11.9645H29.9286L29.1299 12.5448L29.435 13.4838L28.6363 12.9035L27.8373 13.4838L28.1425 12.5448L27.3438 11.9645H28.3311L28.6363 11.0255Z" fill="#F0F0F0"/>
<path d="M15.4047 0.00134277L15.4047 2.26881L10.7309 4.13152L15.4047 4.13152L15.4047 8.5368L9.91692 8.5368L15.4047 10.9736L15.4047 12.667L12.984 12.667L5.76741 9.19652L5.76741 12.667L1.63724 12.667L1.63724 9.06217L-7.05421 12.667L-8 12.667L-8 10.3995L-3.54651 8.5368L-8 8.5368L-8 4.13152L-2.51226 4.13152L-8 1.69387L-8 0.00134277L-6.01996 0.00134277L1.63724 3.03129L1.63724 0.00134277L5.76741 0.00134277L5.76741 3.60615L14.4589 0.00134277L15.4047 0.00134277Z" fill="#F0F0F0"/>
<path d="M4.88976 0L2.5149 0L2.5149 5.14543L-8 5.14543L-8 7.52028L2.5149 7.52028L2.5149 12.6659L4.88976 12.6659L4.88976 7.52028L15.4047 7.52028L15.4047 5.14543L4.88976 5.14543L4.88976 0Z" fill="#D80027"/>
<path d="M6.75781 8.59143L15.3491 12.5566L15.3491 11.4354L9.05813 8.59143L6.75781 8.59143Z" fill="#D80027"/>
<path d="M-1.04824 8.59143L-8 11.4354L-8 12.5566L1.25217 8.59143L-1.04824 8.59143Z" fill="#D80027"/>
<path d="M0.811592 4.18551L-8 0L-8 1.18356L-1.26844 4.18551L0.811592 4.18551Z" fill="#D80027"/>
<path d="M7.95666 4.18551L15.349 1.18356L15.349 0L5.65625 4.18551L7.95666 4.18551Z" fill="#D80027"/>
</g>
<path d="M33.3333 16H0V37.3333H33.3333V16Z" fill="#F0F0F0"/>
<path d="M33.0754 18.7559H0V21.5119H33.0754V18.7559Z" fill="#D80027"/>
<path d="M33.0754 24.2684H0V27.0245H33.0754V24.2684Z" fill="#D80027"/>
<path d="M33.0754 29.7808H0V32.5368H33.0754V29.7808Z" fill="#D80027"/>
<path d="M16 16H0V28H16V16Z" fill="#3C3B6E"/>
<path d="M5.11614 20.8643L4.84979 21.6837H3.98828L4.68538 22.1898L4.41904 23.0091L5.11614 22.503L5.81279 23.0091L5.54651 22.1898L6.24361 21.6837H5.38204L5.11614 20.8643Z" fill="#F0F0F0"/>
<path d="M6.71407 24.64L6.44817 23.8207L6.18182 24.64H5.32031L6.01742 25.1462L5.75107 25.9655L6.44817 25.4593L7.14482 25.9655L6.87854 25.1462L7.57564 24.64H6.71407Z" fill="#F0F0F0"/>
<path d="M3.07351 24.64L2.80755 23.8207L2.5412 24.64H1.67969L2.37679 25.1462L2.11044 25.9655L2.80755 25.4593L3.50426 25.9655L3.23798 25.1462L3.93495 24.64H3.07351Z" fill="#F0F0F0"/>
<path d="M1.47552 20.8643L1.20917 21.6837H0.347656L1.04476 22.1898L0.778412 23.0091L1.47552 22.503L2.17223 23.0091L1.90595 22.1898L2.60292 21.6837H1.74148L1.47552 20.8643Z" fill="#F0F0F0"/>
<path d="M6.44817 17.9069L6.18182 18.7263H5.32031L6.01742 19.2325L5.75107 20.0519L6.44817 19.5456L7.14482 20.0519L6.87854 19.2325L7.57564 18.7263H6.71407L6.44817 17.9069Z" fill="#F0F0F0"/>
<path d="M2.80755 17.9069L2.5412 18.7263H1.67969L2.37679 19.2325L2.11044 20.0519L2.80755 19.5456L3.50426 20.0519L3.23798 19.2325L3.93495 18.7263H3.07351L2.80755 17.9069Z" fill="#F0F0F0"/>
<path d="M8.7567 20.8643L8.49042 21.6837H7.62891L8.32594 22.1898L8.05973 23.0091L8.7567 22.503L9.45348 23.0091L9.18713 22.1898L9.88424 21.6837H9.02272L8.7567 20.8643Z" fill="#F0F0F0"/>
<path d="M10.3548 24.64L10.0887 23.8207L9.82245 24.64H8.96094L9.65798 25.1462L9.39176 25.9655L10.0887 25.4593L10.7855 25.9655L10.5192 25.1462L11.2163 24.64H10.3548Z" fill="#F0F0F0"/>
<path d="M13.9992 24.64L13.7333 23.8207L13.4669 24.64H12.6055L13.3024 25.1462L13.0362 25.9655L13.7333 25.4593L14.43 25.9655L14.1636 25.1462L14.8607 24.64H13.9992Z" fill="#F0F0F0"/>
<path d="M12.3973 20.8643L12.131 21.6837H11.2695L11.9665 22.1898L11.7002 23.0091L12.3973 22.503L13.094 23.0091L12.8277 22.1898L13.5248 21.6837H12.6633L12.3973 20.8643Z" fill="#F0F0F0"/>
<path d="M10.0887 17.9069L9.82245 18.7263H8.96094L9.65798 19.2325L9.39176 20.0519L10.0887 19.5456L10.7855 20.0519L10.5192 19.2325L11.2163 18.7263H10.3548L10.0887 17.9069Z" fill="#F0F0F0"/>
<path d="M13.7333 17.9069L13.4669 18.7263H12.6055L13.3024 19.2325L13.0362 20.0519L13.7333 19.5456L14.43 20.0519L14.1636 19.2325L14.8607 18.7263H13.9992L13.7333 17.9069Z" fill="#F0F0F0"/>
</g>
<defs>
<clipPath id="clip0_676_115237">
<rect width="32" height="32" rx="6" fill="white"/>
</clipPath>
<clipPath id="clip1_676_115237">
<rect width="16" height="32" fill="white" transform="translate(32) rotate(90)"/>
</clipPath>
</defs>
</svg>
