<svg width="100" height="32" viewBox="0 0 100 32" fill="none" xmlns="http://www.w3.org/2000/svg">
<path fill-rule="evenodd" clip-rule="evenodd" d="M92.8934 5.80453C93.5404 5.95422 94.0257 6.18707 94.5433 6.6195C95.0286 7.05193 95.3359 7.50099 95.4653 8.14963C94.0257 8.19953 92.6346 6.83571 91.7935 5.72137C92.1655 5.70474 92.5376 5.72137 92.8934 5.80453ZM94.7051 8.9147C95.8212 9.39703 96.8241 10.5446 96.7918 11.8419C95.433 11.6423 94.2036 9.84609 93.6375 8.61532C94.0095 8.66522 94.3654 8.76501 94.7051 8.9147ZM95.805 12.3575C96.8565 13.1226 97.5844 14.5363 97.277 15.8835C95.9668 15.3679 95.1095 13.1891 94.786 11.8253C95.158 11.9583 95.4977 12.1247 95.805 12.3575ZM96.1285 16.083C96.9859 17.081 97.4549 18.6943 96.8403 19.9417C95.6109 19.1433 95.2551 16.7982 95.2227 15.3013C95.5624 15.5176 95.8536 15.767 96.1285 16.083ZM95.6271 19.7421C96.2903 20.8897 96.4197 22.5529 95.5462 23.6339C94.4786 22.5861 94.608 20.2078 94.883 18.794C95.1742 19.0768 95.4168 19.3928 95.6271 19.7421ZM94.3654 23.0684C94.608 23.8501 94.6566 24.4988 94.4625 25.2971C94.2683 25.979 93.9934 26.478 93.4757 26.927C92.8449 25.8626 93.0714 24.3158 93.3949 23.1516C93.5081 22.7524 93.6537 22.3533 93.7993 21.9541C94.0419 22.3034 94.236 22.6859 94.3654 23.0684ZM92.4405 26.0123C92.6022 27.426 92.0038 29.0393 90.7097 29.7046C90.2568 28.5736 90.92 26.9104 91.4376 25.9125C91.6479 25.53 91.8744 25.1474 92.117 24.7815C92.2787 25.1807 92.392 25.5799 92.4405 26.0123ZM90.4185 3.14343C91.5508 3.14343 92.9096 3.72555 93.3625 4.87315C92.0685 5.23905 90.3215 4.15798 89.3509 3.29312C89.6906 3.19333 90.0465 3.14343 90.4185 3.14343ZM88.526 0.864859C89.2701 1.59666 90.4024 2.46152 91.4861 2.46152C91.2758 1.26402 89.9656 0.432429 88.9142 0.166319C88.526 0.0498957 88.1378 0 87.7495 0C87.9922 0.299374 88.251 0.582117 88.526 0.864859ZM94.8669 4.19124C94.9477 5.45526 95.2065 6.88561 96.0638 7.85026C96.5976 7.11845 96.5329 6.27023 96.3388 5.43863C96.0962 4.54051 95.5301 3.60912 94.8992 2.94385C94.8507 3.34301 94.8507 3.75881 94.8669 4.19124ZM97.1314 7.7172C96.8888 8.9646 96.8565 10.5446 97.4549 11.6756C98.5387 10.7276 98.377 9.11428 98.0373 7.85026C97.8917 7.36793 97.6976 6.91887 97.4388 6.48644C97.3094 6.88561 97.1962 7.30141 97.1314 7.7172ZM98.5711 11.7089C98.0373 12.9396 97.6491 14.5363 97.9564 15.8668C99.2828 15.2016 99.4931 13.4718 99.4607 12.108C99.4284 11.5758 99.3313 11.0602 99.1858 10.5613C98.9431 10.9272 98.749 11.3097 98.5711 11.7089ZM99.1049 16.0997C98.3123 17.1808 97.5035 18.7109 97.5035 20.0913C98.9917 19.792 99.6225 18.1121 99.8975 16.765C99.9945 16.2494 100.011 15.6007 99.9945 15.0851C99.671 15.3845 99.3799 15.7171 99.1049 16.0997ZM98.6681 20.4905C97.6167 21.3221 96.4844 22.5861 96.1609 23.9499C97.6814 24.0664 98.7005 22.6028 99.2828 21.3387C99.5093 20.8231 99.671 20.2743 99.7681 19.7254C99.396 19.9583 99.024 20.2078 98.6681 20.4905ZM97.3094 24.5653C95.983 25.1807 94.7213 26.0456 94.0095 27.3761C95.4168 27.8751 96.905 26.6443 97.7299 25.5632C98.0696 25.1142 98.3446 24.6152 98.5711 24.0996C98.1505 24.2327 97.7299 24.3824 97.3094 24.5653ZM95.1095 28.241C93.7184 28.5071 92.0846 29.1557 91.1303 30.2701C92.489 31.1516 94.1389 30.2368 95.2712 29.3719C95.7242 28.9894 96.1285 28.557 96.4844 28.0913C96.0153 28.0913 95.5624 28.1578 95.1095 28.241ZM91.8905 1.23076C92.214 2.36173 92.8611 3.75881 93.864 4.42409C94.3816 3.24322 93.4919 1.71309 92.6993 0.898123C92.3758 0.565485 92.0199 0.26611 91.6317 0.0166319C91.6964 0.432429 91.7773 0.831595 91.8905 1.23076ZM7.10659 5.80455C6.45956 5.95424 5.97429 6.18709 5.45667 6.61952C4.9714 7.05195 4.66406 7.50101 4.53466 8.14965C5.97429 8.19955 7.3654 6.83573 8.20653 5.72139C7.83449 5.70476 7.46245 5.72139 7.10659 5.80455ZM5.29491 8.91472C4.17879 9.39704 3.1759 10.5446 3.20825 11.8419C4.56701 11.6424 5.79636 9.8461 6.36251 8.61534C5.99047 8.66524 5.6346 8.76503 5.29491 8.91472ZM4.19497 12.3575C3.14355 13.1226 2.41564 14.5363 2.72298 15.8835C4.03321 15.3679 4.89052 13.1891 5.21403 11.8253C4.84199 11.9584 4.5023 12.1247 4.19497 12.3575ZM3.87145 16.0831C3.01414 17.081 2.54505 18.6943 3.15972 19.9417C4.38907 19.1433 4.74494 16.7982 4.77729 15.3014C4.4376 15.5176 4.14644 15.7671 3.87145 16.0831ZM4.3729 19.7421C3.7097 20.8897 3.58029 22.5529 4.45378 23.634C5.52137 22.5861 5.39197 20.2078 5.11698 18.7941C4.82582 19.0768 4.58318 19.3928 4.3729 19.7421ZM5.6346 23.0685C5.39197 23.8502 5.34344 24.4988 5.53755 25.2971C5.73166 25.979 6.00664 26.478 6.52426 26.9271C7.15511 25.8626 6.92866 24.3159 6.60514 23.1516C6.49192 22.7525 6.34633 22.3533 6.20076 21.9541C5.95812 22.3034 5.76401 22.6859 5.6346 23.0685ZM7.55951 26.0123C7.39775 27.426 7.99625 29.0393 9.29031 29.7046C9.74323 28.5736 9.08002 26.9104 8.5624 25.9125C8.35211 25.53 8.12566 25.1475 7.88302 24.7816C7.72126 25.1807 7.60803 25.5799 7.55951 26.0123ZM9.58147 3.14345C8.44917 3.14345 7.09041 3.72556 6.63749 4.87317C7.93155 5.23907 9.67852 4.15799 10.6491 3.29313C10.3094 3.19334 9.95351 3.14345 9.58147 3.14345ZM11.474 0.864877C10.7299 1.59668 9.59764 2.46154 8.51387 2.46154C8.72415 1.26404 10.0344 0.432448 11.0858 0.166337C11.474 0.0499139 11.8622 1.82235e-05 12.2505 1.82235e-05C12.0078 0.299392 11.749 0.582135 11.474 0.864877ZM5.13316 4.19126C5.05228 5.45528 4.79347 6.88563 3.93615 7.85028C3.40236 7.11847 3.46706 6.27025 3.66117 5.43865C3.9038 4.54053 4.46995 3.60914 5.1008 2.94387C5.14933 3.34303 5.14933 3.75883 5.13316 4.19126ZM2.86856 7.71722C3.1112 8.96461 3.14355 10.5446 2.54505 11.6756C1.46128 10.7276 1.62303 9.1143 1.96272 7.85028C2.1083 7.36795 2.30241 6.91889 2.56122 6.48646C2.69063 6.88563 2.80386 7.30142 2.86856 7.71722ZM1.42892 11.7089C1.96272 12.9396 2.35094 14.5363 2.0436 15.8669C0.717195 15.2016 0.506911 13.4719 0.539262 12.108C0.571613 11.5758 0.668668 11.0602 0.814249 10.5613C1.05688 10.9272 1.25099 11.3097 1.42892 11.7089ZM0.895127 16.0997C1.68774 17.1808 2.49652 18.7109 2.49652 20.0914C1.00836 19.792 0.377505 18.1122 0.102519 16.765C0.00546473 16.2494 -0.010711 15.6007 0.00546472 15.0852C0.328978 15.3845 0.620141 15.7172 0.895127 16.0997ZM1.33187 20.4905C2.38329 21.3221 3.51559 22.5861 3.8391 23.95C2.31859 24.0664 1.29952 22.6028 0.717195 21.3388C0.490735 20.8232 0.328978 20.2743 0.231924 19.7255C0.603965 19.9583 0.976005 20.2078 1.33187 20.4905ZM2.69063 24.5653C4.01703 25.1807 5.27874 26.0456 5.99047 27.3761C4.58318 27.8751 3.09502 26.6443 2.27006 25.5633C1.93037 25.1142 1.65538 24.6152 1.42892 24.0996C1.84949 24.2327 2.27006 24.3824 2.69063 24.5653ZM4.89052 28.241C6.28163 28.5071 7.91537 29.1557 8.86974 30.2701C7.51098 31.1516 5.86106 30.2368 4.72876 29.372C4.27584 28.9894 3.87145 28.557 3.51559 28.0913C3.98468 28.0913 4.4376 28.1578 4.89052 28.241ZM8.10948 1.23078C7.78597 2.36175 7.13894 3.75883 6.13605 4.4241C5.61843 3.24324 6.50809 1.7131 7.3007 0.898141C7.62421 0.565503 7.98007 0.266129 8.36829 0.0166501C8.30359 0.432448 8.22271 0.831613 8.10948 1.23078ZM8.46189 2.28548C7.09781 3.53329 6.13493 4.66464 5.13995 6.26184C3.29443 9.42296 2.54018 12.1349 2.49203 15.8284C2.58832 19.5053 3.35863 22.2005 5.23624 25.3284C7.162 28.2732 9.168 30.0701 12.2492 31.6506C12.2251 31.7088 12.1971 31.7671 12.169 31.8253C12.1409 31.8835 12.1128 31.9418 12.0887 32C8.95937 30.3862 6.92128 28.5228 4.96342 25.5114C3.08581 22.317 2.31551 19.5552 2.26736 15.8117C2.36365 12.0849 3.15 9.35641 5.07576 6.19529C6.08678 4.63137 7.06571 3.50002 8.46189 2.28548ZM94.86 6.26182C93.8651 4.66462 92.9022 3.53327 91.5381 2.28546C92.9343 3.5 93.9132 4.63135 94.9242 6.19527C96.85 9.35639 97.6363 12.0849 97.7326 15.8117C97.6845 19.5552 96.9142 22.317 95.0366 25.5114C93.0787 28.5228 91.0406 30.3861 87.9113 32C87.8872 31.9418 87.8591 31.8835 87.831 31.8253C87.8029 31.7671 87.7749 31.7088 87.7508 31.6506C90.832 30.07 92.838 28.2732 94.7638 25.3284C96.6414 22.2005 97.4117 19.5052 97.508 15.8284C97.4598 12.1348 96.7056 9.42294 94.86 6.26182ZM15.1497 13.9469H16.7471L17.4303 11.9873H20.5361L21.2205 13.9469H22.8178L19.9055 6H18.0581L15.1497 13.9469ZM20.1322 10.831L19.014 7.62974H18.9495L17.8334 10.831H20.1322ZM49.6521 6V13.9469H52.996C53.628 13.9469 54.1524 13.8525 54.5692 13.6636C54.986 13.4748 55.2979 13.2174 55.505 12.8915C55.7121 12.5629 55.8156 12.193 55.8156 11.7817C55.8156 11.3781 55.7295 11.0341 55.5574 10.7495C55.3853 10.465 55.1635 10.2451 54.8919 10.0899C54.623 9.93206 54.3419 9.8454 54.0488 9.82988V9.75227C54.3177 9.69019 54.5611 9.58801 54.7789 9.44573C54.9967 9.30345 55.1702 9.11849 55.2993 8.89084C55.4284 8.66061 55.4929 8.38381 55.4929 8.06045C55.4929 7.66725 55.3934 7.31543 55.1944 7.005C54.9981 6.69458 54.7009 6.45012 54.3029 6.27162C53.9076 6.09054 53.4115 6 52.8145 6H49.6521ZM52.758 12.744H51.1486V10.4158H52.7984C53.1076 10.4158 53.3739 10.4714 53.597 10.5827C53.8202 10.6913 53.9924 10.8414 54.1134 11.0328C54.2344 11.2216 54.2949 11.4337 54.2949 11.6692C54.2949 11.9848 54.1739 12.2434 53.9318 12.4452C53.6925 12.6444 53.3012 12.744 52.758 12.744ZM52.629 9.37976H51.1486V7.18738H52.6612C53.1022 7.18738 53.4344 7.28697 53.6576 7.48616C53.8834 7.68535 53.9964 7.93887 53.9964 8.24671C53.9964 8.47953 53.9359 8.6813 53.8149 8.85204C53.6965 9.02019 53.5339 9.15082 53.3268 9.24395C53.1197 9.33449 52.8871 9.37976 52.629 9.37976ZM69.6724 13.9469V11.9435L70.2036 11.3957L72.1007 13.9469H73.8473L71.3041 10.5594L73.7061 7.98673H71.9998L69.7732 10.3809H69.6724V6H68.2122V13.9469H69.6724ZM81.1574 7.98679V13.947H82.6176V10.443C82.6176 10.1895 82.6781 9.96575 82.7991 9.77174C82.9201 9.57772 83.0855 9.42639 83.2953 9.31774C83.5077 9.2065 83.747 9.15088 84.0133 9.15088C84.137 9.15088 84.2647 9.15994 84.3965 9.17805C84.5309 9.19357 84.6291 9.21168 84.6909 9.23237V7.94022C84.6237 7.92729 84.539 7.91823 84.4368 7.91306C84.3373 7.9053 84.2472 7.90142 84.1665 7.90142C83.8116 7.90142 83.4956 7.99584 83.2186 8.18468C82.9443 8.37094 82.7507 8.6361 82.6378 8.98015H82.5732V7.98679H81.1574ZM75.5576 13.6908C76.0094 13.9391 76.5458 14.0633 77.167 14.0633C77.6484 14.0633 78.076 13.9934 78.4498 13.8537C78.8235 13.7115 79.1301 13.5123 79.3694 13.2562C79.6115 12.9975 79.7755 12.6948 79.8616 12.3482L78.4982 12.2007C78.4336 12.3689 78.3382 12.5099 78.2118 12.6237C78.0854 12.7375 77.9361 12.8242 77.764 12.8837C77.5919 12.9406 77.3996 12.969 77.1872 12.969C76.8699 12.969 76.5929 12.9044 76.3563 12.775C76.1196 12.6431 75.9354 12.4542 75.8036 12.2085C75.6763 11.9685 75.6105 11.6827 75.6062 11.3509H79.9221V10.9202C79.9221 10.3977 79.8468 9.94755 79.6962 9.56987C79.5456 9.1896 79.3385 8.87658 79.075 8.63083C78.8141 8.38508 78.5129 8.20399 78.1714 8.08758C77.8326 7.96859 77.4723 7.90909 77.0904 7.90909C76.4988 7.90909 75.9838 8.03973 75.5455 8.301C75.1071 8.55969 74.7656 8.92185 74.5209 9.38749C74.2789 9.85054 74.1579 10.3886 74.1579 11.0017C74.1579 11.6251 74.2789 12.1671 74.5209 12.6276C74.7629 13.0854 75.1085 13.4398 75.5576 13.6908ZM78.5224 10.4041H75.609C75.623 10.1706 75.6852 9.95462 75.7956 9.75612C75.922 9.53106 76.0981 9.34998 76.324 9.21288C76.5499 9.07319 76.8121 9.00334 77.1106 9.00334C77.3902 9.00334 77.6349 9.06413 77.8447 9.18572C78.0571 9.3073 78.2225 9.47415 78.3409 9.68628C78.4592 9.89582 78.5197 10.1351 78.5224 10.4041ZM62.4309 13.6791C62.8746 13.9352 63.399 14.0633 64.004 14.0633C64.6091 14.0633 65.1335 13.9352 65.5772 13.6791C66.0209 13.423 66.3637 13.0647 66.6058 12.6043C66.8505 12.1438 66.9728 11.6057 66.9728 10.9901C66.9728 10.3744 66.8505 9.83502 66.6058 9.37197C66.3637 8.90892 66.0209 8.54934 65.5772 8.29324C65.1335 8.03714 64.6091 7.90909 64.004 7.90909C63.399 7.90909 62.8746 8.03714 62.4309 8.29324C61.9872 8.54934 61.643 8.90892 61.3983 9.37197C61.1562 9.83502 61.0352 10.3744 61.0352 10.9901C61.0352 11.6057 61.1562 12.1438 61.3983 12.6043C61.643 13.0647 61.9872 13.423 62.4309 13.6791ZM64.835 12.678C64.6145 12.8513 64.3402 12.938 64.0121 12.938C63.676 12.938 63.3963 12.8513 63.1731 12.678C62.9526 12.5021 62.7872 12.2667 62.6769 11.9718C62.5694 11.6769 62.5156 11.3484 62.5156 10.9862C62.5156 10.6214 62.5694 10.2916 62.6769 9.9967C62.7872 9.69921 62.9526 9.46251 63.1731 9.2866C63.3963 9.1107 63.676 9.02274 64.0121 9.02274C64.3402 9.02274 64.6145 9.1107 64.835 9.2866C65.0555 9.46251 65.2195 9.69921 65.3271 9.9967C65.4373 10.2916 65.4925 10.6214 65.4925 10.9862C65.4925 11.3484 65.4373 11.6769 65.3271 11.9718C65.2195 12.2667 65.0555 12.5021 64.835 12.678ZM57.0529 13.947V7.98679H58.4688V8.98015H58.5333C58.6463 8.6361 58.8399 8.37094 59.1142 8.18468C59.3911 7.99584 59.7071 7.90142 60.0621 7.90142C60.1428 7.90142 60.2328 7.9053 60.3323 7.91306C60.4345 7.91823 60.5192 7.92729 60.5865 7.94022V9.23237C60.5246 9.21168 60.4265 9.19357 60.292 9.17805C60.1602 9.15994 60.0325 9.15088 59.9088 9.15088C59.6426 9.15088 59.4032 9.2065 59.1908 9.31774C58.981 9.42639 58.8157 9.57772 58.6947 9.77174C58.5736 9.96575 58.5131 10.1895 58.5131 10.443V13.947H57.0529ZM41.5635 12.6742V10.5982H39.4055V9.37982H41.5635V7.30385H42.8301V9.37982H44.9881V10.5982H42.8301V12.6742H41.5635ZM33.9206 10.5982V12.6742H35.1872V10.5982H37.3453V9.37982H35.1872V7.30385H33.9206V9.37982H31.7626V10.5982H33.9206ZM26.2778 12.6742V10.5982H24.1197V9.37982H26.2778V7.30385H27.5444V9.37982H29.7024V10.5982H27.5444V12.6742H26.2778ZM79.6452 23.6452V22.6913L82.5663 18.2515H82.9428H83.3932H84.1193V22.6589H85V23.6452H84.1193V24.8739H82.9294V23.6452H79.6452ZM82.889 19.6096H82.9428V22.6589H80.9226V22.6072L82.889 19.6096ZM74.0384 24.0073V24.8739H78.7579V23.8715H75.7595V23.8262L76.9461 22.6653C77.392 22.2514 77.7382 21.899 77.9847 21.6079C78.2335 21.3169 78.4072 21.0518 78.5058 20.8125C78.6044 20.5732 78.6537 20.3296 78.6537 20.0817C78.6537 19.7109 78.5562 19.3811 78.3612 19.0922C78.1685 18.8033 77.8973 18.5759 77.5477 18.4099C77.1982 18.2439 76.7925 18.1609 76.3309 18.1609C75.876 18.1609 75.4726 18.2461 75.1208 18.4164C74.7712 18.5867 74.4967 18.827 74.2972 19.1375C74.0978 19.4479 73.9981 19.8133 73.9981 20.2337H75.1847C75.1847 20.0073 75.2306 19.8122 75.3225 19.6484C75.4166 19.4845 75.5488 19.3584 75.7191 19.2701C75.8895 19.1795 76.0878 19.1342 76.3141 19.1342C76.5337 19.1342 76.7298 19.1752 76.9024 19.2571C77.0749 19.339 77.2105 19.4554 77.3091 19.6063C77.4077 19.7551 77.457 19.934 77.457 20.1431C77.457 20.3264 77.4189 20.4988 77.3427 20.6605C77.2665 20.8222 77.1522 20.9893 76.9998 21.1617C76.8475 21.3342 76.657 21.5314 76.4284 21.7535L74.0384 24.0073ZM70.2694 25C69.7159 25 69.2408 24.8653 68.8442 24.5958C68.4497 24.3242 68.1461 23.9329 67.9332 23.422C67.7226 22.9089 67.6172 22.2913 67.6172 21.5691C67.6195 20.847 67.7259 20.2326 67.9366 19.726C68.1495 19.2172 68.4531 18.8292 68.8475 18.5619C69.2442 18.2946 69.7181 18.1609 70.2694 18.1609C70.8207 18.1609 71.2946 18.2946 71.6913 18.5619C72.0879 18.8292 72.3916 19.2172 72.6022 19.726C72.8151 20.2347 72.9216 20.8491 72.9216 21.5691C72.9216 22.2935 72.8151 22.9122 72.6022 23.4252C72.3916 23.9361 72.0879 24.3263 71.6913 24.5958C71.2969 24.8653 70.8229 25 70.2694 25ZM70.2694 23.9879C70.6997 23.9879 71.0392 23.7842 71.2879 23.3767C71.5389 22.9671 71.6644 22.3646 71.6644 21.5691C71.6644 21.0431 71.6073 20.6012 71.493 20.2434C71.3787 19.8855 71.2173 19.616 71.0089 19.435C70.8005 19.2517 70.554 19.1601 70.2694 19.1601C69.8414 19.1601 69.503 19.3649 69.2542 19.7745C69.0055 20.1819 68.88 20.7801 68.8778 21.5691C68.8755 22.0973 68.9304 22.5414 69.0425 22.9014C69.1568 23.2614 69.3181 23.533 69.5265 23.7163C69.7349 23.8973 69.9826 23.9879 70.2694 23.9879ZM61.8457 24.0073V24.8739H66.5651V23.8715H63.5667V23.8262L64.7533 22.6653C65.1993 22.2514 65.5455 21.899 65.792 21.6079C66.0407 21.3169 66.2144 21.0518 66.313 20.8125C66.4116 20.5732 66.4609 20.3296 66.4609 20.0817C66.4609 19.7109 66.3634 19.3811 66.1685 19.0922C65.9758 18.8033 65.7046 18.5759 65.355 18.4099C65.0054 18.2439 64.5998 18.1609 64.1382 18.1609C63.6833 18.1609 63.2799 18.2461 62.9281 18.4164C62.5785 18.5867 62.304 18.827 62.1045 19.1375C61.9051 19.4479 61.8054 19.8133 61.8054 20.2337H62.9919C62.9919 20.0073 63.0379 19.8122 63.1298 19.6484C63.2239 19.4845 63.3561 19.3584 63.5264 19.2701C63.6967 19.1795 63.895 19.1342 64.1214 19.1342C64.341 19.1342 64.5371 19.1752 64.7096 19.2571C64.8822 19.339 65.0178 19.4554 65.1164 19.6063C65.215 19.7551 65.2643 19.934 65.2643 20.1431C65.2643 20.3264 65.2262 20.4988 65.15 20.6605C65.0738 20.8222 64.9595 20.9893 64.8071 21.1617C64.6547 21.3342 64.4642 21.5314 64.2357 21.7535L61.8457 24.0073ZM55.5615 24.9742C55.2343 24.9742 54.9396 24.9182 54.6775 24.8061C54.4175 24.6918 54.2113 24.5237 54.059 24.3016C53.9088 24.0796 53.8337 23.8058 53.8337 23.4803C53.8337 23.2 53.8875 22.9683 53.9951 22.7851C54.1026 22.6018 54.2494 22.4552 54.4354 22.3453C54.6214 22.2353 54.831 22.1524 55.064 22.0963C55.2993 22.0381 55.5425 21.9961 55.7935 21.9702C56.096 21.94 56.3414 21.9131 56.5296 21.8894C56.7178 21.8635 56.8545 21.8247 56.9397 21.7729C57.0271 21.719 57.0708 21.6361 57.0708 21.524V21.5046C57.0708 21.261 56.9957 21.0723 56.8456 20.9387C56.6954 20.805 56.4792 20.7382 56.1968 20.7382C55.8988 20.7382 55.6624 20.8007 55.4876 20.9257C55.315 21.0508 55.1985 21.1984 55.138 21.3687L54.0018 21.2135C54.0914 20.9117 54.2393 20.6595 54.4455 20.4569C54.6517 20.2521 54.9038 20.099 55.2018 19.9977C55.4999 19.8942 55.8293 19.8425 56.1901 19.8425C56.4388 19.8425 56.6865 19.8705 56.933 19.9266C57.1795 19.9826 57.4047 20.0753 57.6086 20.2046C57.8125 20.3318 57.9761 20.5054 58.0994 20.7253C58.2249 20.9451 58.2876 21.22 58.2876 21.5498V24.874H57.1179V24.1917H57.0775C57.0036 24.3296 56.8994 24.459 56.7649 24.5797C56.6327 24.6983 56.4657 24.7942 56.264 24.8675C56.0646 24.9386 55.8304 24.9742 55.5615 24.9742ZM55.8775 24.1141C56.1217 24.1141 56.3335 24.0677 56.5128 23.975C56.6921 23.8802 56.8299 23.7551 56.9263 23.5999C57.0249 23.4447 57.0742 23.2755 57.0742 23.0923V22.507C57.0361 22.5372 56.9711 22.5652 56.8792 22.591C56.7896 22.6169 56.6887 22.6395 56.5767 22.659C56.4646 22.6784 56.3537 22.6956 56.2439 22.7107C56.1341 22.7258 56.0388 22.7387 55.9582 22.7495C55.7766 22.7732 55.6142 22.812 55.4708 22.8659C55.3273 22.9198 55.2142 22.9952 55.1313 23.0923C55.0483 23.1871 55.0069 23.31 55.0069 23.4609C55.0069 23.6765 55.0887 23.8392 55.2523 23.9492C55.4158 24.0591 55.6243 24.1141 55.8775 24.1141ZM51.6076 19.9071V24.8739H52.8245V19.9071H51.6076ZM51.7219 19.0179C51.8609 19.1408 52.0267 19.2022 52.2194 19.2022C52.4144 19.2022 52.5802 19.1408 52.7169 19.0179C52.8558 18.8928 52.9253 18.743 52.9253 18.5684C52.9253 18.3916 52.8558 18.2418 52.7169 18.1189C52.5802 17.9939 52.4144 17.9314 52.2194 17.9314C52.0267 17.9314 51.8609 17.9939 51.7219 18.1189C51.583 18.2418 51.5135 18.3916 51.5135 18.5684C51.5135 18.743 51.583 18.8928 51.7219 19.0179ZM50.4933 21.22L49.384 21.3364C49.3526 21.2286 49.2977 21.1273 49.2193 21.0324C49.1431 20.9376 49.04 20.8611 48.9101 20.8029C48.7801 20.7447 48.621 20.7156 48.4327 20.7156C48.1795 20.7156 47.9666 20.7684 47.7941 20.874C47.6237 20.9796 47.5397 21.1165 47.542 21.2847C47.5397 21.4291 47.5946 21.5466 47.7067 21.6371C47.8209 21.7277 48.0092 21.802 48.2714 21.8603L49.1521 22.0413C49.6406 22.1427 50.0036 22.3033 50.2412 22.5231C50.481 22.743 50.602 23.0308 50.6042 23.3865C50.602 23.6991 50.5067 23.975 50.3185 24.2143C50.1325 24.4514 49.8737 24.6368 49.542 24.7705C49.2103 24.9042 48.8294 24.971 48.3991 24.971C47.7672 24.971 47.2585 24.8438 46.873 24.5894C46.4876 24.3329 46.2579 23.9761 46.1839 23.5191L47.3705 23.4091C47.4243 23.6333 47.5386 23.8026 47.7134 23.9168C47.8882 24.0311 48.1156 24.0882 48.3958 24.0882C48.6848 24.0882 48.9168 24.0311 49.0916 23.9168C49.2686 23.8026 49.3571 23.6614 49.3571 23.4932C49.3571 23.3509 49.3 23.2335 49.1857 23.1408C49.0736 23.0481 48.8988 22.9769 48.6613 22.9273L47.7806 22.7495C47.2854 22.6503 46.919 22.4833 46.6814 22.2483C46.4439 22.0112 46.3262 21.7115 46.3285 21.3493C46.3262 21.0432 46.4125 20.7781 46.5873 20.5539C46.7643 20.3275 47.0097 20.1529 47.3235 20.03C47.6394 19.905 48.0036 19.8425 48.4159 19.8425C49.021 19.8425 49.4972 19.9664 49.8445 20.2143C50.1941 20.4623 50.4104 20.7975 50.4933 21.22ZM41.746 24.6606C42.1225 24.8675 42.5696 24.971 43.0873 24.971C43.4884 24.971 43.8447 24.9128 44.1562 24.7964C44.4677 24.6778 44.7232 24.5118 44.9226 24.2984C45.1243 24.0828 45.261 23.8306 45.3327 23.5417L44.1965 23.4188C44.1427 23.559 44.0632 23.6765 43.9579 23.7713C43.8525 23.8662 43.7282 23.9384 43.5847 23.988C43.4413 24.0354 43.2811 24.0591 43.1041 24.0591C42.8396 24.0591 42.6088 24.0052 42.4116 23.8974C42.2144 23.7875 42.0609 23.6301 41.9511 23.4253C41.845 23.2253 41.7902 22.9871 41.7866 22.7107H45.3831V22.3518C45.3831 21.9163 45.3204 21.5412 45.1949 21.2265C45.0694 20.9096 44.8968 20.6487 44.6772 20.4439C44.4598 20.2391 44.2089 20.0882 43.9243 19.9912C43.6419 19.8921 43.3416 19.8425 43.0234 19.8425C42.5304 19.8425 42.1012 19.9513 41.736 20.1691C41.3707 20.3846 41.0861 20.6865 40.8822 21.0745C40.6805 21.4604 40.5796 21.9088 40.5796 22.4197C40.5796 22.9392 40.6805 23.3908 40.8822 23.7745C41.0838 24.1561 41.3718 24.4514 41.746 24.6606ZM41.7889 21.9217H44.2167C44.2145 21.6975 44.164 21.4981 44.0654 21.3235C43.9668 21.1467 43.829 21.0077 43.652 20.9063C43.4772 20.805 43.2733 20.7544 43.0402 20.7544C42.7915 20.7544 42.573 20.8126 42.3847 20.929C42.1965 21.0432 42.0497 21.1941 41.9444 21.3817C41.8524 21.5471 41.8006 21.7271 41.7889 21.9217ZM36.2501 21.9637V24.874H35.0333V19.9072H36.1963V20.7511H36.2568C36.3756 20.473 36.565 20.2521 36.8249 20.0882C37.0871 19.9244 37.4109 19.8425 37.7964 19.8425C38.1527 19.8425 38.4631 19.9158 38.7275 20.0624C38.9942 20.209 39.2003 20.4213 39.346 20.6994C39.4939 20.9775 39.5667 21.3148 39.5645 21.7115V24.874H38.3476V21.8926C38.3476 21.5606 38.258 21.3008 38.0787 21.1133C37.9017 20.9257 37.6563 20.832 37.3426 20.832C37.1297 20.832 36.9403 20.8772 36.7745 20.9678C36.6109 21.0562 36.4821 21.1844 36.3879 21.3526C36.2961 21.5207 36.2501 21.7244 36.2501 21.9637ZM30.2155 24.6509C30.5853 24.8643 31.0223 24.971 31.5265 24.971C32.0307 24.971 32.4677 24.8643 32.8374 24.6509C33.2072 24.4374 33.4929 24.1389 33.6946 23.7551C33.8985 23.3714 34.0005 22.923 34.0005 22.41C34.0005 21.8969 33.8985 21.4474 33.6946 21.0616C33.4929 20.6757 33.2072 20.376 32.8374 20.1626C32.4677 19.9492 32.0307 19.8425 31.5265 19.8425C31.0223 19.8425 30.5853 19.9492 30.2155 20.1626C29.8458 20.376 29.5589 20.6757 29.355 21.0616C29.1533 21.4474 29.0525 21.8969 29.0525 22.41C29.0525 22.923 29.1533 23.3714 29.355 23.7551C29.5589 24.1389 29.8458 24.4374 30.2155 24.6509ZM32.2189 23.8166C32.0352 23.961 31.8066 24.0332 31.5332 24.0332C31.2531 24.0332 31.02 23.961 30.834 23.8166C30.6503 23.67 30.5124 23.4738 30.4206 23.2281C30.3309 22.9823 30.2861 22.7085 30.2861 22.4067C30.2861 22.1028 30.3309 21.8279 30.4206 21.5822C30.5124 21.3343 30.6503 21.137 30.834 20.9904C31.02 20.8438 31.2531 20.7705 31.5332 20.7705C31.8066 20.7705 32.0352 20.8438 32.2189 20.9904C32.4027 21.137 32.5394 21.3343 32.629 21.5822C32.7209 21.8279 32.7668 22.1028 32.7668 22.4067C32.7668 22.7085 32.7209 22.9823 32.629 23.2281C32.5394 23.4738 32.4027 23.67 32.2189 23.8166ZM25.228 24.9612C24.8224 24.9612 24.4593 24.861 24.1389 24.6605C23.8184 24.46 23.5652 24.169 23.3792 23.7874C23.1932 23.4059 23.1002 22.9424 23.1002 22.397C23.1002 21.8451 23.1943 21.3795 23.3825 21.0001C23.573 20.6185 23.8296 20.3307 24.1523 20.1367C24.475 19.9405 24.8347 19.8425 25.2313 19.8425C25.5339 19.8425 25.7826 19.892 25.9776 19.9912C26.1725 20.0882 26.3272 20.2057 26.4414 20.3437C26.5557 20.4795 26.6442 20.6077 26.707 20.7285H26.7574V18.2515H27.9776V24.8739H26.7809V24.0914H26.707C26.6442 24.2121 26.5535 24.3404 26.4347 24.4762C26.316 24.6099 26.1591 24.7241 25.9641 24.819C25.7692 24.9138 25.5238 24.9612 25.228 24.9612ZM25.5675 24.0009C25.8252 24.0009 26.0448 23.934 26.2263 23.8004C26.4078 23.6646 26.5456 23.4759 26.6398 23.2345C26.7339 22.9931 26.7809 22.7117 26.7809 22.3905C26.7809 22.0693 26.7339 21.7902 26.6398 21.553C26.5479 21.3159 26.4112 21.1316 26.2297 21.0001C26.0504 20.8686 25.8297 20.8028 25.5675 20.8028C25.2963 20.8028 25.07 20.8707 24.8885 21.0065C24.7069 21.1424 24.5702 21.3299 24.4784 21.5692C24.3865 21.8085 24.3406 22.0823 24.3406 22.3905C24.3406 22.701 24.3865 22.978 24.4784 23.2216C24.5725 23.463 24.7103 23.6538 24.8918 23.7939C25.0756 23.9319 25.3008 24.0009 25.5675 24.0009ZM18.7606 24.874V21.9637C18.7606 21.7244 18.8066 21.5207 18.8984 21.3526C18.9926 21.1844 19.1214 21.0562 19.285 20.9678C19.4508 20.8772 19.6402 20.832 19.8531 20.832C20.1668 20.832 20.4122 20.9257 20.5892 21.1133C20.7685 21.3008 20.8581 21.5606 20.8581 21.8926V24.874H22.075V21.7115C22.0772 21.3148 22.0044 20.9775 21.8565 20.6994C21.7108 20.4213 21.5047 20.209 21.238 20.0624C20.9736 19.9158 20.6632 19.8425 20.3069 19.8425C19.9214 19.8425 19.5976 19.9244 19.3354 20.0882C19.0755 20.2521 18.8861 20.473 18.7673 20.7511H18.7068V19.9072H17.5438V24.874H18.7606ZM16.2471 18.2515V24.8739H15V18.2515H16.2471Z" fill="#111928"/>
</svg>
