<svg width="32" height="32" viewBox="0 0 32 32" fill="none" xmlns="http://www.w3.org/2000/svg">
<g clip-path="url(#clip0_676_115270)">
<g clip-path="url(#clip1_676_115270)">
<rect width="32" height="16" fill="#FF0000"/>
<path d="M50.6667 -8L-20 -8L-20 38.6667L50.6667 38.6667L50.6667 -8Z" fill="#003399"/>
<path d="M15.6499 1.76758L16.3484 3.91701L18.6083 3.91701L16.7799 5.24552L17.4783 7.39495L15.6499 6.06658L13.8215 7.39495L14.5198 5.24552L12.6914 3.91701L14.9514 3.91701L15.6499 1.76758Z" fill="#FFDA44"/>
<path d="M6.36496 5.61314L8.37872 6.63909L9.9768 5.04114L9.6231 7.27332L11.6369 8.29941L9.40467 8.65298L9.05111 10.8853L8.02501 8.87155L5.79297 9.22497L7.39106 7.62689L6.36496 5.61314Z" fill="#FFDA44"/>
<path d="M2.51953 14.8983L4.66896 14.1999L4.6691 11.9399L5.99733 13.7684L8.1469 13.07L6.8184 14.8983L8.1469 16.7267L5.99733 16.0285L4.6691 17.8567L4.6691 15.5968L2.51953 14.8983Z" fill="#FFDA44"/>
<path d="M28.7797 14.8983L26.6303 15.5968V17.8567L25.3019 16.0282L23.1523 16.7267L24.4808 14.8983L23.1523 13.07L25.3019 13.7682L26.6301 11.9399L26.6303 14.2L28.7797 14.8983Z" fill="#FFDA44"/>
<path d="M24.936 5.61314L23.91 7.62689L25.5081 9.22498L23.2756 8.87128L22.2498 10.8852L21.8961 8.65298L19.6641 8.29942L21.6778 7.27332L21.3241 5.04114L22.9222 6.63923L24.936 5.61314Z" fill="#FFDA44"/>
</g>
<g clip-path="url(#clip2_676_115270)">
<path d="M42.6667 16L-8 16L-8 41.3333L42.6667 41.3333L42.6667 16Z" fill="#012169"/>
<path d="M8.57864 28.6658C8.59891 28.6432 8.61894 28.6206 8.63898 28.5978C8.61894 28.6206 8.59846 28.643 8.57813 28.6658H8.57864Z" fill="#F0F0F0"/>
<path d="M6.04238 31.7775L6.85562 33.4779L8.6922 33.0536L7.86968 34.7496L9.34654 35.9208L7.50781 36.3353L7.51293 38.2202L6.04238 37.0409L4.57189 38.2202L4.57701 36.3353L2.73828 35.9208L4.21515 34.7496L3.39263 33.0536L5.22914 33.4779L6.04238 31.7775Z" fill="#F0F0F0"/>
<path d="M21.0604 23.9526L21.4483 24.7638L22.3243 24.5613L21.932 25.3703L22.6363 25.929L21.7593 26.1266L21.7617 27.0257L21.0604 26.4632L20.359 27.0257L20.3614 26.1266L19.4844 25.929L20.1887 25.3703L19.7966 24.5613L20.6725 24.7638L21.0604 23.9526Z" fill="#F0F0F0"/>
<path d="M25.5369 17.9337L25.9248 18.7449L26.8007 18.5423L26.4085 19.3514L27.1128 19.91L26.2358 20.1077L26.2382 21.0067L25.5369 20.4442L24.8356 21.0067L24.8379 20.1077L23.9609 19.91L24.6653 19.3514L24.2731 18.5423L25.149 18.7449L25.5369 17.9337Z" fill="#F0F0F0"/>
<path d="M28.6363 27.0255L28.9413 27.9645L29.9286 27.9645L29.1299 28.5448L29.435 29.4838L28.6363 28.9035L27.8373 29.4838L28.1425 28.5448L27.3438 27.9645L28.3311 27.9645L28.6363 27.0255Z" fill="#F0F0F0"/>
<path d="M15.4047 16.0013V18.2688L10.7309 20.1315L15.4047 20.1315V24.5368H9.91692L15.4047 26.9736V28.667H12.984L5.76742 25.1965V28.667H1.63724V25.0622L-7.05421 28.667H-8L-8 26.3995L-3.54651 24.5368H-8V20.1315H-2.51226L-8 17.6939V16.0013H-6.01996L1.63724 19.0313V16.0013H5.76742V19.6062L14.4589 16.0013H15.4047Z" fill="#F0F0F0"/>
<path d="M4.88976 16L2.5149 16L2.5149 21.1454L-8 21.1454L-8 23.5203L2.5149 23.5203L2.5149 28.6659H4.88976L4.88976 23.5203L15.4047 23.5203L15.4047 21.1454L4.88976 21.1454L4.88976 16Z" fill="#D80027"/>
<path d="M6.75781 24.5914L15.3491 28.5566L15.3491 27.4354L9.05813 24.5914L6.75781 24.5914Z" fill="#D80027"/>
<path d="M-1.04824 24.5914L-8 27.4354L-8 28.5566L1.25217 24.5914H-1.04824Z" fill="#D80027"/>
<path d="M0.811594 20.1855L-8 16V17.1836L-1.26843 20.1855H0.811594Z" fill="#D80027"/>
<path d="M7.95666 20.1855L15.349 17.1836L15.349 16L5.65625 20.1855L7.95666 20.1855Z" fill="#D80027"/>
</g>
</g>
<defs>
<clipPath id="clip0_676_115270">
<rect width="32" height="32" rx="6" fill="white"/>
</clipPath>
<clipPath id="clip1_676_115270">
<rect x="32" width="16" height="32" transform="rotate(90 32 0)" fill="white"/>
</clipPath>
<clipPath id="clip2_676_115270">
<rect width="16" height="32" fill="white" transform="translate(32 16) rotate(90)"/>
</clipPath>
</defs>
</svg>
