<svg width="32" height="32" viewBox="0 0 32 32" fill="none" xmlns="http://www.w3.org/2000/svg">
<g clip-path="url(#clip0_676_115281)">
<g clip-path="url(#clip1_676_115281)">
<rect width="32" height="16" fill="#FF0000"/>
<path d="M50.6667 -8L-20 -8L-20 38.6667L50.6667 38.6667L50.6667 -8Z" fill="#003399"/>
<path d="M15.6499 1.76758L16.3484 3.91701L18.6083 3.91701L16.7799 5.24552L17.4783 7.39495L15.6499 6.06658L13.8215 7.39495L14.5198 5.24552L12.6914 3.91701L14.9514 3.91701L15.6499 1.76758Z" fill="#FFDA44"/>
<path d="M6.36496 5.61314L8.37872 6.63909L9.9768 5.04114L9.6231 7.27332L11.6369 8.29941L9.40467 8.65298L9.05111 10.8853L8.02501 8.87155L5.79297 9.22497L7.39106 7.62689L6.36496 5.61314Z" fill="#FFDA44"/>
<path d="M2.51953 14.8983L4.66896 14.1999L4.6691 11.9399L5.99733 13.7684L8.1469 13.07L6.8184 14.8983L8.1469 16.7267L5.99733 16.0285L4.6691 17.8567L4.6691 15.5968L2.51953 14.8983Z" fill="#FFDA44"/>
<path d="M28.7797 14.8983L26.6303 15.5968V17.8567L25.3019 16.0282L23.1523 16.7267L24.4808 14.8983L23.1523 13.07L25.3019 13.7682L26.6301 11.9399L26.6303 14.2L28.7797 14.8983Z" fill="#FFDA44"/>
<path d="M24.936 5.61314L23.91 7.62689L25.5081 9.22498L23.2756 8.87128L22.2498 10.8852L21.8961 8.65298L19.6641 8.29942L21.6778 7.27332L21.3241 5.04114L22.9222 6.63923L24.936 5.61314Z" fill="#FFDA44"/>
</g>
<g clip-path="url(#clip2_676_115281)">
<rect x="5.54297" y="5.33337" width="20.2412" height="36.4341" fill="white"/>
<path d="M6.44385 5.33337H-12V42.2223H6.44385V5.33337Z" fill="#FF0000"/>
<path d="M43.3345 5.33337L24.8906 5.33337L24.8906 42.2223L43.3345 42.2223L43.3345 5.33337Z" fill="#FF0000"/>
<path d="M19.1249 26.3401L22.5832 24.6109L20.854 23.7465V22.0173L17.3957 23.7465L19.1249 20.2882H17.3957L15.6666 17.6943L13.9374 20.2882H12.2083L13.9374 23.7465L10.4791 22.0173V23.7465L8.75 24.6109L12.2083 26.3401L11.3438 28.0692H14.8021V30.6631H16.5313V28.0692H19.9896L19.1249 26.3401Z" fill="#FF0000"/>
</g>
</g>
<defs>
<clipPath id="clip0_676_115281">
<rect width="32" height="32" rx="6" fill="white"/>
</clipPath>
<clipPath id="clip1_676_115281">
<rect x="32" width="16" height="32" transform="rotate(90 32 0)" fill="white"/>
</clipPath>
<clipPath id="clip2_676_115281">
<rect x="32" y="16" width="16" height="32" transform="rotate(90 32 16)" fill="white"/>
</clipPath>
</defs>
</svg>
