<svg width="32" height="32" viewBox="0 0 32 32" fill="none" xmlns="http://www.w3.org/2000/svg">
<g clip-path="url(#clip0_676_115303)">
<path d="M32 13.3335H0V34.6671H32V13.3335Z" fill="#F0F0F0"/>
<path d="M18 13.3333H14V21.9999H0V25.9999H14V34.6665H18V25.9999H32V21.9999H18V13.3333Z" fill="#D80027"/>
<path d="M24.6094 27.71L31.9978 31.8147V27.71H24.6094Z" fill="#012169"/>
<path d="M19.4766 27.7102L31.9983 34.6667V32.6996L23.0175 27.7102H19.4766Z" fill="#0052B4"/>
<path d="M28.663 34.6665L19.4766 29.5625V34.6665H28.663Z" fill="#012169"/>
<path d="M19.4766 27.71L31.9983 34.6665V32.6993L23.0175 27.71H19.4766Z" fill="#F0F0F0"/>
<path d="M19.4766 27.71L31.9983 34.6665V32.6993L23.0175 27.71H19.4766Z" fill="#D80027"/>
<path d="M5.64631 27.71L0 30.8468V27.71H5.64631Z" fill="#012169"/>
<path d="M12.5223 28.595V34.6669H1.59375L12.5223 28.595Z" fill="#012169"/>
<path d="M8.98081 27.71L0 32.6993V34.6665L12.5218 27.71H8.98081Z" fill="#D80027"/>
<path d="M7.38844 20.2901L0 16.1853V20.2901H7.38844Z" fill="#012169"/>
<path d="M12.5218 20.2898L0 13.3333V15.3004L8.98081 20.2898H12.5218Z" fill="#0052B4"/>
<path d="M3.33594 13.3333L12.5223 18.4373V13.3333H3.33594Z" fill="#012169"/>
<path d="M12.5218 20.2898L0 13.3333V15.3004L8.98081 20.2898H12.5218Z" fill="#F0F0F0"/>
<path d="M12.5218 20.2898L0 13.3333V15.3004L8.98081 20.2898H12.5218Z" fill="#D80027"/>
<path d="M26.3516 20.29L31.9979 17.1531V20.29H26.3516Z" fill="#012169"/>
<path d="M19.4766 19.4052V13.3333H30.4052L19.4766 19.4052Z" fill="#012169"/>
<path d="M23.0175 20.2898L31.9983 15.3004V13.3333L19.4766 20.2898H23.0175Z" fill="#D80027"/>
<g clip-path="url(#clip1_676_115303)">
<rect width="32" height="16" fill="#FF0000"/>
<path d="M50.6667 -8L-20 -8L-20 38.6667L50.6667 38.6667L50.6667 -8Z" fill="#003399"/>
<path d="M15.6499 1.76758L16.3484 3.91701L18.6083 3.91701L16.7799 5.24552L17.4783 7.39495L15.6499 6.06658L13.8215 7.39495L14.5198 5.24552L12.6914 3.91701L14.9514 3.91701L15.6499 1.76758Z" fill="#FFDA44"/>
<path d="M6.36496 5.61301L8.37872 6.63897L9.9768 5.04102L9.6231 7.2732L11.6369 8.29929L9.40467 8.65286L9.05111 10.8852L8.02501 8.87142L5.79297 9.22485L7.39106 7.62676L6.36496 5.61301Z" fill="#FFDA44"/>
<path d="M2.51953 14.8983L4.66896 14.1999L4.6691 11.9399L5.99733 13.7684L8.1469 13.07L6.8184 14.8983L8.1469 16.7267L5.99733 16.0285L4.6691 17.8567L4.6691 15.5968L2.51953 14.8983Z" fill="#FFDA44"/>
<path d="M28.7797 14.8983L26.6303 15.5968V17.8567L25.3019 16.0282L23.1523 16.7267L24.4808 14.8983L23.1523 13.07L25.3019 13.7682L26.6301 11.9399L26.6303 14.2L28.7797 14.8983Z" fill="#FFDA44"/>
<path d="M24.936 5.61301L23.91 7.62677L25.5081 9.22486L23.2756 8.87115L22.2498 10.885L21.8961 8.65286L19.6641 8.29929L21.6778 7.2732L21.3241 5.04102L22.9222 6.63911L24.936 5.61301Z" fill="#FFDA44"/>
</g>
</g>
<defs>
<clipPath id="clip0_676_115303">
<rect width="32" height="32" rx="6" fill="white"/>
</clipPath>
<clipPath id="clip1_676_115303">
<rect x="32" width="16" height="32" transform="rotate(90 32 0)" fill="white"/>
</clipPath>
</defs>
</svg>
