<svg width="32" height="32" viewBox="0 0 32 32" fill="none" xmlns="http://www.w3.org/2000/svg">
<g clip-path="url(#clip0_676_115314)">
<g clip-path="url(#clip1_676_115314)">
<rect width="32" height="16" fill="#FF0000"/>
<path d="M50.6667 -8L-20 -8L-20 38.6667L50.6667 38.6667L50.6667 -8Z" fill="#003399"/>
<path d="M15.6499 1.76758L16.3484 3.91701L18.6083 3.91701L16.7799 5.24552L17.4783 7.39495L15.6499 6.06658L13.8215 7.39495L14.5198 5.24552L12.6914 3.91701L14.9514 3.91701L15.6499 1.76758Z" fill="#FFDA44"/>
<path d="M6.36496 5.61301L8.37872 6.63897L9.9768 5.04102L9.6231 7.2732L11.6369 8.29929L9.40467 8.65286L9.05111 10.8852L8.02501 8.87142L5.79297 9.22485L7.39106 7.62676L6.36496 5.61301Z" fill="#FFDA44"/>
<path d="M2.51953 14.8983L4.66896 14.1999L4.6691 11.9399L5.99733 13.7684L8.1469 13.07L6.8184 14.8983L8.1469 16.7267L5.99733 16.0285L4.6691 17.8567L4.6691 15.5968L2.51953 14.8983Z" fill="#FFDA44"/>
<path d="M28.7797 14.8983L26.6303 15.5968V17.8567L25.3019 16.0282L23.1523 16.7267L24.4808 14.8983L23.1523 13.07L25.3019 13.7682L26.6301 11.9399L26.6303 14.2L28.7797 14.8983Z" fill="#FFDA44"/>
<path d="M24.936 5.61301L23.91 7.62677L25.5081 9.22486L23.2756 8.87115L22.2498 10.885L21.8961 8.65286L19.6641 8.29929L21.6778 7.2732L21.3241 5.04102L22.9222 6.63911L24.936 5.61301Z" fill="#FFDA44"/>
</g>
<rect y="16" width="32" height="16" fill="white"/>
<ellipse cx="16.0013" cy="24.0001" rx="5.33333" ry="5.33333" fill="#BC002D"/>
</g>
<rect x="0.5" y="0.5" width="31" height="31" rx="5.5" stroke="#E3E7ED"/>
<defs>
<clipPath id="clip0_676_115314">
<rect width="32" height="32" rx="6" fill="white"/>
</clipPath>
<clipPath id="clip1_676_115314">
<rect x="32" width="16" height="32" transform="rotate(90 32 0)" fill="white"/>
</clipPath>
</defs>
</svg>
