<svg width="32" height="32" viewBox="0 0 32 32" fill="none" xmlns="http://www.w3.org/2000/svg">
<g clip-path="url(#clip0_676_115325)">
<g clip-path="url(#clip1_676_115325)">
<rect width="32" height="16" fill="#FF0000"/>
<path d="M50.6667 -8L-20 -8L-20 38.6667L50.6667 38.6667L50.6667 -8Z" fill="#003399"/>
<path d="M15.6499 1.76758L16.3484 3.91701L18.6083 3.91701L16.7799 5.24552L17.4783 7.39495L15.6499 6.06658L13.8215 7.39495L14.5198 5.24552L12.6914 3.91701L14.9514 3.91701L15.6499 1.76758Z" fill="#FFDA44"/>
<path d="M6.36496 5.61301L8.37872 6.63897L9.9768 5.04102L9.6231 7.2732L11.6369 8.29929L9.40467 8.65286L9.05111 10.8852L8.02501 8.87142L5.79297 9.22485L7.39106 7.62676L6.36496 5.61301Z" fill="#FFDA44"/>
<path d="M2.51953 14.8983L4.66896 14.1999L4.6691 11.9399L5.99733 13.7684L8.1469 13.07L6.8184 14.8983L8.1469 16.7267L5.99733 16.0285L4.6691 17.8567L4.6691 15.5968L2.51953 14.8983Z" fill="#FFDA44"/>
<path d="M28.7797 14.8983L26.6303 15.5968V17.8567L25.3019 16.0282L23.1523 16.7267L24.4808 14.8983L23.1523 13.07L25.3019 13.7682L26.6301 11.9399L26.6303 14.2L28.7797 14.8983Z" fill="#FFDA44"/>
<path d="M24.936 5.61301L23.91 7.62677L25.5081 9.22486L23.2756 8.87115L22.2498 10.885L21.8961 8.65286L19.6641 8.29929L21.6778 7.2732L21.3241 5.04102L22.9222 6.63911L24.936 5.61301Z" fill="#FFDA44"/>
</g>
<path d="M41.332 16H-6.66797V40H41.332V16Z" fill="#012169"/>
<path d="M29.5173 22.887L29.9113 24.0999H31.1868L30.1549 24.8496L30.5492 26.0625L29.5173 25.3129L28.4853 26.0625L28.8795 24.8496L27.8477 24.0999H29.1231L29.5173 22.887Z" fill="#D80027"/>
<path fill-rule="evenodd" clip-rule="evenodd" d="M29.9113 24.0999L29.5173 22.887L29.1231 24.0999H27.8477L28.8795 24.8496L28.4853 26.0625L29.5173 25.3129L30.5492 26.0625L30.1549 24.8496L31.1868 24.0999H29.9113ZM30.3661 24.3666H29.7176L29.5173 23.7499L29.3168 24.3666H28.6684L29.193 24.7478L28.9925 25.3645L29.5173 24.9833L30.0419 25.3644L29.8414 24.7478L30.3661 24.3666Z" fill="white"/>
<path d="M20.7511 25.3333L21.2437 26.8494H22.838L21.5482 27.7865L22.0409 29.3027L20.7511 28.3657L19.4611 29.3027L19.9539 27.7865L18.6641 26.8494H20.2584L20.7511 25.3333Z" fill="#D80027"/>
<path fill-rule="evenodd" clip-rule="evenodd" d="M21.2437 26.8494L20.7511 25.3333L20.2584 26.8494H18.6641L19.9539 27.7865L19.4611 29.3027L20.7511 28.3657L22.0409 29.3027L21.5482 27.7865L22.838 26.8494H21.2437ZM22.0173 27.1161H21.0499L20.7511 26.1962L20.4521 27.1161H19.4848L20.2674 27.6847L19.9684 28.6047L20.7512 28.0361L21.5336 28.6046L21.2347 27.6847L22.0173 27.1161Z" fill="white"/>
<path d="M24.4269 19.3391L24.9195 20.8553H26.5138L25.224 21.7924L25.7167 23.3086L24.4269 22.3716L23.1369 23.3086L23.6296 21.7924L22.3398 20.8553H23.9342L24.4269 19.3391Z" fill="#D80027"/>
<path fill-rule="evenodd" clip-rule="evenodd" d="M24.9195 20.8553L24.4269 19.3391L23.9342 20.8553H22.3398L23.6296 21.7924L23.1369 23.3086L24.4269 22.3716L25.7167 23.3086L25.224 21.7924L26.5138 20.8553H24.9195ZM25.6931 21.122H24.7257L24.4269 20.202L24.1279 21.122H23.1605L23.9431 21.6906L23.6441 22.6106L24.4269 22.042L25.2094 22.6104L24.9105 21.6906L25.6931 21.122Z" fill="white"/>
<path d="M15.5049 16.0012V18.1493L11.0771 19.914H15.5049V24.0874H10.306L15.5049 26.396V28.0002H13.2116L6.37484 24.7124V28.0002H2.46205V24.5852L-5.77196 28.0002H-6.66797V25.8521L-2.44888 24.0874H-6.66797V19.914H-1.46906L-6.66797 17.6047V16.0012H-4.79214L2.46205 18.8717V16.0012H6.37484V19.4163L14.6089 16.0012H15.5049Z" fill="#F0F0F0"/>
<path d="M5.54338 16H3.29351V20.8746H-6.66797V23.1245H3.29351V27.9992H5.54338V23.1245H15.5049V20.8746H5.54338V16Z" fill="#D80027"/>
<path d="M7.31641 24.1392L15.4555 27.8957V26.8334L9.49565 24.1392H7.31641Z" fill="#D80027"/>
<path d="M-0.0820918 24.1394L-6.66797 26.8337V27.8959L2.09725 24.1394H-0.0820918Z" fill="#D80027"/>
<path d="M1.67986 19.9652L-6.66797 16V17.1213L-0.290696 19.9652H1.67986Z" fill="#D80027"/>
<path d="M8.44887 19.9652L15.4521 17.1213V16L6.26953 19.9652H8.44887Z" fill="#D80027"/>
</g>
<defs>
<clipPath id="clip0_676_115325">
<rect width="32" height="32" rx="6" fill="white"/>
</clipPath>
<clipPath id="clip1_676_115325">
<rect x="32" width="16" height="32" transform="rotate(90 32 0)" fill="white"/>
</clipPath>
</defs>
</svg>
