<svg width="32" height="32" viewBox="0 0 32 32" fill="none" xmlns="http://www.w3.org/2000/svg">
<g clip-path="url(#clip0_676_115336)">
<g clip-path="url(#clip1_676_115336)">
<rect width="32" height="16" fill="#FF0000"/>
<path d="M50.6667 -8L-20 -8L-20 38.6667L50.6667 38.6667L50.6667 -8Z" fill="#003399"/>
<path d="M15.6499 1.76758L16.3484 3.91701L18.6083 3.91701L16.7799 5.24552L17.4783 7.39495L15.6499 6.06658L13.8215 7.39495L14.5198 5.24552L12.6914 3.91701L14.9514 3.91701L15.6499 1.76758Z" fill="#FFDA44"/>
<path d="M6.36496 5.61301L8.37872 6.63897L9.9768 5.04102L9.6231 7.2732L11.6369 8.29929L9.40467 8.65286L9.05111 10.8852L8.02501 8.87142L5.79297 9.22485L7.39106 7.62676L6.36496 5.61301Z" fill="#FFDA44"/>
<path d="M2.51953 14.8983L4.66896 14.1999L4.6691 11.9399L5.99733 13.7684L8.1469 13.07L6.8184 14.8983L8.1469 16.7267L5.99733 16.0285L4.6691 17.8567L4.6691 15.5968L2.51953 14.8983Z" fill="#FFDA44"/>
<path d="M28.7797 14.8983L26.6303 15.5968V17.8567L25.3019 16.0282L23.1523 16.7267L24.4808 14.8983L23.1523 13.07L25.3019 13.7682L26.6301 11.9399L26.6303 14.2L28.7797 14.8983Z" fill="#FFDA44"/>
<path d="M24.936 5.61301L23.91 7.62677L25.5081 9.22486L23.2756 8.87115L22.2498 10.885L21.8961 8.65286L19.6641 8.29929L21.6778 7.2732L21.3241 5.04102L22.9222 6.63911L24.936 5.61301Z" fill="#FFDA44"/>
</g>
<path d="M33.3333 16H0V37.3333H33.3333V16Z" fill="#F0F0F0"/>
<path d="M33.0754 18.7559H0V21.5119H33.0754V18.7559Z" fill="#D80027"/>
<path d="M33.0754 24.2683H0V27.0244H33.0754V24.2683Z" fill="#D80027"/>
<path d="M33.0754 29.7808H0V32.5368H33.0754V29.7808Z" fill="#D80027"/>
<path d="M16 16H0V28H16V16Z" fill="#3C3B6E"/>
<path d="M5.11614 20.8643L4.84979 21.6837H3.98828L4.68538 22.1898L4.41904 23.0091L5.11614 22.503L5.81279 23.0091L5.54651 22.1898L6.24361 21.6837H5.38204L5.11614 20.8643Z" fill="#F0F0F0"/>
<path d="M6.71407 24.6401L6.44817 23.8208L6.18182 24.6401H5.32031L6.01742 25.1463L5.75107 25.9657L6.44817 25.4595L7.14482 25.9657L6.87854 25.1463L7.57564 24.6401H6.71407Z" fill="#F0F0F0"/>
<path d="M3.07351 24.6401L2.80755 23.8208L2.5412 24.6401H1.67969L2.37679 25.1463L2.11044 25.9657L2.80755 25.4595L3.50426 25.9657L3.23798 25.1463L3.93495 24.6401H3.07351Z" fill="#F0F0F0"/>
<path d="M1.47552 20.8643L1.20917 21.6837H0.347656L1.04476 22.1898L0.778412 23.0091L1.47552 22.503L2.17223 23.0091L1.90595 22.1898L2.60292 21.6837H1.74148L1.47552 20.8643Z" fill="#F0F0F0"/>
<path d="M6.44817 17.907L6.18182 18.7264H5.32031L6.01742 19.2326L5.75107 20.052L6.44817 19.5458L7.14482 20.052L6.87854 19.2326L7.57564 18.7264H6.71407L6.44817 17.907Z" fill="#F0F0F0"/>
<path d="M2.80755 17.907L2.5412 18.7264H1.67969L2.37679 19.2326L2.11044 20.052L2.80755 19.5458L3.50426 20.052L3.23798 19.2326L3.93495 18.7264H3.07351L2.80755 17.907Z" fill="#F0F0F0"/>
<path d="M8.7567 20.8643L8.49042 21.6837H7.62891L8.32594 22.1898L8.05973 23.0091L8.7567 22.503L9.45348 23.0091L9.18713 22.1898L9.88424 21.6837H9.02272L8.7567 20.8643Z" fill="#F0F0F0"/>
<path d="M10.3548 24.6401L10.0887 23.8208L9.82245 24.6401H8.96094L9.65798 25.1463L9.39176 25.9657L10.0887 25.4595L10.7855 25.9657L10.5192 25.1463L11.2163 24.6401H10.3548Z" fill="#F0F0F0"/>
<path d="M13.9992 24.6401L13.7333 23.8208L13.4669 24.6401H12.6055L13.3024 25.1463L13.0362 25.9657L13.7333 25.4595L14.43 25.9657L14.1636 25.1463L14.8607 24.6401H13.9992Z" fill="#F0F0F0"/>
<path d="M12.3973 20.8643L12.131 21.6837H11.2695L11.9665 22.1898L11.7002 23.0091L12.3973 22.503L13.094 23.0091L12.8277 22.1898L13.5248 21.6837H12.6633L12.3973 20.8643Z" fill="#F0F0F0"/>
<path d="M10.0887 17.907L9.82245 18.7264H8.96094L9.65798 19.2326L9.39176 20.052L10.0887 19.5458L10.7855 20.052L10.5192 19.2326L11.2163 18.7264H10.3548L10.0887 17.907Z" fill="#F0F0F0"/>
<path d="M13.7333 17.907L13.4669 18.7264H12.6055L13.3024 19.2326L13.0362 20.052L13.7333 19.5458L14.43 20.052L14.1636 19.2326L14.8607 18.7264H13.9992L13.7333 17.907Z" fill="#F0F0F0"/>
</g>
<defs>
<clipPath id="clip0_676_115336">
<rect width="32" height="32" rx="6" fill="white"/>
</clipPath>
<clipPath id="clip1_676_115336">
<rect x="32" width="16" height="32" transform="rotate(90 32 0)" fill="white"/>
</clipPath>
</defs>
</svg>
