<svg width="137" height="32" viewBox="0 0 137 32" fill="none" xmlns="http://www.w3.org/2000/svg">
  <path d="M14.066 24.7326L8.73263 30.0659L0 21.3333V10.6666L14.066 24.7326Z" fill="#109F12"/>
  <path d="M7.2474 14.0782L1.91406 8.7449L10.6663 0H21.333L7.2474 14.0782Z" fill="#109F12"/>
  <path d="M10.667 31.9999H21.3337L30.054 23.2722L24.7207 17.9388L10.667 31.9999Z" fill="#109F12"/>
  <path d="M17.9268 7.25997L23.2601 1.92664L32.0001 10.6666V21.3333L17.9268 7.25997Z" fill="#109F12"/>
  <path d="M15.9853 9.20339L9.17871 16.01L15.9853 22.8166L22.792 16.01L15.9853 9.20339Z" fill="#FBC02D"/>
  <path d="M44 28V4H58.8053V8.53333H48.5762V13.7333H56.7864V18.2667H48.5762V28H44Z" fill="#111928"/>
  <path d="M62.1793 28V4H66.7555V28H62.1793Z" fill="#111928"/>
  <path d="M71.7993 28V4H76.4428L86.9747 20V4H91.6182V28H86.9747L76.4428 12V28H71.7993Z" fill="#111928"/>
  <path d="M96.3127 28V4H112.127V8.23333H100.889V13.3667H110.108V17.6H100.889V23.7667H112.127V28H96.3127Z" fill="#111928"/>
  <path d="M114.141 28L122.284 15.8667L114.377 4H119.996L125.144 12L130.225 4H135.878L127.971 15.8667L136.08 28H130.46L125.144 19.7333L119.794 28H114.141Z" fill="#111928"/>
</svg>
