<svg width="32" height="32" viewBox="0 0 32 32" fill="none" xmlns="http://www.w3.org/2000/svg">
<g clip-path="url(#clip0_676_115347)">
<path d="M-3.8147e-06 18.667L32 18.667L32 -2.66657L-1.94966e-06 -2.66658L-3.8147e-06 18.667Z" fill="#F0F0F0"/>
<path d="M14 18.6672L18 18.6672L18 10.0006L32 10.0006L32 6.00061L18 6.00061L18 -2.66602L14 -2.66602L14 6.00061L-2.70735e-06 6.00061L-3.05704e-06 10.0006L14 10.0006L14 18.6672Z" fill="#D80027"/>
<path d="M7.39062 4.29053L0.00220001 0.185776L0.00219965 4.29053L7.39062 4.29053Z" fill="#012169"/>
<path d="M12.5234 4.29028L0.0016867 -2.66622L0.00168653 -0.699093L8.9825 4.29028L12.5234 4.29028Z" fill="#0052B4"/>
<path d="M3.33704 -2.66601L12.5234 2.43799L12.5234 -2.66601L3.33704 -2.66601Z" fill="#012169"/>
<path d="M12.5234 4.29053L0.00168861 -2.66597L0.00168844 -0.698848L8.9825 4.29053L12.5234 4.29053Z" fill="#F0F0F0"/>
<path d="M12.5234 4.29053L0.00168861 -2.66597L0.00168844 -0.698848L8.9825 4.29053L12.5234 4.29053Z" fill="#D80027"/>
<path d="M26.3537 4.29053L32 1.15365L32 4.29053L26.3537 4.29053Z" fill="#012169"/>
<path d="M19.4777 3.40552L19.4777 -2.66642L30.4063 -2.66642L19.4777 3.40552Z" fill="#012169"/>
<path d="M23.0192 4.29053L32 -0.698847L32 -2.66597L19.4782 4.29053L23.0192 4.29053Z" fill="#D80027"/>
<path d="M24.6116 11.7104L32 15.8152L32 11.7104L24.6116 11.7104Z" fill="#012169"/>
<path d="M19.4782 11.7107L32 18.6672L32 16.7001L23.0192 11.7107L19.4782 11.7107Z" fill="#0052B4"/>
<path d="M28.6641 18.6672L19.4777 13.5632L19.4777 18.6672L28.6641 18.6672Z" fill="#012169"/>
<path d="M19.4782 11.7107L32 18.6672L32 16.7001L23.0192 11.7107L19.4782 11.7107Z" fill="#F0F0F0"/>
<path d="M19.4782 11.7107L32 18.6672L32 16.7001L23.0192 11.7107L19.4782 11.7107Z" fill="#D80027"/>
<path d="M5.64844 11.7105L0.00212717 14.8474L0.00212744 11.7105L5.64844 11.7105Z" fill="#012169"/>
<path d="M12.5234 12.5953L12.5234 18.6672L1.59485 18.6672L12.5234 12.5953Z" fill="#012169"/>
<path d="M8.9825 11.7107L0.00168818 16.7001L0.001688 18.6672L12.5234 11.7107L8.9825 11.7107Z" fill="#D80027"/>
<g clip-path="url(#clip1_676_115347)">
<path d="M42.6667 16L-8 16L-8 41.3333L42.6667 41.3333L42.6667 16Z" fill="#012169"/>
<path d="M8.57864 28.6656C8.59891 28.6431 8.61894 28.6204 8.63898 28.5977C8.61894 28.6205 8.59846 28.6429 8.57813 28.6656H8.57864Z" fill="#F0F0F0"/>
<path d="M6.04238 31.7773L6.85562 33.4778L8.6922 33.0535L7.86968 34.7495L9.34654 35.9207L7.50781 36.3351L7.51293 38.22L6.04238 37.0408L4.57189 38.22L4.57701 36.3351L2.73828 35.9207L4.21515 34.7495L3.39263 33.0535L5.22914 33.4778L6.04238 31.7773Z" fill="#F0F0F0"/>
<path d="M21.0604 23.9524L21.4483 24.7636L22.3243 24.561L21.932 25.37L22.6363 25.9287L21.7593 26.1264L21.7617 27.0255L21.0604 26.4629L20.359 27.0255L20.3614 26.1264L19.4844 25.9287L20.1887 25.37L19.7966 24.561L20.6725 24.7636L21.0604 23.9524Z" fill="#F0F0F0"/>
<path d="M25.5369 17.9336L25.9248 18.7448L26.8007 18.5422L26.4085 19.3512L27.1128 19.9098L26.2358 20.1076L26.2382 21.0066L25.5369 20.444L24.8356 21.0066L24.8379 20.1076L23.9609 19.9098L24.6653 19.3512L24.2731 18.5422L25.149 18.7448L25.5369 17.9336Z" fill="#F0F0F0"/>
<path d="M28.6363 27.0254L28.9413 27.9643L29.9286 27.9643L29.1299 28.5447L29.435 29.4837L28.6363 28.9034L27.8373 29.4837L28.1425 28.5447L27.3438 27.9643L28.3311 27.9643L28.6363 27.0254Z" fill="#F0F0F0"/>
<path d="M15.4047 16.0012V18.2687L10.7309 20.1314L15.4047 20.1314V24.5367H9.91692L15.4047 26.9735V28.6669H12.984L5.76742 25.1964V28.6669H1.63724V25.062L-7.05421 28.6669H-8L-8 26.3994L-3.54651 24.5367H-8V20.1314H-2.51226L-8 17.6938V16.0012H-6.01996L1.63724 19.0312V16.0012H5.76742V19.606L14.4589 16.0012H15.4047Z" fill="#F0F0F0"/>
<path d="M4.88976 16L2.5149 16L2.5149 21.1454L-8 21.1454L-8 23.5203L2.5149 23.5203L2.5149 28.6659H4.88976L4.88976 23.5203L15.4047 23.5203L15.4047 21.1454L4.88976 21.1454L4.88976 16Z" fill="#D80027"/>
<path d="M6.75781 24.5916L15.3491 28.5568L15.3491 27.4355L9.05813 24.5916L6.75781 24.5916Z" fill="#D80027"/>
<path d="M-1.04824 24.5916L-8 27.4355L-8 28.5568L1.25217 24.5916H-1.04824Z" fill="#D80027"/>
<path d="M0.811594 20.1855L-8 16V17.1836L-1.26843 20.1855H0.811594Z" fill="#D80027"/>
<path d="M7.95666 20.1855L15.349 17.1836L15.349 16L5.65625 20.1855L7.95666 20.1855Z" fill="#D80027"/>
</g>
</g>
<defs>
<clipPath id="clip0_676_115347">
<rect width="32" height="32" rx="6" fill="white"/>
</clipPath>
<clipPath id="clip1_676_115347">
<rect width="16" height="32" fill="white" transform="translate(32 16) rotate(90)"/>
</clipPath>
</defs>
</svg>
