<svg width="32" height="32" viewBox="0 0 32 32" fill="none" xmlns="http://www.w3.org/2000/svg">
<g clip-path="url(#clip0_676_115358)">
<path d="M-3.8147e-06 18.667L32 18.667L32 -2.66657L-1.94966e-06 -2.66658L-3.8147e-06 18.667Z" fill="#F0F0F0"/>
<path d="M14 18.6672L18 18.6672L18 10.0006L32 10.0006L32 6.00061L18 6.00061L18 -2.66602L14 -2.66602L14 6.00061L-2.70735e-06 6.00061L-3.05704e-06 10.0006L14 10.0006L14 18.6672Z" fill="#D80027"/>
<path d="M7.39062 4.29053L0.00220001 0.185776L0.00219965 4.29053L7.39062 4.29053Z" fill="#012169"/>
<path d="M12.5234 4.29028L0.0016867 -2.66622L0.00168653 -0.699093L8.9825 4.29028L12.5234 4.29028Z" fill="#0052B4"/>
<path d="M3.33704 -2.66601L12.5234 2.43799L12.5234 -2.66601L3.33704 -2.66601Z" fill="#012169"/>
<path d="M12.5234 4.29053L0.00168861 -2.66597L0.00168844 -0.698848L8.9825 4.29053L12.5234 4.29053Z" fill="#F0F0F0"/>
<path d="M12.5234 4.29053L0.00168861 -2.66597L0.00168844 -0.698848L8.9825 4.29053L12.5234 4.29053Z" fill="#D80027"/>
<path d="M26.3537 4.29053L32 1.15365L32 4.29053L26.3537 4.29053Z" fill="#012169"/>
<path d="M19.4777 3.40552L19.4777 -2.66642L30.4063 -2.66642L19.4777 3.40552Z" fill="#012169"/>
<path d="M23.0192 4.29053L32 -0.698847L32 -2.66597L19.4782 4.29053L23.0192 4.29053Z" fill="#D80027"/>
<path d="M24.6116 11.7104L32 15.8152L32 11.7104L24.6116 11.7104Z" fill="#012169"/>
<path d="M19.4782 11.7107L32 18.6672L32 16.7001L23.0192 11.7107L19.4782 11.7107Z" fill="#0052B4"/>
<path d="M28.6641 18.6672L19.4777 13.5632L19.4777 18.6672L28.6641 18.6672Z" fill="#012169"/>
<path d="M19.4782 11.7107L32 18.6672L32 16.7001L23.0192 11.7107L19.4782 11.7107Z" fill="#F0F0F0"/>
<path d="M19.4782 11.7107L32 18.6672L32 16.7001L23.0192 11.7107L19.4782 11.7107Z" fill="#D80027"/>
<path d="M5.64844 11.7105L0.00212717 14.8474L0.00212744 11.7105L5.64844 11.7105Z" fill="#012169"/>
<path d="M12.5234 12.5953L12.5234 18.6672L1.59485 18.6672L12.5234 12.5953Z" fill="#012169"/>
<path d="M8.9825 11.7107L0.00168818 16.7001L0.001688 18.6672L12.5234 11.7107L8.9825 11.7107Z" fill="#D80027"/>
<g clip-path="url(#clip1_676_115358)">
<rect x="5.54297" y="5.33325" width="20.2412" height="36.4341" fill="white"/>
<path d="M6.44385 5.33325H-12V42.2221H6.44385V5.33325Z" fill="#FF0000"/>
<path d="M43.3345 5.33325L24.8906 5.33325L24.8906 42.2221L43.3345 42.2221L43.3345 5.33325Z" fill="#FF0000"/>
<path d="M19.1249 26.3401L22.5832 24.6109L20.854 23.7465V22.0173L17.3957 23.7465L19.1249 20.2882H17.3957L15.6666 17.6943L13.9374 20.2882H12.2083L13.9374 23.7465L10.4791 22.0173V23.7465L8.75 24.6109L12.2083 26.3401L11.3438 28.0692H14.8021V30.6631H16.5313V28.0692H19.9896L19.1249 26.3401Z" fill="#FF0000"/>
</g>
</g>
<defs>
<clipPath id="clip0_676_115358">
<rect width="32" height="32" rx="6" fill="white"/>
</clipPath>
<clipPath id="clip1_676_115358">
<rect x="32" y="16" width="16" height="32" transform="rotate(90 32 16)" fill="white"/>
</clipPath>
</defs>
</svg>
