<svg width="32" height="32" viewBox="0 0 32 32" fill="none" xmlns="http://www.w3.org/2000/svg">
<g clip-path="url(#clip0_676_115391)">
<path d="M-3.8147e-06 18.667L32 18.667L32 -2.66657L-1.94966e-06 -2.66658L-3.8147e-06 18.667Z" fill="#F0F0F0"/>
<path d="M14 18.6672L18 18.6672L18 10.0006L32 10.0006L32 6.00061L18 6.00061L18 -2.66602L14 -2.66602L14 6.00061L-2.70735e-06 6.00061L-3.05704e-06 10.0006L14 10.0006L14 18.6672Z" fill="#D80027"/>
<path d="M7.39062 4.29053L0.00220001 0.185776L0.00219965 4.29053L7.39062 4.29053Z" fill="#012169"/>
<path d="M12.5234 4.29028L0.0016867 -2.66622L0.00168653 -0.699093L8.9825 4.29028L12.5234 4.29028Z" fill="#0052B4"/>
<path d="M3.33704 -2.66601L12.5234 2.43799L12.5234 -2.66601L3.33704 -2.66601Z" fill="#012169"/>
<path d="M12.5234 4.29053L0.00168861 -2.66597L0.00168844 -0.698848L8.9825 4.29053L12.5234 4.29053Z" fill="#F0F0F0"/>
<path d="M12.5234 4.29053L0.00168861 -2.66597L0.00168844 -0.698848L8.9825 4.29053L12.5234 4.29053Z" fill="#D80027"/>
<path d="M26.3537 4.29053L32 1.15365L32 4.29053L26.3537 4.29053Z" fill="#012169"/>
<path d="M19.4777 3.40552L19.4777 -2.66642L30.4063 -2.66642L19.4777 3.40552Z" fill="#012169"/>
<path d="M23.0192 4.29053L32 -0.698847L32 -2.66597L19.4782 4.29053L23.0192 4.29053Z" fill="#D80027"/>
<path d="M24.6116 11.7104L32 15.8152L32 11.7104L24.6116 11.7104Z" fill="#012169"/>
<path d="M19.4782 11.7107L32 18.6672L32 16.7001L23.0192 11.7107L19.4782 11.7107Z" fill="#0052B4"/>
<path d="M28.6641 18.6672L19.4777 13.5632L19.4777 18.6672L28.6641 18.6672Z" fill="#012169"/>
<path d="M19.4782 11.7107L32 18.6672L32 16.7001L23.0192 11.7107L19.4782 11.7107Z" fill="#F0F0F0"/>
<path d="M19.4782 11.7107L32 18.6672L32 16.7001L23.0192 11.7107L19.4782 11.7107Z" fill="#D80027"/>
<path d="M5.64844 11.7105L0.00212717 14.8474L0.00212744 11.7105L5.64844 11.7105Z" fill="#012169"/>
<path d="M12.5234 12.5953L12.5234 18.6672L1.59485 18.6672L12.5234 12.5953Z" fill="#012169"/>
<path d="M8.9825 11.7107L0.00168818 16.7001L0.001688 18.6672L12.5234 11.7107L8.9825 11.7107Z" fill="#D80027"/>
<path d="M41.332 16H-6.66797V40H41.332V16Z" fill="#012169"/>
<path d="M29.5173 22.887L29.9113 24.0999H31.1868L30.1549 24.8496L30.5492 26.0625L29.5173 25.3129L28.4853 26.0625L28.8795 24.8496L27.8477 24.0999H29.1231L29.5173 22.887Z" fill="#D80027"/>
<path fill-rule="evenodd" clip-rule="evenodd" d="M29.9113 24.0999L29.5173 22.887L29.1231 24.0999H27.8477L28.8795 24.8496L28.4853 26.0625L29.5173 25.3129L30.5492 26.0625L30.1549 24.8496L31.1868 24.0999H29.9113ZM30.3661 24.3666H29.7176L29.5173 23.7499L29.3168 24.3666H28.6684L29.193 24.7478L28.9925 25.3645L29.5173 24.9833L30.0419 25.3644L29.8414 24.7478L30.3661 24.3666Z" fill="white"/>
<path d="M20.7511 25.3333L21.2437 26.8494H22.838L21.5482 27.7865L22.0409 29.3027L20.7511 28.3657L19.4611 29.3027L19.9539 27.7865L18.6641 26.8494H20.2584L20.7511 25.3333Z" fill="#D80027"/>
<path fill-rule="evenodd" clip-rule="evenodd" d="M21.2437 26.8494L20.7511 25.3333L20.2584 26.8494H18.6641L19.9539 27.7865L19.4611 29.3027L20.7511 28.3657L22.0409 29.3027L21.5482 27.7865L22.838 26.8494H21.2437ZM22.0173 27.1161H21.0499L20.7511 26.1962L20.4521 27.1161H19.4848L20.2674 27.6847L19.9684 28.6047L20.7512 28.0361L21.5336 28.6046L21.2347 27.6847L22.0173 27.1161Z" fill="white"/>
<path d="M24.4269 19.3391L24.9195 20.8553H26.5138L25.224 21.7924L25.7167 23.3086L24.4269 22.3716L23.1369 23.3086L23.6296 21.7924L22.3398 20.8553H23.9342L24.4269 19.3391Z" fill="#D80027"/>
<path fill-rule="evenodd" clip-rule="evenodd" d="M24.9195 20.8553L24.4269 19.3391L23.9342 20.8553H22.3398L23.6296 21.7924L23.1369 23.3086L24.4269 22.3716L25.7167 23.3086L25.224 21.7924L26.5138 20.8553H24.9195ZM25.6931 21.122H24.7257L24.4269 20.202L24.1279 21.122H23.1605L23.9431 21.6906L23.6441 22.6106L24.4269 22.042L25.2094 22.6104L24.9105 21.6906L25.6931 21.122Z" fill="white"/>
<path d="M15.5049 16.0012V18.1493L11.0771 19.914H15.5049V24.0874H10.306L15.5049 26.396V28.0002H13.2116L6.37484 24.7124V28.0002H2.46205V24.5852L-5.77196 28.0002H-6.66797V25.8521L-2.44888 24.0874H-6.66797V19.914H-1.46906L-6.66797 17.6047V16.0012H-4.79214L2.46205 18.8717V16.0012H6.37484V19.4163L14.6089 16.0012H15.5049Z" fill="#F0F0F0"/>
<path d="M5.54338 16H3.29351V20.8746H-6.66797V23.1245H3.29351V27.9992H5.54338V23.1245H15.5049V20.8746H5.54338V16Z" fill="#D80027"/>
<path d="M7.31641 24.1392L15.4555 27.8957V26.8334L9.49565 24.1392H7.31641Z" fill="#D80027"/>
<path d="M-0.0820918 24.1394L-6.66797 26.8337V27.8959L2.09725 24.1394H-0.0820918Z" fill="#D80027"/>
<path d="M1.67986 19.9652L-6.66797 16V17.1213L-0.290696 19.9652H1.67986Z" fill="#D80027"/>
<path d="M8.44887 19.9652L15.4521 17.1213V16L6.26953 19.9652H8.44887Z" fill="#D80027"/>
</g>
<defs>
<clipPath id="clip0_676_115391">
<rect width="32" height="32" rx="6" fill="white"/>
</clipPath>
</defs>
</svg>
