<svg width="32" height="32" viewBox="0 0 32 32" fill="none" xmlns="http://www.w3.org/2000/svg">
<g clip-path="url(#clip0_676_115402)">
<path d="M-3.8147e-06 18.667L32 18.667L32 -2.66657L-1.94966e-06 -2.66658L-3.8147e-06 18.667Z" fill="#F0F0F0"/>
<path d="M14 18.6672L18 18.6672L18 10.0006L32 10.0006L32 6.00061L18 6.00061L18 -2.66602L14 -2.66602L14 6.00061L-2.70735e-06 6.00061L-3.05704e-06 10.0006L14 10.0006L14 18.6672Z" fill="#D80027"/>
<path d="M7.39062 4.29053L0.00220001 0.185776L0.00219965 4.29053L7.39062 4.29053Z" fill="#012169"/>
<path d="M12.5234 4.29028L0.0016867 -2.66622L0.00168653 -0.699093L8.9825 4.29028L12.5234 4.29028Z" fill="#0052B4"/>
<path d="M3.33704 -2.66601L12.5234 2.43799L12.5234 -2.66601L3.33704 -2.66601Z" fill="#012169"/>
<path d="M12.5234 4.29053L0.00168861 -2.66597L0.00168844 -0.698848L8.9825 4.29053L12.5234 4.29053Z" fill="#F0F0F0"/>
<path d="M12.5234 4.29053L0.00168861 -2.66597L0.00168844 -0.698848L8.9825 4.29053L12.5234 4.29053Z" fill="#D80027"/>
<path d="M26.3537 4.29053L32 1.15365L32 4.29053L26.3537 4.29053Z" fill="#012169"/>
<path d="M19.4777 3.40552L19.4777 -2.66642L30.4063 -2.66642L19.4777 3.40552Z" fill="#012169"/>
<path d="M23.0192 4.29053L32 -0.698847L32 -2.66597L19.4782 4.29053L23.0192 4.29053Z" fill="#D80027"/>
<path d="M24.6116 11.7104L32 15.8152L32 11.7104L24.6116 11.7104Z" fill="#012169"/>
<path d="M19.4782 11.7107L32 18.6672L32 16.7001L23.0192 11.7107L19.4782 11.7107Z" fill="#0052B4"/>
<path d="M28.6641 18.6672L19.4777 13.5632L19.4777 18.6672L28.6641 18.6672Z" fill="#012169"/>
<path d="M19.4782 11.7107L32 18.6672L32 16.7001L23.0192 11.7107L19.4782 11.7107Z" fill="#F0F0F0"/>
<path d="M19.4782 11.7107L32 18.6672L32 16.7001L23.0192 11.7107L19.4782 11.7107Z" fill="#D80027"/>
<path d="M5.64844 11.7105L0.00212717 14.8474L0.00212744 11.7105L5.64844 11.7105Z" fill="#012169"/>
<path d="M12.5234 12.5953L12.5234 18.6672L1.59485 18.6672L12.5234 12.5953Z" fill="#012169"/>
<path d="M8.9825 11.7107L0.00168818 16.7001L0.001688 18.6672L12.5234 11.7107L8.9825 11.7107Z" fill="#D80027"/>
<path d="M33.3333 16H0V37.3333H33.3333V16Z" fill="#F0F0F0"/>
<path d="M33.0754 18.7559H0V21.5119H33.0754V18.7559Z" fill="#D80027"/>
<path d="M33.0754 24.2683H0V27.0244H33.0754V24.2683Z" fill="#D80027"/>
<path d="M33.0754 29.7808H0V32.5368H33.0754V29.7808Z" fill="#D80027"/>
<path d="M16 16H0V28H16V16Z" fill="#3C3B6E"/>
<path d="M5.11614 20.8643L4.84979 21.6837H3.98828L4.68538 22.1898L4.41904 23.0091L5.11614 22.503L5.81279 23.0091L5.54651 22.1898L6.24361 21.6837H5.38204L5.11614 20.8643Z" fill="#F0F0F0"/>
<path d="M6.71407 24.6401L6.44817 23.8208L6.18182 24.6401H5.32031L6.01742 25.1463L5.75107 25.9657L6.44817 25.4595L7.14482 25.9657L6.87854 25.1463L7.57564 24.6401H6.71407Z" fill="#F0F0F0"/>
<path d="M3.07351 24.6401L2.80755 23.8208L2.5412 24.6401H1.67969L2.37679 25.1463L2.11044 25.9657L2.80755 25.4595L3.50426 25.9657L3.23798 25.1463L3.93495 24.6401H3.07351Z" fill="#F0F0F0"/>
<path d="M1.47552 20.8643L1.20917 21.6837H0.347656L1.04476 22.1898L0.778412 23.0091L1.47552 22.503L2.17223 23.0091L1.90595 22.1898L2.60292 21.6837H1.74148L1.47552 20.8643Z" fill="#F0F0F0"/>
<path d="M6.44817 17.907L6.18182 18.7264H5.32031L6.01742 19.2326L5.75107 20.052L6.44817 19.5458L7.14482 20.052L6.87854 19.2326L7.57564 18.7264H6.71407L6.44817 17.907Z" fill="#F0F0F0"/>
<path d="M2.80755 17.907L2.5412 18.7264H1.67969L2.37679 19.2326L2.11044 20.052L2.80755 19.5458L3.50426 20.052L3.23798 19.2326L3.93495 18.7264H3.07351L2.80755 17.907Z" fill="#F0F0F0"/>
<path d="M8.7567 20.8643L8.49042 21.6837H7.62891L8.32594 22.1898L8.05973 23.0091L8.7567 22.503L9.45348 23.0091L9.18713 22.1898L9.88424 21.6837H9.02272L8.7567 20.8643Z" fill="#F0F0F0"/>
<path d="M10.3548 24.6401L10.0887 23.8208L9.82245 24.6401H8.96094L9.65798 25.1463L9.39176 25.9657L10.0887 25.4595L10.7855 25.9657L10.5192 25.1463L11.2163 24.6401H10.3548Z" fill="#F0F0F0"/>
<path d="M13.9992 24.6401L13.7333 23.8208L13.4669 24.6401H12.6055L13.3024 25.1463L13.0362 25.9657L13.7333 25.4595L14.43 25.9657L14.1636 25.1463L14.8607 24.6401H13.9992Z" fill="#F0F0F0"/>
<path d="M12.3973 20.8643L12.131 21.6837H11.2695L11.9665 22.1898L11.7002 23.0091L12.3973 22.503L13.094 23.0091L12.8277 22.1898L13.5248 21.6837H12.6633L12.3973 20.8643Z" fill="#F0F0F0"/>
<path d="M10.0887 17.907L9.82245 18.7264H8.96094L9.65798 19.2326L9.39176 20.052L10.0887 19.5458L10.7855 20.052L10.5192 19.2326L11.2163 18.7264H10.3548L10.0887 17.907Z" fill="#F0F0F0"/>
<path d="M13.7333 17.907L13.4669 18.7264H12.6055L13.3024 19.2326L13.0362 20.052L13.7333 19.5458L14.43 20.052L14.1636 19.2326L14.8607 18.7264H13.9992L13.7333 17.907Z" fill="#F0F0F0"/>
</g>
<defs>
<clipPath id="clip0_676_115402">
<rect width="32" height="32" rx="6" fill="white"/>
</clipPath>
</defs>
</svg>
