<svg xmlns="http://www.w3.org/2000/svg" fill="none" viewBox="0 0 148 44">
  <path fill="#fff" d="M52.24 11.95c0 .85-.22 1.59-.75 2.12-.64.63-1.39.95-2.34.95-.96 0-1.7-.32-2.35-.95a3.1 3.1 0 0 1-.96-2.33c0-.95.32-1.7.96-2.33a3.15 3.15 0 0 1 3.62-.63c.43.21.75.42.96.74l-.53.53c-.43-.53-.96-.74-1.7-.74-.64 0-1.28.2-1.7.74-.54.42-.76 1.05-.76 1.8 0 .74.22 1.37.75 1.8.53.42 1.07.73 1.7.73.75 0 1.28-.2 1.82-.74.32-.31.53-.74.53-1.27h-2.34v-.84h3.09v.42Zm4.9-2.64h-2.88v2h2.66v.75h-2.66v2h2.88v.85H53.4V8.57h3.73v.74Zm3.51 5.6h-.85v-5.6H58v-.74h4.47v.74h-1.8v5.6Zm4.9 0V8.57h.86v6.34h-.86Zm4.48 0h-.85v-5.6h-1.81v-.74h4.36v.74h-1.8v5.6h.1Zm10.12-.84c-.64.63-1.38.95-2.34.95s-1.7-.32-2.35-.95a3.1 3.1 0 0 1-.95-2.33c0-.95.31-1.7.95-2.33a3.15 3.15 0 0 1 2.35-.95c.96 0 1.7.32 2.34.95.64.64.96 1.38.96 2.33 0 .95-.32 1.7-.96 2.33Zm-4.05-.53c.43.42 1.07.74 1.7.74.65 0 1.29-.21 1.71-.74.43-.43.75-1.06.75-1.8s-.21-1.38-.75-1.8a2.52 2.52 0 0 0-1.7-.74 2.1 2.1 0 0 0-1.7.74 2.54 2.54 0 0 0-.75 1.8c0 .74.21 1.37.74 1.8Zm6.18 1.37V8.57h.96l3.1 4.97V8.57h.84v6.34h-.85l-3.3-5.18v5.18h-.75Zm-7.98 9.31a4.47 4.47 0 0 0-4.59 4.54 4.53 4.53 0 0 0 4.58 4.55c2.56 0 4.58-1.9 4.58-4.55a4.4 4.4 0 0 0-4.58-4.54Zm0 7.19c-1.4 0-2.56-1.17-2.56-2.75 0-1.59 1.17-2.75 2.55-2.75 1.39 0 2.56 1.05 2.56 2.75 0 1.58-1.17 2.75-2.56 2.75Zm-9.92-7.2a4.47 4.47 0 0 0-4.58 4.55 4.53 4.53 0 0 0 4.58 4.55c2.56 0 4.59-1.9 4.59-4.55a4.4 4.4 0 0 0-4.59-4.54Zm0 7.2c-1.38 0-2.55-1.17-2.55-2.75 0-1.59 1.17-2.75 2.55-2.75 1.39 0 2.56 1.05 2.56 2.75 0 1.58-1.17 2.75-2.56 2.75Zm-11.82-5.82v1.9h4.58a3.98 3.98 0 0 1-1.07 2.44 4.73 4.73 0 0 1-3.51 1.37 4.94 4.94 0 0 1-5.01-5.08 5 5 0 0 1 5-5.07c1.5 0 2.67.63 3.52 1.37l1.39-1.37a6.85 6.85 0 0 0-4.8-1.9 7.16 7.16 0 0 0-7.14 6.97c0 3.81 3.3 6.98 7.14 6.98a6.34 6.34 0 0 0 6.6-6.45c0-.42 0-.84-.1-1.16h-6.6Zm48.37 1.48c-.43-1.06-1.5-2.85-3.84-2.85s-4.26 1.8-4.26 4.54a4.44 4.44 0 0 0 4.48 4.55 4.4 4.4 0 0 0 3.73-2.01l-1.5-1.06c-.53.74-1.17 1.27-2.23 1.27-1.07 0-1.7-.42-2.24-1.37l6.07-2.54-.2-.53Zm-6.18 1.48c0-1.7 1.39-2.64 2.34-2.64.75 0 1.5.42 1.71.95l-4.05 1.7Zm-5 4.34h2.02V19.67h-2.03v13.22Zm-3.2-7.72a3.52 3.52 0 0 0-2.45-1.06c-2.24 0-4.37 2-4.37 4.55a4.4 4.4 0 0 0 4.37 4.44c1.06 0 1.91-.53 2.34-1.06h.1v.63c0 1.7-.95 2.65-2.44 2.65a2.37 2.37 0 0 1-2.24-1.59l-1.7.74a4.4 4.4 0 0 0 4.04 2.65c2.35 0 4.26-1.38 4.26-4.66v-8.03h-1.91v.74ZM84.2 31.4c-1.38 0-2.56-1.17-2.56-2.75 0-1.59 1.18-2.75 2.56-2.75 1.39 0 2.45 1.16 2.45 2.75 0 1.58-1.06 2.75-2.45 2.75Zm26-11.74h-4.8v13.22h2.03v-4.97h2.77c2.24 0 4.37-1.59 4.37-4.13 0-2.53-2.13-4.12-4.37-4.12Zm.1 6.34h-2.87v-4.54h2.88a2.33 2.33 0 0 1 2.34 2.22c-.1 1.16-.96 2.32-2.34 2.32Zm12.26-1.9c-1.5 0-2.98.63-3.52 2l1.82.75c.42-.74 1.06-.95 1.8-.95 1.07 0 2.03.63 2.14 1.69v.1a4.25 4.25 0 0 0-2.03-.52c-1.91 0-3.83 1.05-3.83 2.96 0 1.8 1.6 2.96 3.3 2.96 1.39 0 2.03-.64 2.56-1.27h.1v1.06h1.92V27.8c-.21-2.33-2.02-3.7-4.26-3.7Zm-.21 7.3c-.64 0-1.6-.32-1.6-1.17 0-1.05 1.17-1.37 2.13-1.37.85 0 1.28.21 1.81.42a2.48 2.48 0 0 1-2.34 2.12Zm11.19-6.98-2.24 5.7h-.1l-2.35-5.7h-2.13l3.51 8.03-2.02 4.44h2.02l5.44-12.47h-2.13Zm-17.9 8.46h2.02V19.67h-2.02v13.22Z"/>
  <path fill="url(#a)" d="M12.81 9.1c-.32.31-.43.84-.43 1.48v23.36c0 .64.22 1.17.54 1.48l.1.1 13.22-13.1v-.21L12.8 9.1Z"/>
  <path fill="url(#b)" d="m30.5 26.86-4.37-4.34v-.31l4.37-4.34.1.1 5.23 2.97c1.49.84 1.49 2.22 0 3.06l-5.33 2.86Z"/>
  <path fill="url(#c)" d="m30.6 26.75-4.47-4.44-13.32 13.22c.53.53 1.28.53 2.24.1l15.56-8.88"/>
  <path fill="url(#d)" d="M30.6 17.87 15.06 9.1c-.96-.53-1.7-.43-2.24.1l13.32 13.11 4.48-4.44Z"/>
  <path fill="#000" d="m30.5 26.65-15.45 8.67c-.85.53-1.6.42-2.13 0l-.1.1.1.1c.53.43 1.28.54 2.13 0l15.45-8.87Z" opacity=".2"/>
  <path fill="#000" d="M12.81 35.32c-.32-.32-.43-.85-.43-1.48v.1c0 .64.22 1.17.54 1.48v-.1h-.1Zm23.02-11.63-5.33 2.96.1.1 5.23-2.96c.74-.42 1.06-.95 1.06-1.48 0 .53-.42.95-1.06 1.38Z" opacity=".2"/>
  <path fill="#fff" d="m15.05 9.2 20.78 11.74c.64.42 1.06.84 1.06 1.37 0-.53-.32-1.05-1.06-1.48L15.05 9.1c-1.5-.85-2.67-.22-2.67 1.48v.1c0-1.58 1.18-2.32 2.67-1.48Z" opacity=".2"/>
  <defs>
    <linearGradient id="a" x1="24.96" x2="7.21" y1="10.38" y2="28.26" gradientUnits="userSpaceOnUse">
      <stop stop-color="#00A0FF"/>
      <stop offset=".01" stop-color="#00A1FF"/>
      <stop offset=".26" stop-color="#00BEFF"/>
      <stop offset=".51" stop-color="#00D2FF"/>
      <stop offset=".76" stop-color="#00DFFF"/>
      <stop offset="1" stop-color="#00E3FF"/>
    </linearGradient>
    <linearGradient id="b" x1="37.78" x2="12" y1="22.31" y2="22.31" gradientUnits="userSpaceOnUse">
      <stop stop-color="#FFE000"/>
      <stop offset=".41" stop-color="#FFBD00"/>
      <stop offset=".78" stop-color="orange"/>
      <stop offset="1" stop-color="#FF9C00"/>
    </linearGradient>
    <linearGradient id="c" x1="28.18" x2="4.12" y1="24.74" y2="48.99" gradientUnits="userSpaceOnUse">
      <stop stop-color="#FF3A44"/>
      <stop offset="1" stop-color="#C31162"/>
    </linearGradient>
    <linearGradient id="d" x1="9.5" x2="20.25" y1="1.35" y2="12.18" gradientUnits="userSpaceOnUse">
      <stop stop-color="#32A071"/>
      <stop offset=".07" stop-color="#2DA771"/>
      <stop offset=".48" stop-color="#15CF74"/>
      <stop offset=".8" stop-color="#06E775"/>
      <stop offset="1" stop-color="#00F076"/>
    </linearGradient>
  </defs>
</svg>
