<svg width="32" height="32" viewBox="0 0 32 32" fill="none" xmlns="http://www.w3.org/2000/svg">
  <g clip-path="url(#clip0_165_14227)">
    <rect width="32" height="32" rx="8" fill="white"/>
    <path fill-rule="evenodd" clip-rule="evenodd" d="M32 0H0V32H32V0ZM16.0004 12.6664C14.1594 12.6664 12.6675 14.1591 12.6675 16C12.6675 17.8409 14.1594 19.3336 16.0004 19.3336C17.8414 19.3336 19.3341 17.8409 19.3341 16C19.3341 14.1591 17.8414 12.6664 16.0004 12.6664ZM16.0004 21.1349C13.1643 21.1349 10.8653 18.836 10.8653 16C10.8653 13.164 13.1643 10.8651 16.0004 10.8651C18.8365 10.8651 21.1355 13.164 21.1355 16C21.1355 18.836 18.8365 21.1349 16.0004 21.1349ZM20.3407 11.3283C20.2089 11.1309 20.1386 10.8989 20.1387 10.6615C20.139 10.3434 20.2655 10.0384 20.4905 9.81347C20.7156 9.58856 21.0206 9.46215 21.3388 9.462H21.3393C21.5766 9.4621 21.8086 9.53257 22.0059 9.6645C22.2032 9.79644 22.3569 9.98392 22.4477 10.2032C22.5384 10.4225 22.5621 10.6638 22.5157 10.8966C22.4693 11.1293 22.3549 11.3431 22.187 11.5109C22.0191 11.6786 21.8052 11.7928 21.5724 11.839C21.3396 11.8852 21.0983 11.8614 20.8791 11.7705C20.6598 11.6796 20.4725 11.5257 20.3407 11.3283ZM10.1031 23.7958C10.4553 23.933 10.9852 24.0954 11.9602 24.1398C13.014 24.1882 13.3298 24.1979 16.0004 24.1979C18.671 24.1979 18.9876 24.1882 20.0418 24.1398C21.0168 24.0954 21.5469 23.933 21.8989 23.7958C22.3658 23.614 22.6994 23.3972 23.0492 23.0478C23.3989 22.6983 23.6154 22.3652 23.7972 21.8983C23.9336 21.5462 24.0968 21.0162 24.1412 20.0413C24.1897 18.9863 24.1994 18.6706 24.1994 16.0001C24.1994 13.3296 24.1897 13.0138 24.1412 11.9589C24.0969 10.9839 23.9345 10.4538 23.7972 10.1018C23.6154 9.63496 23.3994 9.30136 23.0492 8.9516C22.6989 8.60184 22.3658 8.38456 21.8989 8.2036C21.5458 8.0676 21.0168 7.904 20.0418 7.8596C18.9868 7.81192 18.6698 7.80144 16.0004 7.80144C13.331 7.80144 13.0144 7.81112 11.9602 7.8596C10.9852 7.90392 10.4551 8.06632 10.1031 8.2036C9.63543 8.38456 9.30261 8.60136 8.95284 8.9516C8.60306 9.30184 8.38658 9.63496 8.20481 10.1018C8.0688 10.4549 7.9052 10.9839 7.86079 11.9589C7.81311 13.0138 7.80263 13.3296 7.80263 16.0001C7.80263 18.6706 7.81231 18.9872 7.86079 20.0413C7.90512 21.0162 8.06752 21.5463 8.20481 21.8983C8.38578 22.3652 8.60258 22.698 8.95284 23.0478C9.30309 23.3975 9.63623 23.614 10.1031 23.7958ZM9.45006 6.52504C10.0854 6.27784 10.8128 6.10904 11.8774 6.06056C12.9443 6.01128 13.2854 6 16.0012 6C18.717 6 19.0579 6.01208 20.1242 6.06056C21.188 6.10824 21.915 6.27784 22.5515 6.52504C23.2083 6.78032 23.7666 7.12192 24.3223 7.67848C24.878 8.23504 25.2197 8.7924 25.4757 9.44992C25.723 10.0852 25.8918 10.8126 25.9402 11.8772C25.9887 12.9434 26 13.2843 26 16C26 18.7157 25.9887 19.0558 25.9402 20.1228C25.8926 21.1874 25.723 21.9144 25.4757 22.5501C25.2197 23.2076 24.8788 23.7658 24.3223 24.3215C23.7657 24.8772 23.2083 25.219 22.5507 25.475C21.915 25.7222 21.188 25.891 20.1234 25.9394C19.0571 25.9887 18.7162 26 16.0004 26C13.2846 26 12.9443 25.9879 11.8774 25.9394C10.8128 25.891 10.0866 25.7222 9.45006 25.475C8.79211 25.219 8.23505 24.877 7.67855 24.3215C7.12205 23.7661 6.78035 23.2076 6.52506 22.5501C6.27785 21.9144 6.10904 21.1874 6.06056 20.1228C6.01128 19.0566 6 18.7157 6 16C6 13.2843 6.01128 12.9434 6.06056 11.8772C6.10904 10.8126 6.27785 10.0856 6.52506 9.44992C6.78035 8.792 7.12196 8.23416 7.67855 7.67848C8.23513 7.1228 8.79211 6.78032 9.45006 6.52504Z" fill="url(#paint0_linear_165_14227)"/>
  </g>
  <defs>
    <linearGradient id="paint0_linear_165_14227" x1="31.385" y1="32" x2="-0.615039" y2="-8.6135e-07" gradientUnits="userSpaceOnUse">
      <stop stop-color="#FBE18A"/>
      <stop offset="0.21" stop-color="#FCBB45"/>
      <stop offset="0.38" stop-color="#F75274"/>
      <stop offset="0.52" stop-color="#D53692"/>
      <stop offset="0.74" stop-color="#8F39CE"/>
      <stop offset="1" stop-color="#5B4FE9"/>
    </linearGradient>
    <clipPath id="clip0_165_14227">
      <rect width="32" height="32" rx="8" fill="white"/>
    </clipPath>
  </defs>
</svg>
