<svg xmlns="http://www.w3.org/2000/svg" fill="none" viewBox="0 0 148 44">
  <path fill="#fff" d="M60.53 16.37a4.77 4.77 0 0 1-2.98.97 3.62 3.62 0 0 1-2.75-1.1 4.02 4.02 0 0 1-1.04-2.88c0-1.25.34-2.26 1.03-3.03a3.53 3.53 0 0 1 2.76-1.16c.7 0 1.3.14 1.8.42.5.29.88.68 1.14 1.2l-.82.37c-.2-.37-.48-.65-.84-.84-.36-.2-.79-.29-1.28-.29-.84 0-1.53.3-2.05.9-.51.6-.77 1.39-.77 2.36 0 1 .26 1.77.78 2.34.52.57 1.21.85 2.07.85.38 0 .75-.05 1.1-.15.34-.1.65-.24.92-.44v-1.93h-1.9v-.83h2.83v3.24ZM66.76 14.54h-4.08c0 .7.17 1.21.5 1.54.33.31.73.47 1.2.47.34 0 .64-.07.9-.23.27-.16.48-.4.66-.72l.74.38c-.2.4-.5.73-.9.98s-.89.38-1.47.38c-.75 0-1.37-.25-1.85-.75s-.71-1.22-.71-2.18c0-.86.24-1.57.72-2.13.49-.57 1.11-.85 1.87-.85.77 0 1.36.23 1.78.7.43.46.64 1.1.64 1.94v.47Zm-.93-.75c0-.5-.13-.87-.4-1.15a1.45 1.45 0 0 0-1.1-.43c-.46 0-.84.15-1.13.45-.29.3-.46.68-.51 1.13h3.14ZM70.96 16.85c-.17.16-.35.28-.55.36-.2.08-.43.12-.7.12-.45 0-.79-.13-1.03-.37-.24-.25-.37-.6-.37-1.07v-3.56h-.97v-.77h.97v-1.33l.9-.16v1.5h1.52v.76h-1.51v3.48c0 .27.05.46.15.58.1.13.27.19.49.19.1 0 .21-.03.31-.07.1-.04.21-.13.32-.25l.47.59ZM75.19 10.29a.62.62 0 0 1-.48-.2.66.66 0 0 1-.18-.46c0-.17.06-.33.18-.45.12-.14.28-.2.48-.2.19 0 .35.06.47.2.12.12.18.28.18.45 0 .18-.06.33-.18.47a.62.62 0 0 1-.47.19Zm.44 6.91h-.9v-5.64h.9v5.64ZM80.26 16.85a1.58 1.58 0 0 1-1.24.48c-.45 0-.8-.13-1.03-.37-.25-.25-.37-.6-.37-1.07v-3.56h-.97v-.77h.97v-1.33l.9-.16v1.5h1.52v.76h-1.51v3.48c0 .27.05.46.15.58.1.13.27.19.49.19.1 0 .21-.03.31-.07.1-.04.21-.13.32-.25l.46.59ZM86.74 9.67a1.4 1.4 0 0 0-.27-.13c-.1-.03-.2-.04-.34-.04-.28 0-.5.08-.65.25-.15.17-.23.42-.23.76v1.05h1.33v.77h-1.33v4.87h-.9v-4.87h-.96v-.77h.97v-1.1c0-.5.16-.92.48-1.24.32-.33.76-.5 1.3-.5a2.09 2.09 0 0 1 1.02.27l-.42.68ZM90.43 12.41a1.34 1.34 0 0 0-.62-.14c-.4 0-.73.2-.99.58-.25.39-.37.88-.37 1.48v2.87h-.9v-5.64h.9v1.03h.02c.13-.35.33-.63.59-.82.26-.2.56-.3.89-.3a1.69 1.69 0 0 1 .82.18l-.34.76ZM94.07 17.34c-.88 0-1.57-.26-2.07-.79a2.94 2.94 0 0 1-.74-2.1c0-.9.28-1.64.83-2.19a2.8 2.8 0 0 1 2.07-.83c.84 0 1.51.27 2 .8a3 3 0 0 1 .75 2.13c0 .85-.26 1.56-.77 2.13-.5.56-1.2.85-2.07.85Zm.05-.79c.57 0 1.02-.18 1.35-.56.34-.39.51-.92.51-1.6 0-.64-.17-1.17-.5-1.57-.34-.4-.8-.6-1.36-.6-.57 0-1.04.2-1.4.6-.36.41-.53.94-.53 1.6 0 .68.17 1.21.53 1.58.36.37.83.55 1.4.55ZM106.26 17.2h-.9v-3.24c0-.61-.1-1.06-.3-1.33-.19-.28-.51-.42-.97-.42-.38 0-.71.18-.98.53-.27.34-.4.76-.4 1.25v3.21h-.91v-3.35c0-.54-.1-.95-.32-1.22-.22-.28-.54-.42-.97-.42-.4 0-.72.17-.98.5a2 2 0 0 0-.38 1.28v3.21h-.9v-5.64h.9v.8h.02a2 2 0 0 1 .74-.7c.3-.15.63-.23 1.01-.23s.7.1.99.3c.28.2.48.46.58.78.21-.36.48-.63.8-.81.31-.18.68-.27 1.1-.27.63 0 1.1.19 1.4.57.31.38.47.96.47 1.73v3.47ZM68.38 33.57h-2.09V25.5a50.71 50.71 0 0 1 .04-2.02h-.04a194.3 194.3 0 0 1-.31.88l-3.72 9.21h-1.44l-3.73-9.14a29 29 0 0 1-.16-.4l-.18-.55h-.05a30.97 30.97 0 0 1 .04 2.29v7.8h-1.97V20.93h2.98l3.3 8.21a23 23 0 0 1 .52 1.46h.06a31.03 31.03 0 0 1 .55-1.48l3.35-8.2h2.85v12.65ZM71.04 22.9a1.27 1.27 0 0 1-1.31-1.28 1.25 1.25 0 0 1 1.31-1.29 1.27 1.27 0 0 1 1.33 1.28 1.25 1.25 0 0 1-1.33 1.28Zm1.03 10.67H70v-9.03h2.06v9.03ZM81.17 31.89c-.4.63-.91 1.1-1.55 1.42-.63.32-1.33.47-2.1.47-1.45 0-2.59-.42-3.4-1.25a4.57 4.57 0 0 1-1.22-3.32c0-1.5.43-2.7 1.3-3.57.86-.87 2-1.31 3.38-1.31.78 0 1.49.16 2.12.5.63.32 1.1.81 1.43 1.47l-1.6.8c-.29-.4-.6-.68-.92-.85a2.32 2.32 0 0 0-1.1-.25 2.3 2.3 0 0 0-1.82.8c-.47.55-.7 1.3-.7 2.27 0 .96.23 1.7.7 2.22.47.53 1.1.79 1.88.79.4 0 .77-.08 1.1-.25.35-.17.65-.45.92-.85l1.58.9ZM87.1 26.38a3.02 3.02 0 0 0-1.06-.2c-.61 0-1.1.26-1.48.8A3.63 3.63 0 0 0 84 29.1v4.47h-2.06v-9.03H84v1.63h.03a2.8 2.8 0 0 1 .94-1.32 2.3 2.3 0 0 1 1.43-.47 2.76 2.76 0 0 1 1.26.26l-.57 1.74ZM91.93 33.78a4.6 4.6 0 0 1-3.4-1.26 4.59 4.59 0 0 1-1.27-3.4c0-1.43.46-2.6 1.34-3.47a4.7 4.7 0 0 1 3.46-1.32c1.43 0 2.55.43 3.37 1.3a4.66 4.66 0 0 1 1.24 3.35c0 1.4-.44 2.55-1.3 3.45-.87.9-2.02 1.35-3.44 1.35Zm.08-1.67a2.3 2.3 0 0 0 1.89-.82c.45-.56.67-1.31.67-2.26 0-.91-.23-1.64-.68-2.2a2.27 2.27 0 0 0-1.88-.83c-.8 0-1.45.28-1.93.86a3.32 3.32 0 0 0-.73 2.22c0 .95.24 1.7.72 2.23.48.54 1.12.8 1.94.8ZM96.93 32.08l1.27-1.07c.31.44.66.76 1.03.94.37.18.79.27 1.25.27.45 0 .82-.1 1.1-.3a1 1 0 0 0 .41-.86.92.92 0 0 0-.38-.73 2.6 2.6 0 0 0-1.18-.46c-1.17-.22-1.98-.56-2.44-1.02a2.34 2.34 0 0 1-.68-1.7c0-.85.3-1.53.91-2.04.6-.52 1.38-.78 2.31-.78.66 0 1.26.11 1.8.34.56.23 1 .58 1.32 1.06l-1.25 1.03c-.26-.3-.53-.52-.83-.66-.3-.15-.66-.22-1.06-.22-.43 0-.76.1-1 .27a.9.9 0 0 0-.37.77c0 .3.12.53.34.7.24.17.69.32 1.35.44 1 .18 1.76.5 2.26.95.5.46.75 1.08.75 1.87 0 .9-.32 1.62-.98 2.13-.64.52-1.44.77-2.4.77-.8 0-1.51-.15-2.11-.45-.6-.3-1.08-.72-1.42-1.25ZM108.77 33.78a4.6 4.6 0 0 1-3.4-1.26 4.59 4.59 0 0 1-1.27-3.4c0-1.43.45-2.6 1.34-3.47a4.7 4.7 0 0 1 3.46-1.32c1.42 0 2.55.43 3.37 1.3a4.66 4.66 0 0 1 1.24 3.35 4.54 4.54 0 0 1-4.74 4.8Zm.08-1.67a2.3 2.3 0 0 0 1.89-.82c.44-.56.67-1.31.67-2.26 0-.91-.23-1.64-.68-2.2a2.27 2.27 0 0 0-1.88-.83c-.8 0-1.45.28-1.93.86a3.32 3.32 0 0 0-.73 2.22c0 .95.24 1.7.72 2.23.47.54 1.12.8 1.94.8ZM119.2 21.97a1.98 1.98 0 0 0-1-.32c-.39 0-.68.12-.89.36-.2.24-.3.6-.3 1.07v1.46h2.1v1.6H117v7.43h-2.05v-7.42h-1.53v-1.6h1.53v-1.5a3 3 0 0 1 .83-2.22 3.17 3.17 0 0 1 2.33-.83 3.88 3.88 0 0 1 1.92.48l-.83 1.49Z"/>
  <path fill="#fff" d="M124.75 32.96c-.27.26-.59.46-.94.6-.36.14-.77.21-1.21.21-.86 0-1.51-.21-1.95-.64-.44-.44-.66-1.07-.66-1.9v-5.08h-1.51v-1.6h1.51v-2.22l2.05-.36v2.57h2.3v1.6h-2.3v5.01c0 .36.07.63.21.8.15.17.37.25.66.25.16 0 .3-.03.45-.09.15-.05.3-.17.47-.34l.92 1.2Z"/>
  <path fill="url(#a)" d="M33 22.01 23.18 22v7.2c0 .65.48 1.2 1.13 1.3l8.67 1.2V22Z"/>
  <path fill="url(#b)" d="M34.3 22.01v9.85l12.25 1.7c.79.1 1.49-.5 1.49-1.3V22.04L34.3 22Z"/>
  <path fill="url(#c)" d="m33 11.05-8.7 1.23a1.3 1.3 0 0 0-1.12 1.3v7.1H33v-9.63Z"/>
  <path fill="url(#d)" d="M34.3 10.86v9.83h13.74V10.42c0-.8-.7-1.4-1.5-1.29L34.3 10.86Z"/>
  <defs>
    <linearGradient id="a" x1="26.26" x2="30.75" y1="22.73" y2="30.23" gradientUnits="userSpaceOnUse">
      <stop stop-color="#1784D8"/>
      <stop offset="1" stop-color="#0864C5"/>
    </linearGradient>
    <linearGradient id="b" x1="36.01" x2="49.05" y1="23.39" y2="32.4" gradientUnits="userSpaceOnUse">
      <stop stop-color="#31ABEC"/>
      <stop offset="1" stop-color="#1582D5"/>
    </linearGradient>
    <linearGradient id="c" x1="25.24" x2="36.77" y1="13.3" y2="23.69" gradientUnits="userSpaceOnUse">
      <stop stop-color="#31ABEC"/>
      <stop offset="1" stop-color="#1582D5"/>
    </linearGradient>
    <linearGradient id="d" x1="36.86" x2="56.56" y1="12.28" y2="25.68" gradientUnits="userSpaceOnUse">
      <stop stop-color="#54DAFF"/>
      <stop offset="1" stop-color="#25A2E5"/>
    </linearGradient>
  </defs>
</svg>
