<svg width="232" height="160" viewBox="0 0 232 160" fill="none" xmlns="http://www.w3.org/2000/svg">
  <g clip-path="url(#clip0_987_145777)">
    <mask id="mask0_987_145777" style="mask-type:luminance" maskUnits="userSpaceOnUse" x="0" y="0" width="232" height="160">
      <path d="M212.269 160C216.117 160 219.732 158.164 221.615 154.809C226.767 145.629 235.758 125.43 230.303 103.613C226.821 89.6856 221.207 64.0102 166.599 64.0102C142.474 64.0102 141.775 0 80.5166 0C-9.34854 0 -19.207 127.055 27.3167 158.335C29.0391 159.493 31.0978 160 33.1733 160H212.269Z" fill="white"/>
    </mask>
    <g mask="url(#mask0_987_145777)">
      <path d="M232 0H0V166.894H232V0Z" fill="#F5F7FA"/>
      <path d="M-7.25 102.14C-7.25 102.14 46.2306 50.5533 251.431 118.807V160H-7.25V102.14Z" fill="#EDEFF2"/>
      <path d="M183.962 130.367C194.396 119.87 194.396 102.85 183.962 92.3521C173.527 81.8545 156.609 81.8545 146.175 92.3521C135.74 102.85 135.74 119.87 146.175 130.367C156.609 140.865 173.527 140.865 183.962 130.367Z" fill="white"/>
      <path d="M93.5488 135.071C93.5488 135.071 178.955 99.5355 357.151 160H93.5488V135.071Z" fill="#E3E7ED"/>
      <path d="M139.837 41.5085C133.836 41.5085 127.69 41.3592 121.421 41.0605C107.772 40.4108 93.5076 39.0547 79.0256 37.0309C54.3667 33.5853 37.3905 29.3362 37.2212 29.2929C36.8545 29.2003 36.6318 28.8269 36.7239 28.458C36.8159 28.0891 37.1871 27.8651 37.5538 27.9577C37.7215 27.9995 54.6413 32.2351 79.2319 35.6703C101.916 38.8396 135.956 41.9581 169.294 38.8127C169.67 38.7769 170.004 39.0561 170.039 39.434C170.075 39.8134 169.799 40.1479 169.422 40.1838C160.069 41.0665 150.168 41.5085 139.836 41.5085H139.837Z" fill="#E3E7ED"/>
      <path d="M96.4697 51.9797V92.4786C96.4697 101.742 88.9785 109.278 79.7711 109.278H71.8716V152.567C71.8716 156.879 68.3977 160.373 64.1117 160.373C59.8258 160.373 56.3518 156.879 56.3518 152.567V76.2841H47.5423C38.3349 76.2841 30.8438 68.7477 30.8438 59.4848V51.9797C30.8438 47.6679 34.3177 44.173 38.6037 44.173C42.8896 44.173 46.3636 47.6679 46.3636 51.9797V59.4848C46.3636 60.1375 46.8921 60.6707 47.5423 60.6707H56.3518V33.878C56.3518 29.5662 59.8258 26.0713 64.1117 26.0713C68.3977 26.0713 71.8716 29.5662 71.8716 33.878V93.6645H79.7711C80.4214 93.6645 80.9499 93.1328 80.9499 92.4786V51.9797C80.9499 47.6679 84.4238 44.173 88.7098 44.173C92.9958 44.173 96.4697 47.6679 96.4697 51.9797Z" fill="#BAC0CD"/>
      <path d="M66.5584 58.6245C65.8977 58.6245 65.3633 58.0853 65.3633 57.4222V46.0802C65.3633 45.4156 65.8992 44.8779 66.5584 44.8779C67.219 44.8779 67.7535 45.4171 67.7535 46.0802V57.4222C67.7535 58.0868 67.2175 58.6245 66.5584 58.6245Z" fill="#9FA5B3"/>
      <path d="M62.4607 97.576C61.8001 97.576 61.2656 97.0368 61.2656 96.3737V85.0318C61.2656 84.3671 61.8016 83.8295 62.4607 83.8295C63.1214 83.8295 63.6558 84.3686 63.6558 85.0318V96.3737C63.6558 97.0383 63.1199 97.576 62.4607 97.576Z" fill="#9FA5B3"/>
      <path d="M87.6868 70.0814H87.6853C87.0253 70.0814 86.4902 70.6197 86.4902 71.2837V82.6272C86.4902 83.2912 87.0253 83.8295 87.6853 83.8295H87.6868C88.3468 83.8295 88.8819 83.2912 88.8819 82.6272V71.2837C88.8819 70.6197 88.3468 70.0814 87.6868 70.0814Z" fill="#9FA5B3"/>
      <path d="M41.7322 65.4992C41.0716 65.4992 40.5371 64.9601 40.5371 64.2969V52.955C40.5371 52.2904 41.073 51.7527 41.7322 51.7527C42.3928 51.7527 42.9273 52.2919 42.9273 52.955V64.2969C42.9273 64.9616 42.3913 65.4992 41.7322 65.4992Z" fill="#9FA5B3"/>
      <path d="M50.919 71.2852V76.2856H48.5273V71.2852C48.5273 70.6206 49.0618 70.0829 49.7224 70.0829C50.052 70.0829 50.3519 70.2173 50.5686 70.4354C50.7854 70.6534 50.919 70.9536 50.919 71.2867V71.2852Z" fill="#9FA5B3"/>
      <path d="M-3.73438 135.071C-3.73438 135.071 88.1642 99.5355 279.901 160H-3.73438V135.071Z" fill="#BAC0CD"/>
    </g>
    <path d="M221.403 66.8419V86.7971C221.403 91.6332 217.928 95.6688 213.357 96.5066C212.898 96.5903 212.43 96.6425 211.952 96.659C211.834 96.6635 211.713 96.6649 211.595 96.6649H206.955V133.603C206.955 136.136 204.914 138.19 202.396 138.19C199.878 138.19 197.837 136.136 197.837 133.603V105.683H192.662C187.252 105.683 182.852 101.256 182.852 95.8136V83.0603C182.852 80.5287 184.893 78.4736 187.411 78.4736C189.929 78.4736 191.97 80.5272 191.97 83.0603V95.8136C191.97 96.1975 192.28 96.5111 192.663 96.5111H197.838V63.8802C197.838 61.3472 199.88 59.2936 202.398 59.2936C204.915 59.2936 206.957 61.3472 206.957 63.8802V87.4931H211.596C211.978 87.4931 212.289 87.181 212.289 86.7956V66.8404C212.289 64.3074 214.331 62.2538 216.848 62.2538C219.366 62.2538 221.408 64.3074 221.408 66.8404L221.403 66.8419Z" fill="#E3E7ED"/>
    <path d="M213.354 93.9303V96.5067C212.895 96.5903 212.427 96.6426 211.949 96.659V93.9303C211.949 93.5405 212.264 93.2239 212.651 93.2239C212.846 93.2239 213.021 93.303 213.149 93.4315C213.275 93.5584 213.355 93.7362 213.355 93.9318L213.354 93.9303Z" fill="#BAC0CD"/>
    <path d="M203.531 65.798C203.531 65.4078 203.217 65.0916 202.829 65.0916C202.441 65.0916 202.127 65.4078 202.127 65.798V72.4607C202.127 72.8508 202.441 73.1671 202.829 73.1671C203.217 73.1671 203.531 72.8508 203.531 72.4607V65.798Z" fill="#BAC0CD"/>
    <path d="M202.128 91.2374C201.741 91.2374 201.426 90.9208 201.426 90.531V83.8683C201.426 83.4785 201.741 83.1619 202.128 83.1619C202.515 83.1619 202.83 83.4785 202.83 83.8683V90.531C202.83 90.9208 202.515 91.2374 202.128 91.2374Z" fill="#BAC0CD"/>
    <path d="M217.612 78.4169C217.225 78.4169 216.91 78.1003 216.91 77.7104V71.0478C216.91 70.6579 217.225 70.3413 217.612 70.3413C218 70.3413 218.315 70.6579 218.315 71.0478V77.7104C218.315 78.1003 218 78.4169 217.612 78.4169Z" fill="#BAC0CD"/>
    <path d="M186.392 94.0647C186.004 94.0647 185.689 93.7481 185.689 93.3583V86.6956C185.689 86.3058 186.004 85.9891 186.392 85.9891C186.779 85.9891 187.094 86.3058 187.094 86.6956V93.3583C187.094 93.7481 186.779 94.0647 186.392 94.0647Z" fill="#BAC0CD"/>
    <path d="M141.829 54.3499C140.363 54.3499 138.881 54.3439 137.376 54.332C136.997 54.329 136.694 54.0184 136.697 53.6375C136.7 53.2596 137.006 52.955 137.382 52.955H137.388C158.161 53.1207 174.79 52.1947 188.224 50.1277C207.209 47.2063 218.692 42.0685 222.356 34.8532C225.414 28.8283 225.487 21.9834 222.549 16.5454C220.361 12.4949 215.546 7.43782 205.04 6.34455C204.664 6.30572 204.391 5.96668 204.43 5.58882C204.468 5.21095 204.807 4.93614 205.181 4.97497C209.71 5.44544 213.645 6.69553 216.874 8.6909C219.852 10.5294 222.166 12.952 223.753 15.8883C226.906 21.7265 226.841 29.0493 223.576 35.4805C217.217 48.0069 189.721 54.3499 141.832 54.3499H141.829Z" fill="#E3E7ED"/>
    <path d="M125.252 54.0975C125.252 54.0975 125.237 54.0975 125.231 54.0975C117.561 53.8615 112.609 53.5374 112.56 53.5344C112.183 53.509 111.896 53.182 111.921 52.8026C111.947 52.4232 112.273 52.135 112.649 52.1604C112.698 52.1634 117.63 52.486 125.272 52.7204C125.651 52.7324 125.948 53.049 125.936 53.4299C125.924 53.8033 125.621 54.0975 125.252 54.0975Z" fill="#E3E7ED"/>
    <path d="M140.009 41.4981C116.002 41.4981 93.4322 39.1144 76.7945 36.7142C76.4204 36.6605 76.1606 36.311 76.214 35.9346C76.2674 35.5582 76.6148 35.2969 76.9889 35.3506C100.252 38.7066 135.152 42.0312 169.293 38.8127C169.668 38.7768 170.002 39.0561 170.038 39.434C170.074 39.8118 169.798 40.1479 169.42 40.1837C159.579 41.1112 149.677 41.4981 140.009 41.4981Z" fill="#E3E7ED"/>
    <path d="M104.272 127.079C104.272 127.079 100.087 118.263 104.272 115.288C104.272 115.288 103.435 121.128 106.156 127.079C106.156 127.079 105.633 116.941 109.922 113.36C109.922 113.36 110.445 121.9 107.516 127.079C107.516 127.079 111.073 114.296 115.573 111.653C115.573 111.653 113.166 124.325 109.609 127.079C109.609 127.079 119.235 120.578 119.026 117.713C119.026 117.713 119.863 122.01 111.702 127.466C111.702 127.466 118.398 124.932 122.792 120.524C122.792 120.524 119.191 126.751 114.871 128.238C114.871 128.238 110.656 130.002 104.274 127.081L104.272 127.079Z" fill="#BAC0CD"/>
    <path d="M21.1784 130.915C21.1784 130.915 16.9933 122.098 21.1784 119.123C21.1784 119.123 20.3411 124.963 23.0623 130.915C23.0623 130.915 22.5397 120.777 26.8287 117.195C26.8287 117.195 27.3513 125.735 24.4222 130.915C24.4222 130.915 27.9792 118.132 32.479 115.488C32.479 115.488 30.0725 128.161 26.5154 130.915C26.5154 130.915 36.1415 124.413 35.9321 121.549C35.9321 121.549 36.7695 125.847 28.6087 131.302C28.6087 131.302 35.3042 128.767 39.6985 124.36C39.6985 124.36 36.0969 130.586 31.7768 132.074C31.7768 132.074 27.5621 133.838 21.1799 130.916L21.1784 130.915Z" fill="#BAC0CD"/>
    <path d="M168.661 126.466C168.661 126.466 164.84 121.783 166.921 119.367C166.921 119.367 167.279 123.008 169.796 126.185C169.796 126.185 167.984 120.158 170.038 117.362C170.038 117.362 171.613 122.426 170.614 125.982C170.614 125.982 170.869 117.754 173.186 115.49C173.186 115.49 173.608 123.478 171.872 125.669C171.872 125.669 176.708 120.317 176.158 118.623C176.158 118.623 177.297 121.086 173.189 125.589C173.189 125.589 176.847 123.062 178.841 119.752C178.841 119.752 177.591 124.039 175.21 125.58C175.21 125.58 172.932 127.271 168.658 126.467L168.661 126.466Z" fill="#E3E7ED"/>
    <path d="M108.309 28.2727C108.309 28.2727 114.585 28.3025 116.539 26.4789C118.493 24.6538 111.935 25.4364 108.309 28.2727Z" fill="#BAC0CD"/>
    <path d="M193.4 42.2104C193.4 42.2104 199.677 42.2403 201.631 40.4167C203.585 38.5916 197.027 39.3742 193.4 42.2104Z" fill="#E3E7ED"/>
    <path d="M165.066 68.9463C165.066 68.9463 170.145 72.6593 172.789 72.3262C175.433 71.9932 169.658 68.7746 165.066 68.9463Z" fill="#E3E7ED"/>
    <path d="M193.4 4.96153C193.4 4.96153 183.006 0.482406 178.494 2.13127C173.983 3.78014 185.405 7.10924 193.4 4.96153Z" fill="#BAC0CD"/>
  </g>
  <defs>
    <clipPath id="clip0_987_145777">
      <rect width="232" height="160" fill="white"/>
    </clipPath>
  </defs>
</svg>
