<svg width="32" height="32" viewBox="0 0 32 32" fill="none" xmlns="http://www.w3.org/2000/svg">
<g clip-path="url(#clip0_676_115446)">
<path d="M41.332 0H-6.66797V16H41.332V0Z" fill="#012169"/>
<path d="M29.5173 6.88696L29.9113 8.0999H31.1868L30.1549 8.8496L30.5492 10.0625L29.5173 9.31294L28.4853 10.0625L28.8795 8.8496L27.8477 8.0999H29.1231L29.5173 6.88696Z" fill="#D80027"/>
<path fill-rule="evenodd" clip-rule="evenodd" d="M29.9113 8.0999L29.5173 6.88696L29.1231 8.0999H27.8477L28.8795 8.8496L28.4853 10.0625L29.5173 9.31294L30.5492 10.0625L30.1549 8.8496L31.1868 8.0999H29.9113ZM30.3661 8.36657H29.7176L29.5173 7.74989L29.3168 8.36657H28.6684L29.193 8.74776L28.9925 9.36451L29.5173 8.98334L30.0419 9.3644L29.8414 8.74776L30.3661 8.36657Z" fill="white"/>
<path d="M20.7511 9.33325L21.2437 10.8494H22.838L21.5482 11.7866L22.0409 13.3027L20.7511 12.3657L19.4611 13.3027L19.9539 11.7866L18.6641 10.8494H20.2584L20.7511 9.33325Z" fill="#D80027"/>
<path fill-rule="evenodd" clip-rule="evenodd" d="M21.2437 10.8494L20.7511 9.33325L20.2584 10.8494H18.6641L19.9539 11.7866L19.4611 13.3027L20.7511 12.3657L22.0409 13.3027L21.5482 11.7866L22.838 10.8494H21.2437ZM22.0173 11.1161H21.0499L20.7511 10.1962L20.4521 11.1161H19.4848L20.2674 11.6847L19.9684 12.6047L20.7512 12.0361L21.5336 12.6046L21.2347 11.6847L22.0173 11.1161Z" fill="white"/>
<path d="M24.4269 3.33911L24.9195 4.85529H26.5138L25.224 5.79241L25.7167 7.30859L24.4269 6.37158L23.1369 7.30859L23.6296 5.79241L22.3398 4.85529H23.9342L24.4269 3.33911Z" fill="#D80027"/>
<path fill-rule="evenodd" clip-rule="evenodd" d="M24.9195 4.85529L24.4269 3.33911L23.9342 4.85529H22.3398L23.6296 5.79241L23.1369 7.30859L24.4269 6.37158L25.7167 7.30859L25.224 5.79241L26.5138 4.85529H24.9195ZM25.6931 5.12195H24.7257L24.4269 4.20204L24.1279 5.12195H23.1605L23.9431 5.69056L23.6441 6.61056L24.4269 6.04199L25.2094 6.61044L24.9105 5.69056L25.6931 5.12195Z" fill="white"/>
<path d="M15.5049 0.0012207V2.14935L11.0771 3.91402H15.5049V8.08745H10.306L15.5049 10.396V12.0002H13.2116L6.37484 8.71245V12.0002H2.46205V8.58516L-5.77196 12.0002H-6.66797V9.85211L-2.44888 8.08745H-6.66797V3.91402H-1.46906L-6.66797 1.60467V0.0012207H-4.79214L2.46205 2.8717V0.0012207H6.37484V3.41631L14.6089 0.0012207H15.5049Z" fill="#F0F0F0"/>
<path d="M5.54338 0H3.29351V4.87461H-6.66797V7.12448H3.29351V11.9992H5.54338V7.12448H15.5049V4.87461H5.54338V0Z" fill="#D80027"/>
<path d="M7.31641 8.13916L15.4555 11.8957V10.8334L9.49565 8.13916H7.31641Z" fill="#D80027"/>
<path d="M-0.0820918 8.1394L-6.66797 10.8337V11.8959L2.09725 8.1394H-0.0820918Z" fill="#D80027"/>
<path d="M1.67986 3.96522L-6.66797 0V1.12126L-0.290696 3.96522H1.67986Z" fill="#D80027"/>
<path d="M8.44887 3.96522L15.4521 1.12126V0L6.26953 3.96522H8.44887Z" fill="#D80027"/>
<path d="M33.3333 16H0V37.3333H33.3333V16Z" fill="#F0F0F0"/>
<path d="M33.0754 18.7559H0V21.5119H33.0754V18.7559Z" fill="#D80027"/>
<path d="M33.0754 24.2683H0V27.0244H33.0754V24.2683Z" fill="#D80027"/>
<path d="M33.0754 29.7808H0V32.5368H33.0754V29.7808Z" fill="#D80027"/>
<path d="M16 16H0V28H16V16Z" fill="#3C3B6E"/>
<path d="M5.11614 20.8643L4.84979 21.6837H3.98828L4.68538 22.1898L4.41904 23.0091L5.11614 22.503L5.81279 23.0091L5.54651 22.1898L6.24361 21.6837H5.38204L5.11614 20.8643Z" fill="#F0F0F0"/>
<path d="M6.71407 24.6401L6.44817 23.8208L6.18182 24.6401H5.32031L6.01742 25.1463L5.75107 25.9657L6.44817 25.4595L7.14482 25.9657L6.87854 25.1463L7.57564 24.6401H6.71407Z" fill="#F0F0F0"/>
<path d="M3.07351 24.6401L2.80755 23.8208L2.5412 24.6401H1.67969L2.37679 25.1463L2.11044 25.9657L2.80755 25.4595L3.50426 25.9657L3.23798 25.1463L3.93495 24.6401H3.07351Z" fill="#F0F0F0"/>
<path d="M1.47552 20.8643L1.20917 21.6837H0.347656L1.04476 22.1898L0.778412 23.0091L1.47552 22.503L2.17223 23.0091L1.90595 22.1898L2.60292 21.6837H1.74148L1.47552 20.8643Z" fill="#F0F0F0"/>
<path d="M6.44817 17.907L6.18182 18.7264H5.32031L6.01742 19.2326L5.75107 20.052L6.44817 19.5458L7.14482 20.052L6.87854 19.2326L7.57564 18.7264H6.71407L6.44817 17.907Z" fill="#F0F0F0"/>
<path d="M2.80755 17.907L2.5412 18.7264H1.67969L2.37679 19.2326L2.11044 20.052L2.80755 19.5458L3.50426 20.052L3.23798 19.2326L3.93495 18.7264H3.07351L2.80755 17.907Z" fill="#F0F0F0"/>
<path d="M8.7567 20.8643L8.49042 21.6837H7.62891L8.32594 22.1898L8.05973 23.0091L8.7567 22.503L9.45348 23.0091L9.18713 22.1898L9.88424 21.6837H9.02272L8.7567 20.8643Z" fill="#F0F0F0"/>
<path d="M10.3548 24.6401L10.0887 23.8208L9.82245 24.6401H8.96094L9.65798 25.1463L9.39176 25.9657L10.0887 25.4595L10.7855 25.9657L10.5192 25.1463L11.2163 24.6401H10.3548Z" fill="#F0F0F0"/>
<path d="M13.9992 24.6401L13.7333 23.8208L13.4669 24.6401H12.6055L13.3024 25.1463L13.0362 25.9657L13.7333 25.4595L14.43 25.9657L14.1636 25.1463L14.8607 24.6401H13.9992Z" fill="#F0F0F0"/>
<path d="M12.3973 20.8643L12.131 21.6837H11.2695L11.9665 22.1898L11.7002 23.0091L12.3973 22.503L13.094 23.0091L12.8277 22.1898L13.5248 21.6837H12.6633L12.3973 20.8643Z" fill="#F0F0F0"/>
<path d="M10.0887 17.907L9.82245 18.7264H8.96094L9.65798 19.2326L9.39176 20.052L10.0887 19.5458L10.7855 20.052L10.5192 19.2326L11.2163 18.7264H10.3548L10.0887 17.907Z" fill="#F0F0F0"/>
<path d="M13.7333 17.907L13.4669 18.7264H12.6055L13.3024 19.2326L13.0362 20.052L13.7333 19.5458L14.43 20.052L14.1636 19.2326L14.8607 18.7264H13.9992L13.7333 17.907Z" fill="#F0F0F0"/>
</g>
<defs>
<clipPath id="clip0_676_115446">
<rect width="32" height="32" rx="6" fill="white"/>
</clipPath>
</defs>
</svg>
