<svg width="32" height="32" viewBox="0 0 32 32" fill="none" xmlns="http://www.w3.org/2000/svg">
<g clip-path="url(#clip0_676_115457)">
<path d="M41.332 16H-6.66797V32H41.332V16Z" fill="#012169"/>
<path d="M29.5173 22.887L29.9113 24.0999H31.1868L30.1549 24.8496L30.5492 26.0625L29.5173 25.3129L28.4853 26.0625L28.8795 24.8496L27.8477 24.0999H29.1231L29.5173 22.887Z" fill="#D80027"/>
<path fill-rule="evenodd" clip-rule="evenodd" d="M29.9113 24.0999L29.5173 22.887L29.1231 24.0999H27.8477L28.8795 24.8496L28.4853 26.0625L29.5173 25.3129L30.5492 26.0625L30.1549 24.8496L31.1868 24.0999H29.9113ZM30.3661 24.3666H29.7176L29.5173 23.7499L29.3168 24.3666H28.6684L29.193 24.7478L28.9925 25.3645L29.5173 24.9833L30.0419 25.3644L29.8414 24.7478L30.3661 24.3666Z" fill="white"/>
<path d="M20.7511 25.3333L21.2437 26.8494H22.838L21.5482 27.7865L22.0409 29.3027L20.7511 28.3657L19.4611 29.3027L19.9539 27.7865L18.6641 26.8494H20.2584L20.7511 25.3333Z" fill="#D80027"/>
<path fill-rule="evenodd" clip-rule="evenodd" d="M21.2437 26.8494L20.7511 25.3333L20.2584 26.8494H18.6641L19.9539 27.7865L19.4611 29.3027L20.7511 28.3657L22.0409 29.3027L21.5482 27.7865L22.838 26.8494H21.2437ZM22.0173 27.1161H21.0499L20.7511 26.1962L20.4521 27.1161H19.4848L20.2674 27.6847L19.9684 28.6047L20.7512 28.0361L21.5336 28.6046L21.2347 27.6847L22.0173 27.1161Z" fill="white"/>
<path d="M24.4269 19.3391L24.9195 20.8553H26.5138L25.224 21.7924L25.7167 23.3086L24.4269 22.3716L23.1369 23.3086L23.6296 21.7924L22.3398 20.8553H23.9342L24.4269 19.3391Z" fill="#D80027"/>
<path fill-rule="evenodd" clip-rule="evenodd" d="M24.9195 20.8553L24.4269 19.3391L23.9342 20.8553H22.3398L23.6296 21.7924L23.1369 23.3086L24.4269 22.3716L25.7167 23.3086L25.224 21.7924L26.5138 20.8553H24.9195ZM25.6931 21.122H24.7257L24.4269 20.202L24.1279 21.122H23.1605L23.9431 21.6906L23.6441 22.6106L24.4269 22.042L25.2094 22.6104L24.9105 21.6906L25.6931 21.122Z" fill="white"/>
<path d="M15.5049 16.0012V18.1493L11.0771 19.914H15.5049V24.0874H10.306L15.5049 26.396V28.0002H13.2116L6.37484 24.7124V28.0002H2.46205V24.5852L-5.77196 28.0002H-6.66797V25.8521L-2.44888 24.0874H-6.66797V19.914H-1.46906L-6.66797 17.6047V16.0012H-4.79214L2.46205 18.8717V16.0012H6.37484V19.4163L14.6089 16.0012H15.5049Z" fill="#F0F0F0"/>
<path d="M5.54338 16H3.29351V20.8746H-6.66797V23.1245H3.29351V27.9992H5.54338V23.1245H15.5049V20.8746H5.54338V16Z" fill="#D80027"/>
<path d="M7.31641 24.1392L15.4555 27.8957V26.8334L9.49565 24.1392H7.31641Z" fill="#D80027"/>
<path d="M-0.0820918 24.1394L-6.66797 26.8337V27.8959L2.09725 24.1394H-0.0820918Z" fill="#D80027"/>
<path d="M1.67986 19.9652L-6.66797 16V17.1213L-0.290696 19.9652H1.67986Z" fill="#D80027"/>
<path d="M8.44887 19.9652L15.4521 17.1213V16L6.26953 19.9652H8.44887Z" fill="#D80027"/>
<g clip-path="url(#clip1_676_115457)">
<rect x="5.54297" y="5.33325" width="20.2412" height="36.4341" fill="white"/>
<path d="M6.44385 5.33325H-12V42.2221H6.44385V5.33325Z" fill="#FF0000"/>
<path d="M43.3345 5.33325L24.8906 5.33325L24.8906 42.2221L43.3345 42.2221L43.3345 5.33325Z" fill="#FF0000"/>
<path d="M19.1249 26.3401L22.5832 24.6109L20.854 23.7465V22.0173L17.3957 23.7465L19.1249 20.2882H17.3957L15.6666 17.6943L13.9374 20.2882H12.2083L13.9374 23.7465L10.4791 22.0173V23.7465L8.75 24.6109L12.2083 26.3401L11.3438 28.0692H14.8021V30.6631H16.5313V28.0692H19.9896L19.1249 26.3401Z" fill="#FF0000"/>
</g>
<path d="M33.3333 0H0V16H33.3333V0Z" fill="#F0F0F0"/>
<path d="M33.3333 2.66675H0V5.33341H33.3333V2.66675Z" fill="#D80027"/>
<path d="M33.3333 8H0V10.6667H33.3333V8Z" fill="#D80027"/>
<path d="M33.3333 13.3335H0V16.0002H33.3333V13.3335Z" fill="#D80027"/>
<path d="M16 0H0V12H16V0Z" fill="#3C3B6E"/>
<path d="M5.11614 4.86426L4.84979 5.68365H3.98828L4.68538 6.1898L4.41904 7.00912L5.11614 6.50298L5.81279 7.00912L5.54651 6.1898L6.24361 5.68365H5.38204L5.11614 4.86426Z" fill="#F0F0F0"/>
<path d="M6.71407 8.64013L6.44817 7.8208L6.18182 8.64013H5.32031L6.01742 9.14634L5.75107 9.96567L6.44817 9.45946L7.14482 9.96567L6.87854 9.14634L7.57564 8.64013H6.71407Z" fill="#F0F0F0"/>
<path d="M3.07351 8.64013L2.80755 7.8208L2.5412 8.64013H1.67969L2.37679 9.14634L2.11044 9.96567L2.80755 9.45946L3.50426 9.96567L3.23798 9.14634L3.93495 8.64013H3.07351Z" fill="#F0F0F0"/>
<path d="M1.47552 4.86426L1.20917 5.68365H0.347656L1.04476 6.1898L0.778412 7.00912L1.47552 6.50298L2.17223 7.00912L1.90595 6.1898L2.60292 5.68365H1.74148L1.47552 4.86426Z" fill="#F0F0F0"/>
<path d="M6.44817 1.90698L6.18182 2.72644H5.32031L6.01742 3.23265L5.75107 4.05198L6.44817 3.54577L7.14482 4.05198L6.87854 3.23265L7.57564 2.72644H6.71407L6.44817 1.90698Z" fill="#F0F0F0"/>
<path d="M2.80755 1.90698L2.5412 2.72644H1.67969L2.37679 3.23265L2.11044 4.05198L2.80755 3.54577L3.50426 4.05198L3.23798 3.23265L3.93495 2.72644H3.07351L2.80755 1.90698Z" fill="#F0F0F0"/>
<path d="M8.7567 4.86426L8.49042 5.68365H7.62891L8.32594 6.1898L8.05973 7.00912L8.7567 6.50298L9.45348 7.00912L9.18713 6.1898L9.88424 5.68365H9.02272L8.7567 4.86426Z" fill="#F0F0F0"/>
<path d="M10.3548 8.64013L10.0887 7.8208L9.82245 8.64013H8.96094L9.65798 9.14634L9.39176 9.96567L10.0887 9.45946L10.7855 9.96567L10.5192 9.14634L11.2163 8.64013H10.3548Z" fill="#F0F0F0"/>
<path d="M13.9992 8.64013L13.7333 7.8208L13.4669 8.64013H12.6055L13.3024 9.14634L13.0362 9.96567L13.7333 9.45946L14.43 9.96567L14.1636 9.14634L14.8607 8.64013H13.9992Z" fill="#F0F0F0"/>
<path d="M12.3973 4.86426L12.131 5.68365H11.2695L11.9665 6.1898L11.7002 7.00912L12.3973 6.50298L13.094 7.00912L12.8277 6.1898L13.5248 5.68365H12.6633L12.3973 4.86426Z" fill="#F0F0F0"/>
<path d="M10.0887 1.90698L9.82245 2.72644H8.96094L9.65798 3.23265L9.39176 4.05198L10.0887 3.54577L10.7855 4.05198L10.5192 3.23265L11.2163 2.72644H10.3548L10.0887 1.90698Z" fill="#F0F0F0"/>
<path d="M13.7333 1.90698L13.4669 2.72644H12.6055L13.3024 3.23265L13.0362 4.05198L13.7333 3.54577L14.43 4.05198L14.1636 3.23265L14.8607 2.72644H13.9992L13.7333 1.90698Z" fill="#F0F0F0"/>
</g>
<defs>
<clipPath id="clip0_676_115457">
<rect width="32" height="32" rx="6" fill="white"/>
</clipPath>
<clipPath id="clip1_676_115457">
<rect x="32" y="16" width="16" height="32" transform="rotate(90 32 16)" fill="white"/>
</clipPath>
</defs>
</svg>
