<svg width="32" height="32" viewBox="0 0 32 32" fill="none" xmlns="http://www.w3.org/2000/svg">
<g clip-path="url(#clip0_676_115479)">
<path d="M33.3333 0H0V16H33.3333V0Z" fill="#F0F0F0"/>
<path d="M33.3333 2.66675H0V5.33341H33.3333V2.66675Z" fill="#D80027"/>
<path d="M33.3333 8H0V10.6667H33.3333V8Z" fill="#D80027"/>
<path d="M33.3333 13.3335H0V16.0002H33.3333V13.3335Z" fill="#D80027"/>
<path d="M16 0H0V12H16V0Z" fill="#3C3B6E"/>
<path d="M5.11614 4.86426L4.84979 5.68365H3.98828L4.68538 6.1898L4.41904 7.00912L5.11614 6.50298L5.81279 7.00912L5.54651 6.1898L6.24361 5.68365H5.38204L5.11614 4.86426Z" fill="#F0F0F0"/>
<path d="M6.71407 8.64013L6.44817 7.8208L6.18182 8.64013H5.32031L6.01742 9.14634L5.75107 9.96567L6.44817 9.45946L7.14482 9.96567L6.87854 9.14634L7.57564 8.64013H6.71407Z" fill="#F0F0F0"/>
<path d="M3.07351 8.64013L2.80755 7.8208L2.5412 8.64013H1.67969L2.37679 9.14634L2.11044 9.96567L2.80755 9.45946L3.50426 9.96567L3.23798 9.14634L3.93495 8.64013H3.07351Z" fill="#F0F0F0"/>
<path d="M1.47552 4.86426L1.20917 5.68365H0.347656L1.04476 6.1898L0.778412 7.00912L1.47552 6.50298L2.17223 7.00912L1.90595 6.1898L2.60292 5.68365H1.74148L1.47552 4.86426Z" fill="#F0F0F0"/>
<path d="M6.44817 1.90698L6.18182 2.72644H5.32031L6.01742 3.23265L5.75107 4.05198L6.44817 3.54577L7.14482 4.05198L6.87854 3.23265L7.57564 2.72644H6.71407L6.44817 1.90698Z" fill="#F0F0F0"/>
<path d="M2.80755 1.90698L2.5412 2.72644H1.67969L2.37679 3.23265L2.11044 4.05198L2.80755 3.54577L3.50426 4.05198L3.23798 3.23265L3.93495 2.72644H3.07351L2.80755 1.90698Z" fill="#F0F0F0"/>
<path d="M8.7567 4.86426L8.49042 5.68365H7.62891L8.32594 6.1898L8.05973 7.00912L8.7567 6.50298L9.45348 7.00912L9.18713 6.1898L9.88424 5.68365H9.02272L8.7567 4.86426Z" fill="#F0F0F0"/>
<path d="M10.3548 8.64013L10.0887 7.8208L9.82245 8.64013H8.96094L9.65798 9.14634L9.39176 9.96567L10.0887 9.45946L10.7855 9.96567L10.5192 9.14634L11.2163 8.64013H10.3548Z" fill="#F0F0F0"/>
<path d="M13.9992 8.64013L13.7333 7.8208L13.4669 8.64013H12.6055L13.3024 9.14634L13.0362 9.96567L13.7333 9.45946L14.43 9.96567L14.1636 9.14634L14.8607 8.64013H13.9992Z" fill="#F0F0F0"/>
<path d="M12.3973 4.86426L12.131 5.68365H11.2695L11.9665 6.1898L11.7002 7.00912L12.3973 6.50298L13.094 7.00912L12.8277 6.1898L13.5248 5.68365H12.6633L12.3973 4.86426Z" fill="#F0F0F0"/>
<path d="M10.0887 1.90698L9.82245 2.72644H8.96094L9.65798 3.23265L9.39176 4.05198L10.0887 3.54577L10.7855 4.05198L10.5192 3.23265L11.2163 2.72644H10.3548L10.0887 1.90698Z" fill="#F0F0F0"/>
<path d="M13.7333 1.90698L13.4669 2.72644H12.6055L13.3024 3.23265L13.0362 4.05198L13.7333 3.54577L14.43 4.05198L14.1636 3.23265L14.8607 2.72644H13.9992L13.7333 1.90698Z" fill="#F0F0F0"/>
<rect y="16" width="32" height="16" fill="white"/>
<ellipse cx="16.0013" cy="24.0001" rx="5.33333" ry="5.33333" fill="#BC002D"/>
</g>
<rect x="0.5" y="0.5" width="31" height="31" rx="5.5" stroke="#E3E7ED"/>
<defs>
<clipPath id="clip0_676_115479">
<rect width="32" height="32" rx="6" fill="white"/>
</clipPath>
</defs>
</svg>
