<svg width="148" height="44" viewBox="0 0 148 44" fill="none" xmlns="http://www.w3.org/2000/svg">
<g clip-path="url(#clip0_1702_11943)">
<path fill-rule="evenodd" clip-rule="evenodd" d="M16.4225 33.0741L16.4266 33.0626C16.0224 32.7492 15.6338 32.4125 15.2629 32.0533C12.6003 29.4743 11.0701 25.9477 11.0023 22.2476C10.9346 18.5475 12.3347 14.9691 14.901 12.2977C17.4679 9.62572 20.9927 8.07915 24.7039 8.00295C28.415 7.92676 32.0023 9.32732 34.6801 11.8918C37.2984 14.3994 38.8386 17.8194 38.988 21.4295L38.9887 21.4295C38.9961 21.6143 38.9999 21.7991 39 21.9839C39.0007 22.3934 38.9835 22.8012 38.9487 23.2062L38.9606 23.2105L38.9447 23.2519C38.661 26.4356 37.2933 29.4442 35.0441 31.7591C32.462 34.4166 28.9285 35.9432 25.2169 35.9984C22.0349 36.0458 18.9502 35.0082 16.4565 33.0857L16.4225 33.0741ZM32.9241 12.107C31.6797 11.1046 30.2652 10.3531 28.7591 9.88245C28.3448 10.7243 27.8198 11.5236 27.2069 12.2615C28.4659 13.2118 29.5728 14.3487 30.518 15.6139C31.4778 14.5655 32.2939 13.3916 32.9241 12.107ZM27.4339 9.54579C26.5508 9.37168 25.6453 9.29124 24.7321 9.30999C23.7545 9.33007 22.7906 9.46335 21.8579 9.70235C23.4056 10.0844 24.8255 10.7023 26.1091 11.5054C26.6251 10.8933 27.0722 10.2352 27.4339 9.54579ZM17.7676 11.5777C17.092 12.0488 16.4591 12.5882 15.8796 13.1915C15.3208 13.7731 14.8227 14.4026 14.3893 15.0701C15.0833 15.3568 15.798 15.5405 16.5208 15.6309C16.772 14.2328 17.1855 12.8682 17.7676 11.5777ZM13.7279 16.2156C13.0148 17.6139 12.5636 19.1395 12.4048 20.7157C13.6971 21.0924 15.0314 21.3029 16.3741 21.359C16.1925 19.889 16.1773 18.3963 16.3353 16.9264C15.4551 16.8151 14.58 16.5837 13.7279 16.2156ZM12.341 22.0583C12.3413 22.1136 12.3419 22.1689 12.3429 22.2243C12.3744 23.942 12.7525 25.617 13.4359 27.1559C15.0155 27.5105 16.6503 27.6795 18.291 27.6703C17.7881 26.686 17.3755 25.6535 17.0554 24.5931C16.8653 23.9631 16.7072 23.3219 16.582 22.6735C15.1504 22.634 13.7251 22.4328 12.341 22.0583ZM14.2183 28.6441C14.7706 29.5445 15.4371 30.3793 16.2078 31.1258C16.4981 31.4069 16.8002 31.6727 17.113 31.9227C18.7531 32.4542 20.4751 32.6999 22.2003 32.6866C20.9472 31.614 19.8847 30.3495 19.0192 28.9591C17.4022 29.0172 15.7877 28.9137 14.2183 28.6441ZM37.6592 21.9866C37.6593 22.3127 37.6469 22.6387 37.622 22.9637C36.9095 24.7358 35.8305 26.3095 34.4953 27.6474C34.4806 26.0777 34.2822 24.4938 33.9104 22.9492C35.2138 21.6866 36.3294 20.2329 37.1929 18.595C37.4726 19.5996 37.6301 20.6432 37.6556 21.7039L37.6559 21.7039C37.657 21.7518 37.6578 21.7997 37.6584 21.8475C37.659 21.8939 37.6591 21.9403 37.6592 21.9866ZM32.7651 23.9711C33.0926 25.5938 33.2172 27.2496 33.1266 28.8675C32.1583 29.6361 31.0966 30.2998 29.9719 30.8483L28.0984 26.8523C29.7811 26.0904 31.3583 25.1276 32.7651 23.9711ZM32.9367 30.647C32.1732 31.1681 31.3674 31.633 30.5299 32.0385L31.0521 33.1523C31.6006 32.8534 32.1279 32.5133 32.6293 32.1339C32.7543 31.6463 32.8566 31.1499 32.9367 30.647ZM26.8657 27.3675L28.751 31.3888C27.2937 31.9708 25.7546 32.3669 24.1931 32.5572C22.7492 31.5587 21.5272 30.2965 20.5408 28.8569C22.7032 28.6439 24.8458 28.1437 26.8657 27.3675ZM29.3088 32.5785C28.2275 33.013 27.1045 33.3521 25.9606 33.5892C26.5797 33.8896 27.2308 34.1462 27.913 34.3541C28.5748 34.1976 29.2218 33.9882 29.8479 33.7284L29.3088 32.5785ZM25.2219 34.6909C24.7439 34.4528 24.2842 34.1913 23.8429 33.9082C22.8053 34.0063 21.7609 34.0198 20.7248 33.9439C22.1457 34.4561 23.6592 34.7141 25.1965 34.6913L25.2219 34.6909ZM36.3927 27.5416C35.7949 28.2518 35.1352 28.9103 34.4247 29.5136C34.3927 29.8853 34.3499 30.255 34.2961 30.6219C35.1492 29.6972 35.8532 28.6578 36.3927 27.5416ZM36.556 16.8259C35.9307 15.4237 35.0519 14.1353 33.9513 13.0311C33.2404 14.3905 32.3387 15.6287 31.2899 16.7308C31.5095 17.0747 31.7182 17.426 31.9158 17.7837C32.5611 18.952 33.0909 20.1931 33.4989 21.4747C34.7697 20.1284 35.815 18.5747 36.556 16.8259ZM24.7561 19.7236L22.8707 15.7021C24.1338 15.0679 25.3039 14.2271 26.3093 13.2376C27.554 14.163 28.6449 15.2925 29.5697 16.5667C28.166 17.8653 26.5275 18.9296 24.7561 19.7236ZM24.0764 21.4183L26.3077 26.1774C24.2294 26.9708 22.0088 27.4561 19.7714 27.6139C19.1774 26.5485 18.6993 25.4088 18.3417 24.224C18.1866 23.7101 18.0545 23.1888 17.9456 22.6626C20.0355 22.5721 22.1153 22.1452 24.0764 21.4183ZM30.7353 18.4036C31.4508 19.699 32.0142 21.0897 32.4167 22.5243C30.9809 23.8003 29.3265 24.8509 27.5406 25.6626L25.3137 20.9128C27.1429 20.0938 28.8415 19.0055 30.3136 17.6801C30.4594 17.9174 30.6 18.1587 30.7353 18.4036ZM23.5178 20.2268L21.6482 16.2392C20.3782 16.72 19.0317 16.9953 17.675 17.0051C17.5151 18.4462 17.5336 19.9157 17.7256 21.3638C19.6982 21.2962 21.6644 20.9048 23.5178 20.2268ZM20.5573 10.768C22.2528 11.0565 23.7999 11.6505 25.1848 12.4835C24.3353 13.2876 23.3611 13.9784 22.3125 14.5117L20.5573 10.768ZM21.0898 15.0481C20.0444 15.436 18.9577 15.662 17.8717 15.694C18.1596 14.1773 18.6532 12.7107 19.3584 11.3552L21.0898 15.0481Z" fill="white"/>
<path d="M52.3777 17H51.5677V11.285H49.5607V10.574H54.3757V11.285H52.3777V17ZM57.0384 12.086C57.1284 12.086 57.2244 12.092 57.3264 12.104C57.4344 12.11 57.5274 12.122 57.6054 12.14L57.5064 12.869C57.4284 12.851 57.3414 12.836 57.2454 12.824C57.1554 12.812 57.0684 12.806 56.9844 12.806C56.7984 12.806 56.6214 12.845 56.4534 12.923C56.2854 13.001 56.1354 13.112 56.0034 13.256C55.8714 13.394 55.7664 13.562 55.6884 13.76C55.6164 13.958 55.5804 14.18 55.5804 14.426V17H54.7884V12.176H55.4364L55.5264 13.058H55.5624C55.6644 12.878 55.7874 12.716 55.9314 12.572C56.0754 12.422 56.2404 12.305 56.4264 12.221C56.6124 12.131 56.8164 12.086 57.0384 12.086ZM60.1574 12.095C60.7454 12.095 61.1804 12.224 61.4624 12.482C61.7444 12.74 61.8854 13.151 61.8854 13.715V17H61.3094L61.1564 16.316H61.1204C60.9824 16.49 60.8384 16.637 60.6884 16.757C60.5444 16.871 60.3764 16.955 60.1844 17.009C59.9984 17.063 59.7704 17.09 59.5004 17.09C59.2124 17.09 58.9514 17.039 58.7174 16.937C58.4894 16.835 58.3094 16.679 58.1774 16.469C58.0454 16.253 57.9794 15.983 57.9794 15.659C57.9794 15.179 58.1684 14.81 58.5464 14.552C58.9244 14.288 59.5064 14.144 60.2924 14.12L61.1114 14.093V13.805C61.1114 13.403 61.0244 13.124 60.8504 12.968C60.6764 12.812 60.4304 12.734 60.1124 12.734C59.8604 12.734 59.6204 12.773 59.3924 12.851C59.1644 12.923 58.9514 13.007 58.7534 13.103L58.5104 12.509C58.7204 12.395 58.9694 12.299 59.2574 12.221C59.5454 12.137 59.8454 12.095 60.1574 12.095ZM60.3914 14.669C59.7914 14.693 59.3744 14.789 59.1404 14.957C58.9124 15.125 58.7984 15.362 58.7984 15.668C58.7984 15.938 58.8794 16.136 59.0414 16.262C59.2094 16.388 59.4224 16.451 59.6804 16.451C60.0884 16.451 60.4274 16.34 60.6974 16.118C60.9674 15.89 61.1024 15.542 61.1024 15.074V14.642L60.3914 14.669ZM65.0854 17.09C64.4854 17.09 64.0054 16.883 63.6454 16.469C63.2854 16.049 63.1054 15.425 63.1054 14.597C63.1054 13.769 63.2854 13.145 63.6454 12.725C64.0114 12.299 64.4944 12.086 65.0944 12.086C65.3464 12.086 65.5654 12.119 65.7514 12.185C65.9374 12.245 66.0994 12.329 66.2374 12.437C66.3754 12.545 66.4924 12.665 66.5884 12.797H66.6424C66.6364 12.719 66.6244 12.605 66.6064 12.455C66.5944 12.299 66.5884 12.176 66.5884 12.086V10.16H67.3804V17H66.7414L66.6244 16.352H66.5884C66.4924 16.49 66.3754 16.616 66.2374 16.73C66.0994 16.838 65.9344 16.925 65.7424 16.991C65.5564 17.057 65.3374 17.09 65.0854 17.09ZM65.2114 16.433C65.7214 16.433 66.0784 16.295 66.2824 16.019C66.4924 15.737 66.5974 15.314 66.5974 14.75V14.606C66.5974 14.006 66.4984 13.547 66.3004 13.229C66.1024 12.905 65.7364 12.743 65.2024 12.743C64.7764 12.743 64.4554 12.914 64.2394 13.256C64.0294 13.592 63.9244 14.045 63.9244 14.615C63.9244 15.191 64.0294 15.638 64.2394 15.956C64.4554 16.274 64.7794 16.433 65.2114 16.433ZM70.7755 12.086C71.1895 12.086 71.5435 12.176 71.8375 12.356C72.1375 12.536 72.3655 12.791 72.5215 13.121C72.6835 13.445 72.7645 13.826 72.7645 14.264V14.741H69.4615C69.4735 15.287 69.6115 15.704 69.8755 15.992C70.1455 16.274 70.5205 16.415 71.0005 16.415C71.3065 16.415 71.5765 16.388 71.8105 16.334C72.0505 16.274 72.2965 16.19 72.5485 16.082V16.775C72.3025 16.883 72.0595 16.961 71.8195 17.009C71.5795 17.063 71.2945 17.09 70.9645 17.09C70.5085 17.09 70.1035 16.997 69.7495 16.811C69.4015 16.625 69.1285 16.349 68.9305 15.983C68.7385 15.611 68.6425 15.158 68.6425 14.624C68.6425 14.096 68.7295 13.643 68.9035 13.265C69.0835 12.887 69.3325 12.596 69.6505 12.392C69.9745 12.188 70.3495 12.086 70.7755 12.086ZM70.7665 12.734C70.3885 12.734 70.0885 12.857 69.8665 13.103C69.6505 13.343 69.5215 13.679 69.4795 14.111H71.9365C71.9365 13.835 71.8945 13.595 71.8105 13.391C71.7265 13.187 71.5975 13.028 71.4235 12.914C71.2555 12.794 71.0365 12.734 70.7665 12.734ZM78.0404 17.09C77.4404 17.09 76.9604 16.883 76.6004 16.469C76.2404 16.049 76.0604 15.425 76.0604 14.597C76.0604 13.769 76.2404 13.145 76.6004 12.725C76.9664 12.299 77.4494 12.086 78.0494 12.086C78.3014 12.086 78.5204 12.119 78.7064 12.185C78.8924 12.245 79.0544 12.329 79.1924 12.437C79.3304 12.545 79.4474 12.665 79.5434 12.797H79.5974C79.5914 12.719 79.5794 12.605 79.5614 12.455C79.5494 12.299 79.5434 12.176 79.5434 12.086V10.16H80.3354V17H79.6964L79.5794 16.352H79.5434C79.4474 16.49 79.3304 16.616 79.1924 16.73C79.0544 16.838 78.8894 16.925 78.6974 16.991C78.5114 17.057 78.2924 17.09 78.0404 17.09ZM78.1664 16.433C78.6764 16.433 79.0334 16.295 79.2374 16.019C79.4474 15.737 79.5524 15.314 79.5524 14.75V14.606C79.5524 14.006 79.4534 13.547 79.2554 13.229C79.0574 12.905 78.6914 12.743 78.1574 12.743C77.7314 12.743 77.4104 12.914 77.1944 13.256C76.9844 13.592 76.8794 14.045 76.8794 14.615C76.8794 15.191 76.9844 15.638 77.1944 15.956C77.4104 16.274 77.7344 16.433 78.1664 16.433ZM82.6595 12.176V17H81.8675V12.176H82.6595ZM82.2725 10.367C82.3925 10.367 82.4975 10.409 82.5875 10.493C82.6835 10.571 82.7315 10.697 82.7315 10.871C82.7315 11.039 82.6835 11.165 82.5875 11.249C82.4975 11.333 82.3925 11.375 82.2725 11.375C82.1405 11.375 82.0295 11.333 81.9395 11.249C81.8495 11.165 81.8045 11.039 81.8045 10.871C81.8045 10.697 81.8495 10.571 81.9395 10.493C82.0295 10.409 82.1405 10.367 82.2725 10.367ZM86.4379 12.086C86.5279 12.086 86.6239 12.092 86.7259 12.104C86.8339 12.11 86.9269 12.122 87.0049 12.14L86.9059 12.869C86.8279 12.851 86.7409 12.836 86.6449 12.824C86.5549 12.812 86.4679 12.806 86.3839 12.806C86.1979 12.806 86.0209 12.845 85.8529 12.923C85.6849 13.001 85.5349 13.112 85.4029 13.256C85.2709 13.394 85.1659 13.562 85.0879 13.76C85.0159 13.958 84.9799 14.18 84.9799 14.426V17H84.1879V12.176H84.8359L84.9259 13.058H84.9619C85.0639 12.878 85.1869 12.716 85.3309 12.572C85.4749 12.422 85.6399 12.305 85.8259 12.221C86.0119 12.131 86.2159 12.086 86.4379 12.086ZM89.5928 12.086C90.0068 12.086 90.3608 12.176 90.6548 12.356C90.9548 12.536 91.1828 12.791 91.3388 13.121C91.5008 13.445 91.5818 13.826 91.5818 14.264V14.741H88.2788C88.2908 15.287 88.4288 15.704 88.6928 15.992C88.9628 16.274 89.3378 16.415 89.8178 16.415C90.1238 16.415 90.3938 16.388 90.6278 16.334C90.8678 16.274 91.1138 16.19 91.3658 16.082V16.775C91.1198 16.883 90.8768 16.961 90.6368 17.009C90.3968 17.063 90.1118 17.09 89.7818 17.09C89.3258 17.09 88.9208 16.997 88.5668 16.811C88.2188 16.625 87.9458 16.349 87.7478 15.983C87.5558 15.611 87.4598 15.158 87.4598 14.624C87.4598 14.096 87.5468 13.643 87.7208 13.265C87.9008 12.887 88.1498 12.596 88.4678 12.392C88.7918 12.188 89.1668 12.086 89.5928 12.086ZM89.5838 12.734C89.2058 12.734 88.9058 12.857 88.6838 13.103C88.4678 13.343 88.3388 13.679 88.2968 14.111H90.7538C90.7538 13.835 90.7118 13.595 90.6278 13.391C90.5438 13.187 90.4148 13.028 90.2408 12.914C90.0728 12.794 89.8538 12.734 89.5838 12.734ZM94.7449 17.09C94.3189 17.09 93.9379 17.003 93.6019 16.829C93.2719 16.655 93.0109 16.385 92.8189 16.019C92.6329 15.653 92.5399 15.185 92.5399 14.615C92.5399 14.021 92.6389 13.538 92.8369 13.166C93.0349 12.794 93.3019 12.521 93.6379 12.347C93.9799 12.173 94.3669 12.086 94.7989 12.086C95.0449 12.086 95.2819 12.113 95.5099 12.167C95.7379 12.215 95.9239 12.275 96.0679 12.347L95.8249 13.004C95.6809 12.95 95.5129 12.899 95.3209 12.851C95.1289 12.803 94.9489 12.779 94.7809 12.779C94.4569 12.779 94.1899 12.848 93.9799 12.986C93.7699 13.124 93.6139 13.328 93.5119 13.598C93.4099 13.868 93.3589 14.204 93.3589 14.606C93.3589 14.99 93.4099 15.317 93.5119 15.587C93.6139 15.857 93.7669 16.061 93.9709 16.199C94.1749 16.337 94.4299 16.406 94.7359 16.406C94.9999 16.406 95.2309 16.379 95.4289 16.325C95.6329 16.271 95.8189 16.205 95.9869 16.127V16.829C95.8249 16.913 95.6449 16.976 95.4469 17.018C95.2549 17.066 95.0209 17.09 94.7449 17.09ZM98.7451 16.442C98.8651 16.442 98.9881 16.433 99.1141 16.415C99.2401 16.391 99.3421 16.367 99.4201 16.343V16.946C99.3361 16.988 99.2161 17.021 99.0601 17.045C98.9041 17.075 98.7541 17.09 98.6101 17.09C98.3581 17.09 98.1241 17.048 97.9081 16.964C97.6981 16.874 97.5271 16.721 97.3951 16.505C97.2631 16.289 97.1971 15.986 97.1971 15.596V12.788H96.5131V12.41L97.2061 12.095L97.5211 11.069H97.9891V12.176H99.3841V12.788H97.9891V15.578C97.9891 15.872 98.0581 16.091 98.1961 16.235C98.3401 16.373 98.5231 16.442 98.7451 16.442ZM101.178 17H100.386V10.16H101.178V17ZM101.95 12.176H102.796L103.84 14.921C103.9 15.083 103.954 15.239 104.002 15.389C104.056 15.539 104.104 15.686 104.146 15.83C104.188 15.968 104.221 16.103 104.245 16.235H104.281C104.317 16.085 104.374 15.89 104.452 15.65C104.53 15.404 104.611 15.158 104.695 14.912L105.676 12.176H106.531L104.452 17.666C104.338 17.966 104.203 18.227 104.047 18.449C103.897 18.677 103.711 18.851 103.489 18.971C103.273 19.097 103.009 19.16 102.697 19.16C102.553 19.16 102.427 19.151 102.319 19.133C102.211 19.121 102.118 19.106 102.04 19.088V18.458C102.106 18.47 102.184 18.482 102.274 18.494C102.37 18.506 102.469 18.512 102.571 18.512C102.757 18.512 102.916 18.476 103.048 18.404C103.186 18.338 103.303 18.239 103.399 18.107C103.495 17.981 103.576 17.831 103.642 17.657L103.894 17.018L101.95 12.176Z" fill="white"/>
<path d="M52.5747 25.786V35H50.4327V25.786H52.5747ZM51.5037 22.233C51.821 22.233 52.0987 22.318 52.3367 22.488C52.5747 22.6467 52.6937 22.9357 52.6937 23.355C52.6937 23.763 52.5747 24.0577 52.3367 24.239C52.0987 24.409 51.821 24.494 51.5037 24.494C51.175 24.494 50.8917 24.409 50.6537 24.239C50.427 24.0577 50.3137 23.763 50.3137 23.355C50.3137 22.9357 50.427 22.6467 50.6537 22.488C50.8917 22.318 51.175 22.233 51.5037 22.233ZM60.2435 25.616C61.2749 25.616 62.0795 25.8823 62.6575 26.415C63.2469 26.9477 63.5415 27.809 63.5415 28.999V35H61.3995V29.424C61.3995 28.7327 61.2635 28.217 60.9915 27.877C60.7195 27.5257 60.2889 27.35 59.6995 27.35C58.8382 27.35 58.2489 27.622 57.9315 28.166C57.6142 28.6987 57.4555 29.475 57.4555 30.495V35H55.3135V25.786H56.9625L57.2685 26.993H57.3875C57.5915 26.6757 57.8409 26.415 58.1355 26.211C58.4302 26.007 58.7589 25.8597 59.1215 25.769C59.4842 25.667 59.8582 25.616 60.2435 25.616ZM72.7788 25.14C72.7788 25.5027 72.7674 25.854 72.7448 26.194C72.7221 26.534 72.6994 26.8003 72.6768 26.993H72.7788C73.0281 26.6077 73.3681 26.2847 73.7988 26.024C74.2294 25.752 74.7904 25.616 75.4818 25.616C76.5584 25.616 77.4254 26.0183 78.0828 26.823C78.7401 27.6277 79.0688 28.812 79.0688 30.376C79.0688 31.43 78.9158 32.314 78.6098 33.028C78.3151 33.742 77.8901 34.2803 77.3348 34.643C76.7908 34.9943 76.1561 35.17 75.4308 35.17C74.7394 35.17 74.1841 35.0453 73.7648 34.796C73.3568 34.5467 73.0281 34.2577 72.7788 33.929H72.6258L72.2348 35H70.6368V22.08H72.7788V25.14ZM74.8698 27.35C74.3484 27.35 73.9348 27.452 73.6288 27.656C73.3341 27.86 73.1188 28.1717 72.9828 28.591C72.8468 29.0103 72.7788 29.543 72.7788 30.189V30.376C72.7788 31.362 72.9261 32.1157 73.2208 32.637C73.5268 33.1583 74.0878 33.419 74.9038 33.419C75.5384 33.419 76.0258 33.1583 76.3658 32.637C76.7058 32.1043 76.8758 31.345 76.8758 30.359C76.8758 29.3617 76.7001 28.6137 76.3488 28.115C76.0088 27.605 75.5158 27.35 74.8698 27.35ZM86.1064 25.616C86.2424 25.616 86.401 25.6217 86.5824 25.633C86.7637 25.6443 86.9167 25.667 87.0414 25.701L86.8544 27.69C86.7524 27.6673 86.6164 27.6503 86.4464 27.639C86.2877 27.6163 86.146 27.605 86.0214 27.605C85.6814 27.605 85.3527 27.6617 85.0354 27.775C84.7294 27.877 84.4517 28.0357 84.2024 28.251C83.9644 28.455 83.7717 28.7213 83.6244 29.05C83.4884 29.3787 83.4204 29.7697 83.4204 30.223V35H81.2784V25.786H82.9274L83.2334 27.384H83.3354C83.5167 27.0553 83.7434 26.7607 84.0154 26.5C84.2874 26.228 84.599 26.0127 84.9504 25.854C85.313 25.6953 85.6984 25.616 86.1064 25.616ZM96.645 30.376C96.645 31.1467 96.543 31.8267 96.339 32.416C96.135 33.0053 95.8404 33.5097 95.455 33.929C95.081 34.337 94.6164 34.6487 94.061 34.864C93.517 35.068 92.9107 35.17 92.242 35.17C91.6074 35.17 91.0237 35.068 90.491 34.864C89.9584 34.6487 89.4937 34.337 89.097 33.929C88.7117 33.5097 88.4114 33.0053 88.196 32.416C87.9807 31.8267 87.873 31.1467 87.873 30.376C87.873 29.356 88.0487 28.4947 88.4 27.792C88.7514 27.078 89.2557 26.5397 89.913 26.177C90.5817 25.803 91.3694 25.616 92.276 25.616C93.1374 25.616 93.891 25.803 94.537 26.177C95.1944 26.5397 95.71 27.078 96.084 27.792C96.458 28.4947 96.645 29.356 96.645 30.376ZM90.066 30.376C90.066 31.022 90.1397 31.5773 90.287 32.042C90.4457 32.4953 90.6837 32.841 91.001 33.079C91.3297 33.317 91.749 33.436 92.259 33.436C92.7804 33.436 93.1997 33.317 93.517 33.079C93.8457 32.841 94.0837 32.4953 94.231 32.042C94.3784 31.5773 94.452 31.022 94.452 30.376C94.452 29.7187 94.3727 29.169 94.214 28.727C94.0667 28.2737 93.8287 27.9337 93.5 27.707C93.1827 27.469 92.769 27.35 92.259 27.35C91.4884 27.35 90.9274 27.6107 90.576 28.132C90.236 28.6533 90.066 29.4013 90.066 30.376ZM105.055 31.039C104.999 30.8237 104.931 30.5573 104.851 30.24C104.772 29.9113 104.687 29.5713 104.596 29.22C104.517 28.8687 104.438 28.5457 104.358 28.251C104.29 27.9563 104.245 27.7297 104.222 27.571H104.154C104.12 27.7297 104.069 27.9563 104.001 28.251C103.933 28.5457 103.86 28.8687 103.78 29.22C103.701 29.5713 103.616 29.9113 103.525 30.24C103.446 30.5687 103.378 30.8407 103.321 31.056L102.25 35H99.9044L97.3204 25.769H99.4794L100.618 30.172C100.698 30.4667 100.771 30.801 100.839 31.175C100.919 31.549 100.987 31.9117 101.043 32.263C101.1 32.603 101.14 32.8807 101.162 33.096H101.23C101.253 32.9487 101.281 32.756 101.315 32.518C101.349 32.2687 101.389 32.0137 101.434 31.753C101.491 31.481 101.542 31.2317 101.587 31.005C101.644 30.7783 101.689 30.6027 101.723 30.478L103.049 25.769H105.395L106.67 30.478C106.727 30.682 106.789 30.9483 106.857 31.277C106.925 31.6057 106.988 31.9343 107.044 32.263C107.101 32.5917 107.135 32.8637 107.146 33.079H107.214C107.237 32.8863 107.277 32.6257 107.333 32.297C107.39 31.957 107.458 31.5943 107.537 31.209C107.617 30.8237 107.702 30.478 107.792 30.172L108.948 25.769H111.073L108.455 35H106.075L105.055 31.039ZM118.912 32.331C118.912 32.943 118.764 33.4643 118.47 33.895C118.175 34.3143 117.739 34.6317 117.161 34.847C116.594 35.0623 115.897 35.17 115.07 35.17C114.424 35.17 113.868 35.1247 113.404 35.034C112.939 34.9433 112.497 34.8017 112.078 34.609V32.79C112.531 33.0053 113.035 33.1867 113.591 33.334C114.146 33.4813 114.662 33.555 115.138 33.555C115.727 33.555 116.152 33.4643 116.413 33.283C116.673 33.1017 116.804 32.858 116.804 32.552C116.804 32.3707 116.753 32.2063 116.651 32.059C116.549 31.9117 116.35 31.7587 116.056 31.6C115.761 31.43 115.313 31.2203 114.713 30.971C114.123 30.733 113.63 30.495 113.234 30.257C112.848 30.019 112.554 29.7357 112.35 29.407C112.157 29.067 112.061 28.642 112.061 28.132C112.061 27.3047 112.389 26.6813 113.047 26.262C113.704 25.8313 114.571 25.616 115.648 25.616C116.214 25.616 116.747 25.6727 117.246 25.786C117.756 25.888 118.266 26.058 118.776 26.296L118.096 27.877C117.812 27.7523 117.529 27.6447 117.246 27.554C116.974 27.452 116.696 27.3727 116.413 27.316C116.141 27.2593 115.863 27.231 115.58 27.231C115.115 27.231 114.764 27.3047 114.526 27.452C114.288 27.588 114.169 27.7807 114.169 28.03C114.169 28.2227 114.225 28.3927 114.339 28.54C114.463 28.676 114.673 28.8177 114.968 28.965C115.274 29.101 115.704 29.2823 116.26 29.509C116.815 29.7243 117.285 29.951 117.671 30.189C118.067 30.4157 118.373 30.699 118.589 31.039C118.804 31.379 118.912 31.8097 118.912 32.331ZM124.679 25.616C125.506 25.616 126.214 25.786 126.804 26.126C127.404 26.4547 127.869 26.9307 128.198 27.554C128.526 28.166 128.691 28.914 128.691 29.798V30.886H122.605C122.627 31.7247 122.86 32.3763 123.302 32.841C123.744 33.2943 124.356 33.521 125.138 33.521C125.738 33.521 126.271 33.4643 126.736 33.351C127.212 33.2263 127.699 33.0507 128.198 32.824V34.541C127.744 34.7563 127.274 34.915 126.787 35.017C126.299 35.119 125.716 35.17 125.036 35.17C124.14 35.17 123.341 35 122.639 34.66C121.947 34.3087 121.403 33.7817 121.007 33.079C120.621 32.3763 120.429 31.5037 120.429 30.461C120.429 29.407 120.604 28.523 120.956 27.809C121.318 27.0837 121.817 26.5397 122.452 26.177C123.086 25.803 123.829 25.616 124.679 25.616ZM124.679 27.197C124.112 27.197 123.647 27.384 123.285 27.758C122.933 28.1207 122.724 28.6647 122.656 29.39H126.617C126.617 28.9593 126.543 28.5797 126.396 28.251C126.26 27.9223 126.05 27.6673 125.767 27.486C125.483 27.2933 125.121 27.197 124.679 27.197ZM135.679 25.616C135.815 25.616 135.973 25.6217 136.155 25.633C136.336 25.6443 136.489 25.667 136.614 25.701L136.427 27.69C136.325 27.6673 136.189 27.6503 136.019 27.639C135.86 27.6163 135.718 27.605 135.594 27.605C135.254 27.605 134.925 27.6617 134.608 27.775C134.302 27.877 134.024 28.0357 133.775 28.251C133.537 28.455 133.344 28.7213 133.197 29.05C133.061 29.3787 132.993 29.7697 132.993 30.223V35H130.851V25.786H132.5L132.806 27.384H132.908C133.089 27.0553 133.316 26.7607 133.588 26.5C133.86 26.228 134.171 26.0127 134.523 25.854C134.885 25.6953 135.271 25.616 135.679 25.616Z" fill="white"/>
</g>
<defs>
<clipPath id="clip0_1702_11943">
<rect width="148" height="44" fill="white"/>
</clipPath>
</defs>
</svg>
