<svg width="32" height="32" viewBox="0 0 32 32" fill="none" xmlns="http://www.w3.org/2000/svg">
  <g clip-path="url(#clip0_165_14219)">
    <rect width="32" height="32" rx="8" fill="white"/>
    <path fill-rule="evenodd" clip-rule="evenodd" d="M100 0H0V100H100V0ZM24.5796 11.5985C24.3707 10.8131 23.7526 10.1934 22.9663 9.98107C21.5444 9.59998 15.8397 9.59998 15.8397 9.59998C15.8397 9.59998 10.1379 9.59998 8.71319 9.98107C7.92973 10.1905 7.31167 10.8102 7.09985 11.5985C6.71973 13.024 6.71973 16 6.71973 16C6.71973 16 6.71973 18.976 7.09985 20.4014C7.30877 21.1869 7.92683 21.8065 8.71319 22.0189C10.1379 22.4 15.8397 22.4 15.8397 22.4C15.8397 22.4 21.5444 22.4 22.9663 22.0189C23.7497 21.8094 24.3678 21.1898 24.5796 20.4014C24.9597 18.976 24.9597 16 24.9597 16C24.9597 16 24.9597 13.024 24.5796 11.5985ZM14.0175 18.7432L18.7559 16L14.0175 13.2567V18.7432Z" fill="#FF3000"/>
  </g>
  <defs>
    <clipPath id="clip0_165_14219">
      <rect width="32" height="32" rx="8" fill="white"/>
    </clipPath>
  </defs>
</svg>
